<?xml version="1.0" encoding="UTF-8" standalone="no"?>
<!-- Created with Inkscape (http://www.inkscape.org/) -->
<svg
   xmlns:svg="http://www.w3.org/2000/svg"
   xmlns="http://www.w3.org/2000/svg"
   version="1.0"
   width="900"
   height="600"
   id="svg2">
  <defs
     id="defs5" />
  <rect
     width="900"
     height="600"
     x="0"
     y="0"
     id="rect2415"
     style="fill:#ffffff;stroke:none" />
  <path
     d="M 551,120.5625 C 501.86082,120.5625 461.96876,160.45459 461.96875,209.59375 C 461.96875,220.3082 463.86826,230.57624 467.34375,240.09375 L 448.53125,250.96875 L 433.46875,242.28125 C 437.06815,232.61604 439.03125,222.16304 439.03125,211.25 C 439.03125,162.11084 399.13916,122.21875 350,122.21875 C 324.7576,122.21875 301.95815,132.75685 285.75,149.65625 L 313.875,165.90625 C 323.79021,157.99254 336.33702,153.25 350,153.25 C 382.016,153.25 408,179.234 408,211.25 C 408,216.49136 407.30526,221.57576 406,226.40625 L 274.5625,150.5 L 259.5625,176.5 L 390.9375,252.3125 C 380.44449,262.77382 365.97625,269.25 350,269.25 C 317.984,269.25 292,243.266 292,211.25 C 292,208.53872 292.20193,205.86264 292.5625,203.25 L 264.3125,186.9375 C 262.12319,194.66187 260.96875,202.8281 260.96875,211.25 C 260.96875,260.38916 300.86084,300.28124 350,300.28125 C 377.4892,300.28125 402.06963,287.79069 418.40625,268.1875 L 436.5,278.625 L 436.5,297.0625 C 394.57075,304.2661 362.62501,340.80875 362.625,384.78125 C 362.62499,426.45467 391.30942,461.47614 430,471.15625 L 430,438.5625 C 408.7089,429.97243 393.65625,409.13707 393.65625,384.78125 C 393.65624,358.00662 411.82423,335.44897 436.5,328.78125 L 436.5,480 L 466.5,480 L 466.5,328.6875 C 491.33647,335.24736 509.65625,357.89244 509.65625,384.78125 C 509.65624,409.25647 494.45687,430.17647 473,438.6875 L 473,471.21875 C 511.84561,461.64744 540.68749,426.56474 540.6875,384.78125 C 540.68749,340.69855 508.58437,304.07396 466.5,297 L 466.5,275.25 L 482.25,266.15625 C 498.58444,285.98539 523.32757,298.62499 551,298.625 C 600.13914,298.62501 640.03124,258.73291 640.03125,209.59375 C 640.03125,200.9986 638.80825,192.67782 636.53125,184.8125 L 608.375,201.0625 C 608.78492,203.84333 609,206.6996 609,209.59375 C 608.99998,241.60974 583.016,267.59375 551,267.59375 C 534.8491,267.59376 520.23817,260.97609 509.71875,250.3125 L 640.8125,174.59375 L 625.8125,148.625 L 494.84375,224.21875 C 493.63022,219.54923 493,214.64132 493,209.59375 C 493.00001,177.57774 518.984,151.59375 551,151.59375 C 564.47865,151.59375 576.86706,156.21551 586.71875,163.9375 L 614.90625,147.625 C 598.72079,130.93903 576.06029,120.5625 551,120.5625 z"
     id="path2386"
     style="fill:#be0026;stroke:none" />
</svg>
