<?xml version="1.0" encoding="UTF-8" standalone="no"?>
<!-- Created with Inkscape (http://www.inkscape.org/) -->
<svg
   xmlns:svg="http://www.w3.org/2000/svg"
   xmlns="http://www.w3.org/2000/svg"
   version="1.0"
   width="900"
   height="630"
   id="svg2">
  <defs
     id="defs5" />
  <rect
     width="900"
     height="630"
     x="0"
     y="0"
     id="rect2411"
     style="fill:#ffffff;stroke:none" />
  <path
     d="M 441,125.75 C 341.58611,125.75 259.99477,202.5391 252.34375,300 L 281.15625,300 C 288.73038,218.39134 357.42203,154.4375 441,154.4375 C 514.38018,154.43751 576.26584,203.73665 595.40625,271 L 565.34375,271 C 547.22016,219.79844 498.38815,183.09375 441,183.09375 C 373.25998,183.09375 317.4295,234.2463 309.96875,300 L 340.59375,300 C 343.62048,279.61545 352.73272,261.20503 366,246.65625 L 366,383.34375 C 352.73272,368.79497 343.62048,350.38455 340.59375,330 L 309.96875,330 C 316.64238,388.81655 362.01753,435.95925 420,445.25 L 420,474.1875 C 346.173,464.52345 288.08489,404.65375 281.15625,330 L 252.34375,330 C 259.99476,427.4609 341.58611,504.24999 441,504.25 C 540.41389,504.25 622.00525,427.4609 629.65625,330 L 600.84375,330 C 593.9151,404.65375 535.827,464.52345 462,474.1875 L 462,445.25 C 519.98247,435.95925 565.35763,388.81655 572.03125,330 L 541.40625,330 C 538.37952,350.38455 529.26728,368.79497 516,383.34375 L 516,246.65625 C 529.26728,261.20503 538.37952,279.61545 541.40625,300 L 552.59375,300 L 572.03125,300 L 600.84375,300 L 614.6875,300 L 629.65625,300 C 622.00524,202.5391 540.41389,125.75 441,125.75 z M 441,213.5 C 467.3147,213.5 491.2696,223.5523 509.3125,240 L 474,240 L 474,390 L 509.3125,390 C 491.2696,406.4477 467.31471,416.5 441,416.5 C 414.68529,416.5 390.7304,406.4477 372.6875,390 L 408,390 L 408,240 L 372.6875,240 C 390.7304,223.5523 414.68529,213.5 441,213.5 z M 420,240 L 420,390 L 462,390 L 462,240 L 420,240 z"
     id="path2386"
     style="fill:#be0026;stroke:none" />
</svg>
