<?xml version="1.0" encoding="UTF-8" standalone="no"?><!-- Created with Inkscape (http://www.inkscape.org/) --><svg xmlns="http://www.w3.org/2000/svg" height="880" width="1320" version="1.1" xmlns:xlink="http://www.w3.org/1999/xlink"> <g transform="translate(0,360)">  <rect fill-rule="nonzero" transform="translate(0,-360)" height="880" width="1320" y="0" x="0" fill="#FFF"/>  <g transform="matrix(1.2,0,0,1.2,342,-224)">   <g fill="#F00">    <path d="m257.5,240.44,0,15.125c-27.649,0.77221-54.224,5.7804-79.125,14.406,0.95066,4.9716,2.0565,9.8814,3.2812,14.75,23.828-8.4404,49.313-13.37,75.844-14.156v9c-25.719,0.79162-50.425,5.6248-73.5,13.875,1.3904,4.8204,2.9408,9.5782,4.5938,14.281,23.861-8.5888,49.585-13.281,76.406-13.281,26.825,0,52.543,4.6909,76.406,13.281,1.653-4.7031,3.2033-9.4608,4.5938-14.281-23.078-8.2514-47.779-13.084-73.5-13.875v-9c26.53,0.78224,52.017,5.6858,75.844,14.125,1.2242-4.8688,2.3312-9.7782,3.2812-14.75-24.895-8.6222-51.48-13.607-79.125-14.375v-15.125h-15z"/>    <path d="m265,303.44c-25.722,0-50.393,4.4895-73.281,12.719,15.76,40.35,41.11,75.88,73.28,103.78,32.17-27.9,57.52-63.43,73.28-103.78-22.89-8.23-47.56-12.72-73.28-12.72zm0,15c18.343,0,36.111,2.4407,53,7.0312-13.041,27.924-31.086,53.053-53,74.188-21.914-21.134-39.959-46.263-53-74.188,16.889-4.5906,34.657-7.0312,53-7.0312z"/>   </g>   <g id="g4969" fill="#F00">    <path d="M177.75,321.72c-50.21,22.12-90.428,62.77-112,113.28,8.532,1.0218,17.224,1.5625,26.031,1.5625,47.949,0,92.253-15.588,128.12-41.969-3.126-3.9035-6.1456-7.898-9.0625-11.969-33.357,24.481-74.508,38.938-119.06,38.938-0.90619,0-1.8154-0.0193-2.7188-0.0312,21.28-37.942,54.485-68.275,94.531-85.969-2.0715-4.556-4.0136-9.1609-5.8438-13.844z"/>    <path d="M169.97,298.94c-65.67,28.26-116.24,84.94-136.22,154.56,18.586,4.6036,38.022,7.0625,58.031,7.0625,53.982,0,103.8-17.789,143.94-47.812-3.4657-3.6396-6.7952-7.3966-10.062-11.219-37.445,27.66-83.75,44.031-133.88,44.031-13.156,0-26.055-1.1511-38.594-3.3125,21.207-57.761,65.38-104.43,121.44-128.97-1.6719-4.7242-3.235-9.5067-4.6562-14.344z"/>    <path d="m164.16,275.34c-81.225,33.512-142.1,106.28-159,194.69,27.137,9.3976,56.291,14.531,86.625,14.531,60.8,0,116.79-20.521,161.47-55-3.8066-3.3625-7.5385-6.8126-11.156-10.375-41.8,31.609-93.859,50.375-150.31,50.375-23.955,0-47.134-3.3874-69.062-9.6875,18.964-76.675,73.376-139.38,144.84-169.72-1.2632-4.8857-2.4045-9.827-3.4062-14.812z"/>   </g>   <use xlink:href="#g4969" transform="matrix(-0.5,0.8660254,-0.8660254,-0.5,674.62814,250.50326)" height="520" width="530" y="0" x="0" fill="#ff0000"/>   <use xlink:href="#g4969" transform="matrix(-0.5,-0.8660254,0.8660254,-0.5,120.37188,709.49674)" height="520" width="530" y="0" x="0" fill="#ff0000"/>  </g> </g></svg>