<?xml version="1.0" encoding="UTF-8" standalone="no"?>
<!-- Created with Inkscape (http://www.inkscape.org/) -->

<svg
   xmlns:dc="http://purl.org/dc/elements/1.1/"
   xmlns:cc="http://creativecommons.org/ns#"
   xmlns:rdf="http://www.w3.org/1999/02/22-rdf-syntax-ns#"
   xmlns:svg="http://www.w3.org/2000/svg"
   xmlns="http://www.w3.org/2000/svg"
   xmlns:sodipodi="http://sodipodi.sourceforge.net/DTD/sodipodi-0.dtd"
   xmlns:inkscape="http://www.inkscape.org/namespaces/inkscape"
   version="1.1"
   id="svg4485"
   width="324"
   height="216"
   viewBox="0 0 324 216"
   sodipodi:docname="Flag_of_Kuki_Saitama.svg"
   inkscape:version="0.92.1 r15371">
  <metadata
     id="metadata4491">
    <rdf:RDF>
      <cc:Work
         rdf:about="">
        <dc:format>image/svg+xml</dc:format>
        <dc:type
           rdf:resource="http://purl.org/dc/dcmitype/StillImage" />
        <dc:title></dc:title>
      </cc:Work>
    </rdf:RDF>
  </metadata>
  <defs
     id="defs4489" />
  <sodipodi:namedview
     pagecolor="#ffffff"
     bordercolor="#666666"
     borderopacity="1"
     objecttolerance="10"
     gridtolerance="10"
     guidetolerance="10"
     inkscape:pageopacity="0"
     inkscape:pageshadow="2"
     inkscape:window-width="1920"
     inkscape:window-height="1017"
     id="namedview4487"
     showgrid="false"
     fit-margin-top="0"
     fit-margin-left="0"
     fit-margin-right="0"
     fit-margin-bottom="0"
     inkscape:zoom="2.6778396"
     inkscape:cx="64.162132"
     inkscape:cy="87.236846"
     inkscape:window-x="-8"
     inkscape:window-y="-8"
     inkscape:window-maximized="1"
     inkscape:current-layer="svg4485" />
  <path
     style="opacity:1;fill:#ffffff;fill-opacity:1;stroke:none;stroke-width:46.30388641;stroke-linecap:round;stroke-linejoin:round;stroke-miterlimit:4;stroke-dasharray:none;stroke-dashoffset:0;stroke-opacity:1"
     d="M 0,-5.6326389e-6 H 324 V 215.99999 H 0 Z"
     id="rect4511" />
  <g
     id="g4509"
     transform="matrix(0.79197546,0,0,0.79197546,84.888454,18.755653)">
    <g
       transform="matrix(0.93919783,0,0,0.93919783,1744.5315,-1211.9513)"
       id="g4531"
       style="opacity:1">
      <path
         sodipodi:nodetypes="csssssssssssc"
         inkscape:connector-curvature="0"
         id="path4537"
         d="m -1853.3237,1422.6624 c -0.7675,-0.7675 -0.5567,-33.8666 0.2659,-41.7542 3.911,-37.5025 26.4387,-60.5475 64.8361,-66.3251 8.2227,-1.2372 34.1055,-1.5653 34.8003,-0.4411 0.2321,0.3756 -1.6475,3.2941 -4.1769,6.4855 -11.5244,14.5408 -28.2244,28.0891 -45.0521,36.5499 -3.2749,1.6466 -5.9543,3.2784 -5.9543,3.6263 0,0.3479 4.2526,0.8606 9.4503,1.1393 13.5702,0.7276 27.6284,2.5238 35.6212,4.5513 7.5351,1.9115 14.9656,4.9887 14.9656,6.1978 0,1.2168 -10.7038,10.0117 -18.4517,15.1612 -19.9801,13.2794 -42.8953,23.3892 -73.3835,32.3756 -10.0317,2.9568 -12.0226,3.3318 -12.9209,2.4335 z"
         style="display:inline;fill:#a6d523;stroke-width:0.74119872" />
      <path
         inkscape:connector-curvature="0"
         id="path4535"
         d="m -1667.777,1455.6694 c -8.6237,-5.6396 -27.5233,-15.5289 -36.6893,-19.1978 -18.9117,-7.57 -38.1689,-12.2614 -56.1458,-13.6782 -3.567,-0.2811 -6.4749,-0.7314 -6.462,-1.0005 0.013,-0.2692 2.2501,-1.9903 4.9715,-3.8248 12.5506,-8.4601 25.58,-20.6421 33.8182,-31.6189 8.8963,-11.8538 16.2645,-25.9359 14.8137,-28.3124 -0.9872,-1.6172 -11.0411,-4.9665 -19.2423,-6.4104 -3.6243,-0.638 -11.4794,-1.3656 -17.4557,-1.6168 l -10.8661,-0.4567 3.6313,-4.3635 c 7.7104,-9.265 13.5584,-19.6095 15.5443,-27.4962 l 0.8795,-3.4929 h 9.4505 c 24.5392,0 44.8305,7.9764 59.0051,23.1946 8.3757,8.9923 13.6858,19.5906 16.7883,33.5071 1.294,5.8046 1.5328,10.2005 1.839,33.8519 0.2243,17.3279 0.054,29.9202 -0.4702,34.7371 -0.9187,8.4446 -3.4135,19.1779 -4.7512,20.4408 -0.6548,0.6181 -2.8423,-0.4587 -8.6588,-4.2624 z"
         style="display:inline;fill:#329f2d;stroke-width:0.74119872" />
      <path
         inkscape:connector-curvature="0"
         id="path4533"
         d="m -1783.5213,1506.9187 c -36.4198,-3.4881 -59.9037,-22.1591 -67.3117,-53.5161 -2.0905,-8.8489 -3.2986,-22.6747 -2.1068,-24.1108 1.7522,-2.1113 32.6172,0.2253 52.1177,3.9455 39.236,7.4852 76.5933,24.5657 106.501,48.6944 9.421,7.6005 11.5182,9.877 10.5352,11.4354 -1.1241,1.782 -12.3331,7.3622 -19.0829,9.4999 -11.8256,3.7454 -15.9726,4.1426 -46.0694,4.4132 -15.4911,0.1392 -31.0535,-0.023 -34.5831,-0.3615 z"
         style="display:inline;fill:#0c449a;stroke-width:0.74119872" />
    </g>
  </g>
</svg>
