<?xml version="1.0" encoding="UTF-8" standalone="no"?>
<!-- Created with Inkscape (http://www.inkscape.org/) -->
<svg
   xmlns:svg="http://www.w3.org/2000/svg"
   xmlns="http://www.w3.org/2000/svg"
   version="1.0"
   width="900"
   height="600"
   id="svg2">
  <defs
     id="defs5" />
  <rect
     width="900"
     height="600"
     x="0"
     y="0"
     id="rect2412"
     style="fill:#f0e68c;stroke:none" />
  <path
     d="M 441,90.46875 C 329.50255,95.196792 240.25294,187.35931 240.25,300 C 240.24698,415.65622 334.34379,509.74698 450,509.75 C 565.38376,509.75302 659.27384,416.09448 659.71875,300.8125 C 659.73874,300.54212 659.74916,300.27112 659.75,300 C 659.75898,299.6143 659.74855,299.2284 659.71875,298.84375 C 659.11008,186.73223 570.11202,95.186611 459,90.46875 L 459,113.46875 C 558.02689,118.15745 636.75241,199.80419 636.75,300 C 636.7473,403.21177 553.21178,486.7527 450,486.75 C 346.78823,486.7473 263.2473,403.21178 263.25,300 C 263.25262,199.80407 341.97326,118.1528 441,113.46875 L 441,90.46875 z M 440.78125,120.46875 C 345.95742,125.29103 270.25251,204.00053 270.25,300 C 270.24741,399.09622 350.90377,479.74741 450,479.75 C 548.7163,479.75258 629.06976,399.6995 629.6875,301.125 C 629.68816,301.01938 629.71827,300.91816 629.71875,300.8125 C 629.73874,300.54212 629.74916,300.27112 629.75,300 C 629.76051,299.50958 629.73963,299.019 629.6875,298.53125 C 628.91304,203.12874 553.43951,125.15542 459,120.46875 L 459,143.53125 C 541.44803,148.19396 606.75201,216.3736 606.75,300 C 606.74773,386.65178 536.65178,456.75227 450,456.75 C 363.34822,456.74773 293.24773,386.65178 293.25,300 C 293.25219,216.3735 358.55215,148.19017 441,143.53125 L 441,120.46875 C 440.92723,120.47236 440.854,120.46505 440.78125,120.46875 z M 441,151.03125 C 362.91239,155.70604 300.75207,220.76356 300.75,300 C 300.74785,382.26022 367.73978,449.24785 450,449.25 C 531.88087,449.25214 598.57143,382.86456 599.1875,301.125 C 599.18829,301.01957 599.21818,300.91799 599.21875,300.8125 C 599.23874,300.54212 599.24916,300.27112 599.25,300 C 599.26051,299.50958 599.23963,299.019 599.1875,298.53125 C 598.41793,219.9649 536.6008,155.67567 459,151.03125 L 459,174.0625 C 524.59897,178.67044 576.2516,233.21302 576.25,300 C 576.24817,369.81578 519.81578,426.25183 450,426.25 C 380.18422,426.24817 323.74817,369.81578 323.75,300 C 323.75175,233.21293 375.40123,178.66752 441,174.0625 L 441,151.03125 z M 450,175.46875 C 449.74418,244.25252 393.84301,300.0018 325,300 C 393.99991,300.0018 450.00166,356.00009 450,425 C 450.0018,356 506,299.9982 575,300 C 506.15702,299.9982 450.25225,244.2525 450,175.46875 z M 450,255 C 450,255 457.05051,266.80051 470.25,280 C 483.57438,293.32438 495,300 495,300 C 495,300 482.06394,308.43606 469.875,320.625 C 457.74742,332.75258 450,345 450,345 C 450,345 442.00062,332.50062 429.375,319.875 C 416.81234,307.31234 405,300 405,300 C 405,300 415.49766,293.87734 428.875,280.5 C 442.19117,267.18383 450,255 450,255 z"
     id="path2414"
     style="fill:#005344;stroke:none" />
</svg>
