<svg xmlns="http://www.w3.org/2000/svg" xmlns:xlink="http://www.w3.org/1999/xlink" height="400" width="600">
 <rect fill="#ffffff" height="400" width="600" y="0" x="0"/>
 <g fill="#ff0000">
  <path d="m300 128c-39.8 0-72 32.2-72 72s32.2 72 72 72c3.2 0 6.4-0.2 9.6-0.7v-121.9c24.4 4.6 42 25.9 42 50.7 0 19.14-10.7 36.72-27.6 45.6v22.2c28.7-10.2 47.9-37.4 48-67.9 0-39.8-32.2-72-72-72zm-9.6 21.4v101.3c-24.4-4.62-42-25.9-42-50.7s17.6-46.1 42-50.6z"/>
  <path id="a" d="m300 79.5a120 120 0 0 0 -100.1 53.9l17.64 10.2a99.6 99.6 0 0 1 82.4 -43.7 99.6 99.6 0 0 1 82.4 43.9l17.7-10.2a120 120 0 0 0 -100 -54.1zm-9.8-11.9v38.9c0 6.8 3.7 13.2 9.6 16.6 5.9-3.4 9.6-9.8 9.6-16.6v-38.9z"/>
  <use xlink:href="#a" transform="rotate(120 300 200)"/>
  <use xlink:href="#a" transform="rotate(240 300 200)"/>
 </g>
</svg>
