<?xml version="1.0" encoding="UTF-8" standalone="no"?>
<!-- Created with Inkscape (http://www.inkscape.org/) -->

<svg
   xmlns:dc="http://purl.org/dc/elements/1.1/"
   xmlns:cc="http://creativecommons.org/ns#"
   xmlns:rdf="http://www.w3.org/1999/02/22-rdf-syntax-ns#"
   xmlns:svg="http://www.w3.org/2000/svg"
   xmlns="http://www.w3.org/2000/svg"
   xmlns:sodipodi="http://sodipodi.sourceforge.net/DTD/sodipodi-0.dtd"
   xmlns:inkscape="http://www.inkscape.org/namespaces/inkscape"
   version="1.1"
   id="svg2"
   width="324"
   height="216"
   viewBox="0 0 324 216"
   sodipodi:docname="Flag of Shiki, Saitama.svg"
   inkscape:version="0.92.3 (2405546, 2018-03-11)">
  <metadata
     id="metadata8">
    <rdf:RDF>
      <cc:Work
         rdf:about="">
        <dc:format>image/svg+xml</dc:format>
        <dc:type
           rdf:resource="http://purl.org/dc/dcmitype/StillImage" />
        <dc:title></dc:title>
      </cc:Work>
    </rdf:RDF>
  </metadata>
  <defs
     id="defs6" />
  <sodipodi:namedview
     pagecolor="#ffffff"
     bordercolor="#666666"
     borderopacity="1"
     objecttolerance="10"
     gridtolerance="10"
     guidetolerance="10"
     inkscape:pageopacity="0"
     inkscape:pageshadow="2"
     inkscape:window-width="1920"
     inkscape:window-height="1017"
     id="namedview4"
     showgrid="false"
     inkscape:zoom="1.2396193"
     inkscape:cx="192.18923"
     inkscape:cy="65.062103"
     inkscape:window-x="-8"
     inkscape:window-y="-8"
     inkscape:window-maximized="1"
     inkscape:current-layer="g1034" />
  <style
     id="style2"
     type="text/css">
	.st0{fill:#04A34F;}
	.st1{fill:#FDF200;}
</style>
  <style
     id="style829"
     type="text/css">
	.st0{fill:#990100;}
	.st1{fill:#fff;}
</style>
  <style
     id="style864"
     type="text/css">
	.st0{fill:#004000;}
	.st1{fill:#fff;}
</style>
  <style
     id="style938"
     type="text/css">
	.st0{fill:#fff;}
	.st1{fill:#098237;}
	.st2{fill:#BC1819;}
	.st3{fill:#1E3D8B;}
</style>
  <style
     id="style976"
     type="text/css">
	.st0{fill:#FFFFFF;}
	.st1{fill:#E30E21;}
	.st2{fill:none;stroke:#E30E21;stroke-width:7;stroke-miterlimit:10;}
</style>
  <g
     id="g1034"
     transform="translate(265.24648,-80.619718)">
    <rect
       id="rect978"
       height="216"
       width="324"
       class="st0"
       y="80.619736"
       x="-265.24649"
       style="fill:#ffffff;stroke-width:1.33333325" />
    <ellipse
       id="circle980"
       cy="175.99548"
       cx="-102.19883"
       class="st1"
       style="fill:#e30e21;stroke-width:1.39221787"
       rx="7.5508485"
       ry="7.2105856" />
    <rect
       id="rect982"
       height="33.876144"
       width="13.819477"
       class="st1"
       y="130.96333"
       x="-109.03734"
       style="fill:#e30e21;stroke-width:1.39221787" />
    <rect
       id="rect984"
       height="35.100582"
       width="13.819477"
       class="st1"
       y="209.59952"
       x="-109.03734"
       style="fill:#e30e21;stroke-width:1.39221787" />
    <rect
       id="rect986"
       height="11.019952"
       width="29.918457"
       class="st1"
       y="175.99548"
       x="-152.34787"
       style="fill:#e30e21;stroke-width:1.39221787" />
    <rect
       id="rect988"
       height="11.019952"
       width="29.918457"
       class="st1"
       y="175.99548"
       x="-82.110733"
       style="fill:#e30e21;stroke-width:1.39221787" />
    <rect
       id="rect990"
       height="12.652536"
       width="91.180054"
       class="st1"
       y="152.18694"
       x="-146.36417"
       style="fill:#e30e21;stroke-width:1.39221787" />
    <rect
       id="rect992"
       height="12.788585"
       width="91.180054"
       class="st1"
       y="210.55185"
       x="-146.36417"
       style="fill:#e30e21;stroke-width:1.39221787" />
    <ellipse
       id="ellipse994"
       ry="53.195065"
       rx="54.280628"
       cy="187.83171"
       cx="-102.05637"
       class="st2"
       style="fill:none;stroke:#e30e21;stroke-width:9.74552727;stroke-miterlimit:10" />
    <g
       id="g998"
       transform="matrix(1.4246885,0,0,1.3604876,-273.73132,76.271728)">
	<path
   id="path996"
   d="m 120.5,48.9 c 17.7,0 32.1,14.9 32.1,33.1 0,18.2 -14.4,33.1 -32.1,33.1 -17.7,0 -32.1,-14.9 -32.1,-33.1 0,-18.2 14.4,-33.1 32.1,-33.1 m 0,-3 c -19.4,0 -35.1,16.2 -35.1,36.1 0,19.9 15.8,36.1 35.1,36.1 19.4,0 35.1,-16.2 35.1,-36.1 0,-19.9 -15.7,-36.1 -35.1,-36.1 z"
   class="st0"
   inkscape:connector-curvature="0"
   style="fill:#ffffff" />

</g>
    <path
       id="path1000"
       d="m -74.844819,175.99548 c 0,14.42116 -12.25232,26.12135 -27.354021,26.12135 -15.10169,0 -27.35402,-11.70019 -27.35402,-26.12135"
       class="st2"
       inkscape:connector-curvature="0"
       style="fill:none;stroke:#e30e21;stroke-width:9.74552727;stroke-miterlimit:10" />
    <path
       id="path1002"
       d="m -95.217863,130.41914 h -14.246887 c 0.28494,-0.8163 7.12344,-3.40122 7.12344,-7.07454 0,3.80936 6.838509,6.25824 7.123447,7.07454 z"
       class="st1"
       inkscape:connector-curvature="0"
       style="fill:#e30e21;stroke-width:1.39221787" />
    <path
       id="path1004"
       d="m -160.896,180.89323 v 13.60488 c -0.85481,-0.2721 -3.56172,-6.80244 -7.40838,-6.80244 3.84666,0 6.55357,-6.53034 7.40838,-6.80244 z"
       class="st1"
       inkscape:connector-curvature="0"
       style="fill:#e30e21;stroke-width:1.39221787" />
    <path
       id="path1006"
       d="m -109.32228,244.56405 h 14.246886 c -0.284939,0.8163 -7.123446,3.40123 -7.123446,7.07455 0,-3.67332 -6.69604,-6.25825 -7.12344,-7.07455 z"
       class="st1"
       inkscape:connector-curvature="0"
       style="fill:#e30e21;stroke-width:1.39221787" />
    <path
       id="path1008"
       d="m -43.359206,194.49811 v -13.60488 c 0.854815,0.2721 3.561722,6.80244 7.408381,6.80244 -3.989128,0 -6.553566,6.3943 -7.408381,6.80244 z"
       class="st1"
       inkscape:connector-curvature="0"
       style="fill:#e30e21;stroke-width:1.39221787" />
  </g>
</svg>
