<?xml version="1.0" encoding="UTF-8" standalone="no"?>
<!-- Created with Inkscape (http://www.inkscape.org/) -->
<svg
   xmlns:svg="http://www.w3.org/2000/svg"
   xmlns="http://www.w3.org/2000/svg"
   version="1.0"
   width="900"
   height="600"
   id="svg2">
  <defs
     id="defs5" />
  <rect
     width="900"
     height="600"
     x="0"
     y="0"
     id="rect2420"
     style="fill:#ffffff;stroke:none" />
  <path
     d="M 445.34375,120.0625 C 349.45876,122.49446 272.16277,200.03357 270.0625,296 L 301.0625,296 C 303.1504,216.92879 366.92842,153.15014 446,151.0625 L 446,120.0625 C 445.78236,120.06724 445.5612,120.05698 445.34375,120.0625 z M 454,120.0625 L 454,151.0625 C 533.07158,153.15014 596.8496,216.92879 598.9375,296 L 629.9375,296 C 627.84183,199.80789 550.19261,122.15842 454,120.0625 z M 391.125,172.6875 C 380.375,177.0625 360.10265,189.94796 348.96875,202.9375 C 381.34375,204.8125 386.375,208.15625 386.375,208.15625 C 358.32322,227.6314 339.62444,259.59948 338.34375,296 L 376.375,296 C 378.4619,257.15431 410.63677,226.25 450,226.25 C 489.36323,226.25 521.5381,257.15431 523.625,296 L 561.65625,296 C 560.37556,259.59948 541.67678,227.6314 513.625,208.15625 C 513.625,208.15625 517.625,205.65625 550.625,202.53125 C 539.21343,189.99061 521.16186,177.73093 508.75,173.0625 C 508.75,173.0625 493,173.5 450,184 C 413.625,174.25 391.125,172.6875 391.125,172.6875 z M 270.0625,304 C 272.15817,400.19211 349.80739,477.84158 446,479.9375 L 446,448.9375 C 366.92842,446.84986 303.1504,383.07121 301.0625,304 L 270.0625,304 z M 338.34375,304 C 339.61764,340.14236 358.05841,371.92655 385.78125,391.4375 C 385.78125,391.4375 381.375,394.84375 349.5,397.34375 C 360.62941,409.83848 377.63493,420.42571 390.96875,426.9375 C 390.96875,426.9375 409.875,426.2 450,415.7 C 490,425.2 508.90625,427.1875 508.90625,427.1875 C 508.90625,427.1875 535.125,414.59375 550,397.46875 C 516.46031,393.75251 514.21875,391.4375 514.21875,391.4375 C 541.94159,371.92655 560.38236,340.14236 561.65625,304 L 523.625,304 C 521.5381,342.84569 489.36323,373.75 450,373.75 C 410.63677,373.75 378.4619,342.84569 376.375,304 L 338.34375,304 z M 598.9375,304 C 596.8496,383.07121 533.07158,446.84986 454,448.9375 L 454,479.9375 C 550.19261,477.84158 627.84183,400.19211 629.9375,304 L 598.9375,304 z"
     id="path2392"
     style="fill:#be0026;stroke:none" />
</svg>
