<svg xmlns="http://www.w3.org/2000/svg" height="400" width="600">
 <rect fill="#ffffff" height="400" width="600" y="0" x="0"/>
 <path fill="#e5314e" d="m298.1 137.8c0 34.5-28 62.4-62.4 62.4 34.45 0 62.4 28 62.4 62.4 0-34.5 28-62.4 62.4-62.4-34.5 0-62.4-28-62.4-62.4zm-150.4-62.8c17.7 19.6 30.1 47.9 30.4 71.2 0.3 23.4-4.8 20.5-4.8 54 0 68.9 55.9 124.8 124.8 124.8s124.8-55.9 124.8-124.8c0-20.6-5.1-40.8-14.8-59h-89.7c25.2 8.7 42.1 32.4 42.1 59 0 34.5-28 62.4-62.4 62.4s-62.4-28-62.4-62.4 28-62.4 62.4-62.4l107.9 0.1 46.2-62.5h-154.2c-24.4 0-48.3 7.2-68.6 20.6l-9.9-21z"/>
</svg>
