<svg xmlns="http://www.w3.org/2000/svg" height="400" width="600" version="1.1">
 <rect fill-rule="evenodd" height="400" width="600" y="0" x="0" fill="#ffffff"/>
 <path fill="#96c61a" d="m242.5 275.9c-11.1-53.04 19.86-73.41 70.19-82.58 50.33-9.175 58.35-10.15 83.53-23.54-7.712 55.47-34.47 71.31-84.11 76.25-49.67 4.956-63.36 7.019-69.6 29.9z"/>
 <path fill="#51aa1c" d="m223.9 250.1c-29.2-110.1 50.6-137.9 107.8-152.6 57.4-14.64 83.9-17.82 113.7-38.64 2.4 92.44-52.9 107.1-126.6 117.6-73.63 10.55-91.24 35.36-95.02 73.56z"/>
 <path fill="#3aa9fa" d="m289.2 71.72c-74.38 0-134.7 60.3-134.7 134.7-0.0403 74.41 60.27 134.7 134.7 134.7 74.44 0.0403 134.8-60.31 134.7-134.7-0.0516-15.59-2.809-31.05-8.149-45.69 2.409 9.192 3.631 18.65 3.638 28.16 0 61.52-49.87 111.4-111.4 111.4-61.52 0-111.4-49.87-111.4-111.4 0-61.52 49.87-111.4 111.4-111.4 12.41 0.0259 24.73 2.126 36.45 6.214-18.99-7.062-38.17-11.83-55.3-11.96z"/>
</svg>
