<?xml version="1.0" encoding="UTF-8" standalone="no"?>
<!-- Created with Inkscape (http://www.inkscape.org/) -->

<svg
   width="900"
   height="600.00006"
   viewBox="0 0 238.12499 158.75002"
   version="1.1"
   id="svg5"
   inkscape:version="1.1.1 (3bf5ae0d25, 2021-09-20)"
   sodipodi:docname="drawing.svg"
   xmlns:inkscape="http://www.inkscape.org/namespaces/inkscape"
   xmlns:sodipodi="http://sodipodi.sourceforge.net/DTD/sodipodi-0.dtd"
   xmlns="http://www.w3.org/2000/svg"
   xmlns:svg="http://www.w3.org/2000/svg">
  <sodipodi:namedview
     id="namedview7"
     pagecolor="#ffffff"
     bordercolor="#666666"
     borderopacity="1.0"
     inkscape:pageshadow="2"
     inkscape:pageopacity="0.0"
     inkscape:pagecheckerboard="0"
     inkscape:document-units="px"
     showgrid="false"
     units="px"
     fit-margin-top="0"
     fit-margin-left="0"
     fit-margin-right="0"
     fit-margin-bottom="0"
     inkscape:zoom="0.70710678"
     inkscape:cx="552.25039"
     inkscape:cy="211.42493"
     inkscape:window-width="1920"
     inkscape:window-height="1017"
     inkscape:window-x="-8"
     inkscape:window-y="-8"
     inkscape:window-maximized="1"
     inkscape:current-layer="layer1" />
  <defs
     id="defs2" />
  <g
     inkscape:label="Layer 1"
     inkscape:groupmode="layer"
     id="layer1"
     transform="translate(20.016348,-53.171398)">
    <rect
       style="opacity:1;fill:#ffffff;fill-opacity:1;stroke:none;stroke-width:5.52674;stroke-miterlimit:4;stroke-dasharray:none;stroke-opacity:1"
       id="rect12948"
       width="238.125"
       height="158.75"
       x="-20.01635"
       y="53.171406" />
    <g
       id="g12924">
      <path
         id="path4243"
         style="opacity:1;fill:#fa0100;fill-opacity:1;stroke:none;stroke-width:0.236027"
         d="m 99.046151,92.858898 a 39.687039,39.687039 0 0 0 -14.14384,2.608109 l 2.568319,6.112803 a 33.072535,33.072535 0 0 1 11.575521,-2.106329 33.072535,33.072535 0 0 1 16.338019,4.319119 l 3.84214,-5.417759 A 39.687039,39.687039 0 0 0 99.046151,92.858898 Z M 82.46525,96.497953 A 39.687039,39.687039 0 0 0 62.767228,116.50035 l 6.131409,2.47117 a 33.072535,33.072535 0 0 1 16.134416,-16.36231 z m 42.15712,5.702497 -3.84266,5.41827 a 33.072535,33.072535 0 0 1 11.33936,24.92768 33.072535,33.072535 0 0 1 -17.2806,29.05662 l 2.92644,5.93866 a 39.687039,39.687039 0 0 0 20.96874,-34.99528 39.687039,39.687039 0 0 0 -14.11128,-30.34595 z m -62.844229,16.75401 a 39.687039,39.687039 0 0 0 -2.41949,13.59194 39.687039,39.687039 0 0 0 2.61121,14.12213 l 6.104538,-2.56108 a 33.072535,33.072535 0 0 1 -2.101165,-11.56105 33.072535,33.072535 0 0 1 1.94355,-11.11819 z m 7.324101,27.59056 -6.111772,2.56419 a 39.687039,39.687039 0 0 0 19.593636,19.53576 l 2.5492,-6.12418 A 33.072535,33.072535 0 0 1 69.102242,146.54502 Z m 43.362728,16.22899 a 33.072535,33.072535 0 0 1 -13.418819,2.8453 33.072535,33.072535 0 0 1 -11.470101,-2.07687 l -2.551266,6.12727 a 39.687039,39.687039 0 0 0 14.021367,2.56419 39.687039,39.687039 0 0 0 16.344739,-3.52175 z" />
      <path
         id="path4200"
         style="opacity:1;fill:#fa0100;fill-opacity:1;stroke:none;stroke-width:0.165219"
         d="M 99.046151,104.76515 A 27.78093,27.78093 0 0 0 71.264901,132.5464 27.78093,27.78093 0 0 0 99.046151,160.32765 27.78093,27.78093 0 0 0 126.8274,132.5464 27.78093,27.78093 0 0 0 99.046151,104.76515 Z m 0,6.61458 A 21.166423,21.166423 0 0 1 120.21282,132.5464 21.166423,21.166423 0 0 1 99.046151,153.71306 21.166423,21.166423 0 0 1 77.879484,132.5464 21.166423,21.166423 0 0 1 99.046151,111.37973 Z" />
      <path
         id="rect1493"
         style="fill:#fa0100;fill-opacity:1;stroke:none;stroke-width:0.384924"
         d="m 99.046151,79.629731 a 52.916669,52.916669 0 0 0 -3.307292,0.123507 v 31.891592 a 21.166666,21.166666 0 0 1 3.307292,-0.2651 21.166666,21.166666 0 0 1 3.307289,0.26045 V 79.737218 a 52.916669,52.916669 0 0 0 -3.307289,-0.107487 z m -3.307292,73.818229 v 31.8916 a 52.916669,52.916669 0 0 0 3.307292,0.1235 52.916669,52.916669 0 0 0 3.307289,-0.1235 v -31.8916 a 21.166666,21.166666 0 0 1 -3.307289,0.2651 21.166666,21.166666 0 0 1 -3.307292,-0.2651 z" />
      <rect
         style="opacity:1;fill:#fa0100;fill-opacity:1;stroke:none;stroke-width:0.242487"
         id="rect1393"
         width="49.84697"
         height="6.6145835"
         x="74.122665"
         y="129.23912" />
      <path
         id="path1528"
         style="color:#000000;fill:#fa0100;fill-opacity:1;stroke-width:1;-inkscape-stroke:none"
         d="m 130.04374,144.02632 a 33.072919,33.072919 0 0 1 -2.91042,5.93969 l 17.89194,8.75088 a 52.916669,52.916669 0 0 0 2.89181,-5.94899 z" />
      <path
         id="path1663"
         style="color:#000000;fill:#fa0100;fill-opacity:1;stroke-width:1;-inkscape-stroke:none"
         d="m 150.16448,118.87591 -19.51457,3.93103 a 33.072919,33.072919 0 0 1 1.30689,6.48436 l 19.51199,-3.93051 a 52.916669,52.916669 0 0 0 -1.30431,-6.48488 z" />
      <path
         id="path1665"
         style="color:#000000;fill:#fa0100;fill-opacity:1;stroke-width:1;-inkscape-stroke:none"
         d="m 132.28288,91.375268 -13.44517,14.674552 a 33.072919,33.072919 0 0 1 4.87515,4.46898 l 13.44673,-14.676622 a 52.916669,52.916669 0 0 0 -4.87671,-4.46691 z" />
      <path
         id="path4264"
         style="opacity:1;fill:#fa0100;fill-opacity:1;stroke:none;stroke-width:0.314703"
         d="m 104.99928,79.967694 v 6.664192 a 46.301546,46.301546 0 0 1 40.34895,45.914514 46.301546,46.301546 0 0 1 -40.34895,45.91451 v 6.66419 a 52.916057,52.916057 0 0 0 46.96354,-52.5787 52.916057,52.916057 0 0 0 -46.96354,-52.578706 z m -11.906254,0.04031 A 52.916057,52.916057 0 0 0 46.129484,132.5464 52.916057,52.916057 0 0 0 93.093026,185.08479 v -6.66832 A 46.301546,46.301546 0 0 1 52.744068,132.5464 46.301546,46.301546 0 0 1 93.093026,86.676329 Z" />
    </g>
  </g>
</svg>
