<svg width="324" height="216" xmlns="http://www.w3.org/2000/svg">
  <path d="M0 0h324v216H0z" fill="#fff"/>
  <path fill="red" d="m162 36-12.379 29.1-10.039-9.76v13.8l-29.904-12.056 12.388 29.1h-14.181l10.03 9.77L88.01 108l29.904 12.057-10.03 9.76h14.182l-12.388 29.099 29.904-12.057v13.801l10.03-9.76L162 180l12.389-29.1 10.029 9.76v-13.8l29.904 12.056-12.388-29.1h14.181l-10.03-9.76L235.99 108l-29.904-12.057 10.03-9.76h-14.182l12.388-29.099-29.904 12.057V55.34l-10.03 9.76zm0 31.176c23.094 0 41.902 18.272 41.902 40.824S185.094 148.824 162 148.824 120.098 130.552 120.098 108 138.906 67.176 162 67.176zm0 3.648c-12.134 0-22.915 5.473-29.916 14.004l22.941 22.32 6.1-5.933L143.66 84.21c5.283-3.887 11.717-6.005 18.34-6.035 6.634.007 13.087 2.108 18.389 5.988L162 102.066l-.002-.002-6.098 5.934.002.002-23.818 23.172a37.88 37.88 0 0 0 6.111 5.932L162 113.934l23.805 23.17a37.88 37.88 0 0 0 6.111-5.932L168.098 108l23.818-23.172c-7.001-8.53-17.782-14.004-29.916-14.004ZM131.318 85.78c-4.758 6.2-7.572 13.89-7.572 22.221 0 8.33 2.814 16.021 7.572 22.22l5.543-5.394c-3.54-4.939-5.46-10.805-5.51-16.826.05-6.021 1.97-11.887 5.51-16.826zm61.364 0-5.498 5.352c3.532 4.956 5.438 10.838 5.464 16.869-.026 6.031-1.932 11.913-5.464 16.87l5.498 5.35c4.758-6.199 7.572-13.89 7.572-22.22 0-8.33-2.814-16.021-7.572-22.22zm-47.973 46.684-5.533 5.385c6.365 4.603 14.259 7.328 22.824 7.328 8.565 0 16.459-2.725 22.824-7.328l-5.488-5.34c-5.093 3.437-11.138 5.29-17.336 5.316-6.188-.047-12.216-1.916-17.291-5.361z"/>
</svg>
