<?xml version="1.0" encoding="UTF-8" standalone="no"?>
<!-- Created with Inkscape (http://www.inkscape.org/) -->
<svg
   xmlns:svg="http://www.w3.org/2000/svg"
   xmlns="http://www.w3.org/2000/svg"
   version="1.0"
   width="900"
   height="600"
   id="svg2">
  <defs
     id="defs5" />
  <rect
     width="900"
     height="600"
     x="0"
     y="0"
     id="rect3377"
     style="fill:#ffffff;stroke:none" />
  <path
     d="M 444,211.46875 C 399.79915,214.43193 364.42985,249.79741 361.46875,294 L 373,294 C 375.59833,260.24245 399.9245,232.54791 432,224.875 L 432,231.0625 C 403.25839,238.56034 381.57646,263.56816 379.03125,294 L 390.8125,294 C 393.62129,265.93683 415.93951,243.6235 444,240.8125 L 444,229.03125 L 444,223 L 444,211.46875 z M 456,211.46875 L 456,223 L 456,229.03125 L 456,240.8125 C 484.06049,243.6235 506.37871,265.93683 509.1875,294 L 520.96875,294 C 518.42354,263.56816 496.74161,238.56034 468,231.0625 L 468,224.875 C 500.0755,232.54791 524.40167,260.24245 527,294 L 538.53125,294 C 535.57015,249.79741 500.20085,214.43193 456,211.46875 z M 444,247.09375 C 417.4311,250.0815 396.75,272.63719 396.75,300 C 396.75,327.36281 417.4311,349.9185 444,352.90625 L 444,338.03125 C 425.58925,335.15154 411.5,319.21483 411.5,300 C 411.5,280.78517 425.58925,264.84846 444,261.96875 L 444,247.09375 z M 456,247.09375 L 456,261.96875 C 474.41075,264.84846 488.5,280.78517 488.5,300 C 488.5,319.21483 474.41075,335.15154 456,338.03125 L 456,352.90625 C 482.5689,349.9185 503.25,327.36281 503.25,300 C 503.25,272.63719 482.5689,250.0815 456,247.09375 z M 444,265.78125 C 428.6306,268.4546 416.72467,281.21743 415.375,297 L 429.96875,297 C 431.11882,289.24609 436.67177,282.92747 444,280.65625 L 444,265.78125 z M 456,265.78125 L 456,280.65625 C 463.32823,282.92747 468.88118,289.24609 470.03125,297 L 484.625,297 C 483.27533,281.21743 471.3694,268.4546 456,265.78125 z M 415.25,300 C 415.25,319.182 430.818,334.75 450,334.75 C 469.182,334.75 484.75,319.182 484.75,300 L 478.125,300 L 470.25,300 L 429.75,300 L 421.4375,300 L 415.25,300 z M 361.46875,306 C 364.42985,350.20259 399.79915,385.56807 444,388.53125 L 444,377 L 444,370.96875 L 444,359.1875 C 415.93951,356.3765 393.62129,334.06317 390.8125,306 L 379.03125,306 C 381.57646,336.43184 403.25839,361.43966 432,368.9375 L 432,375.125 C 399.9245,367.45209 375.59833,339.75755 373,306 L 361.46875,306 z M 509.1875,306 C 506.37871,334.06317 484.06049,356.3765 456,359.1875 L 456,370.96875 L 456,377 L 456,388.53125 C 500.20085,385.56807 535.57015,350.20259 538.53125,306 L 527,306 C 524.40167,339.75755 500.0755,367.45209 468,375.125 L 468,368.9375 C 496.74161,361.43966 518.42354,336.43184 520.96875,306 L 509.1875,306 z M 435.40625,314 L 464.59375,314 C 460.90768,317.84103 455.73989,320.25 450,320.25 C 444.26011,320.25 439.09232,317.84103 435.40625,314 z"
     id="path3318"
     style="fill:#be0026;stroke:none" />
  <path
     d="M 450,120 C 428.36207,120 409.78347,133.38225 402.125,152.3125 C 394.17322,147.30335 384.78787,144.375 374.71875,144.375 C 346.26513,144.375 323.09376,167.54638 323.09375,196 C 323.09375,200.43518 323.66093,204.73191 324.71875,208.84375 C 297.97627,210.73952 276.78125,233.09712 276.78125,260.3125 C 276.78124,276.19748 283.98413,290.45053 295.3125,299.9375 C 283.8659,309.41374 276.56249,323.73785 276.5625,339.71875 C 276.56248,367.06051 297.95686,389.5342 324.875,391.25 C 323.85843,395.28456 323.3125,399.49875 323.3125,403.84375 C 323.31248,432.29736 346.45264,455.5 374.90625,455.5 C 384.95359,455.5 394.3404,452.58884 402.28125,447.59375 C 409.90153,466.61443 428.52286,480.09375 450.21875,480.09375 C 471.94937,480.09375 490.55907,466.56888 498.15625,447.5 C 506.12965,452.55484 515.57506,455.5 525.6875,455.5 C 554.14112,455.5 577.31252,432.29736 577.3125,403.84375 C 577.3125,399.49905 576.76643,395.28431 575.75,391.25 C 602.66444,389.53031 624.03127,367.05784 624.03125,339.71875 C 624.03127,323.72939 616.7383,309.41363 605.28125,299.9375 C 616.61103,290.45053 623.84376,276.19862 623.84375,260.3125 C 623.84376,233.08659 602.63213,210.7244 575.875,208.84375 C 576.93285,204.73186 577.5,200.43524 577.5,196 C 577.49997,167.54638 554.35987,144.375 525.90625,144.375 C 515.63276,144.375 506.05259,147.42718 498,152.625 C 490.42047,133.52954 471.75702,120 450,120 z M 450,128 C 469.25423,128 485.57128,140.4138 491.375,157.6875 C 480.89464,167.14214 474.28124,180.81236 474.28125,196 C 474.28125,199.78045 474.69293,203.47843 475.46875,207.03125 C 476.19043,209.74958 476.87609,212.33916 477.875,214.875 C 479.53078,213.96179 481.79981,212.77269 484.53125,209.9375 C 495.01162,200.47318 501.62501,186.78139 501.625,171.59375 C 501.625,167.81595 501.21226,164.14316 500.4375,160.59375 C 507.60232,155.44689 516.39399,152.40625 525.90625,152.40625 C 550.03138,152.40625 569.53125,171.87489 569.53125,196 C 569.53126,200.49967 568.85468,204.8554 567.59375,208.9375 C 548.4967,210.64891 532.33863,222.78951 524.9375,239.625 C 524.13102,240.91343 522.75369,244.93355 522.21875,247.5 C 524.38722,247.82259 528.45382,247.78053 530.5,247.4375 C 549.60034,245.73557 565.74498,233.58952 573.15625,216.75 C 596.84612,217.24819 615.875,236.50158 615.875,260.3125 C 615.87502,274.58054 609.03662,287.22836 598.46875,295.1875 C 590.8158,290.69222 581.93355,288.125 572.4375,288.125 C 562.85158,288.125 553.85761,290.73813 546.15625,295.3125 C 544.33016,296.41906 540.92331,298.77454 539.375,300.125 C 541.14576,301.68505 543.37161,303.3417 546.1875,304.875 C 553.83692,309.36998 562.7292,311.96875 572.21875,311.96875 C 581.80468,311.96875 590.79863,309.32985 598.5,304.75 C 609.17045,312.69017 616.0625,325.36976 616.0625,339.71875 C 616.06248,363.63431 596.89751,383.00883 573.0625,383.34375 C 565.74388,366.5125 549.70427,354.30243 530.6875,352.46875 C 528.86313,352.36249 525.04687,352.29973 522.375,352.34375 C 523.02018,355.69737 524.01477,357.87367 525.0625,360.25 C 532.38509,377.09989 548.43842,389.33008 567.46875,391.15625 C 568.68201,395.16537 569.34375,399.4333 569.34375,403.84375 C 569.34378,427.96886 549.81261,447.46875 525.6875,447.46875 C 516.35202,447.46875 507.71583,444.54279 500.625,439.5625 C 501.41314,435.98301 501.8125,432.24868 501.8125,428.4375 C 501.8125,413.06763 495.07498,399.24633 484.375,389.78125 C 480.99911,386.93621 477.71875,384.8125 477.71875,384.8125 C 477.71875,384.8125 476.36699,388.03911 475.28125,392.75 C 474.49617,396.32176 474.0625,400.04017 474.0625,403.84375 C 474.0625,419.19782 480.81911,433.02593 491.5,442.5 C 485.65799,459.71486 469.42431,472.09375 450.21875,472.09375 C 431.05832,472.09376 414.81471,459.77661 408.9375,442.625 C 419.70508,433.14757 426.53124,419.26947 426.53125,403.84375 C 426.53125,400.00492 426.08055,396.25854 425.28125,392.65625 C 424.45477,389.10606 422.84375,384.71875 422.84375,384.71875 C 422.84375,384.71875 418.78618,387.35043 416.1875,389.6875 C 405.41991,399.15513 398.59374,413.01177 398.59375,428.4375 C 398.59375,432.28354 399.04153,436.04656 399.84375,439.65625 C 392.7769,444.58219 384.18584,447.46875 374.90625,447.46875 C 350.78114,447.46875 331.28123,427.96886 331.28125,403.84375 C 331.28125,399.4333 331.94299,395.16537 333.15625,391.15625 C 352.17455,389.32095 368.21218,377.09178 375.53125,360.25 C 377.37782,355.98818 378.21875,352.34375 378.21875,352.34375 C 378.21875,352.34375 374.54996,351.98539 369.9375,352.46875 C 350.92073,354.30243 334.88112,366.5125 327.5625,383.34375 C 303.72748,383.00883 284.53122,363.63431 284.53125,339.71875 C 284.53125,325.36976 291.45456,312.69017 302.125,304.75 C 309.82637,309.32985 318.78906,311.96875 328.375,311.96875 C 337.87105,311.96875 346.78456,309.37568 354.4375,304.875 C 357.75546,303.23846 361.25,300.125 361.25,300.125 C 361.25,300.125 358.20498,297.53924 354.4375,295.3125 C 346.74013,290.74471 337.76597,288.125 328.1875,288.125 C 318.7011,288.125 309.80397,290.70068 302.15625,295.1875 C 291.58838,287.22836 284.74999,274.58054 284.75,260.3125 C 284.75,236.50158 303.74761,217.24819 327.4375,216.75 C 334.84777,233.58722 350.99683,245.73295 370.09375,247.4375 C 374.19748,247.82416 378.40625,247.5 378.40625,247.5 C 378.40625,247.5 377.14325,242.28028 375.65625,239.625 C 368.25142,222.78433 352.10604,210.64093 333,208.9375 C 331.73907,204.8554 331.06249,200.49967 331.0625,196 C 331.0625,171.87489 350.59364,152.40625 374.71875,152.40625 C 383.99834,152.40625 392.5894,155.29944 399.65625,160.21875 C 398.8271,163.88415 398.375,167.68185 398.375,171.59375 C 398.37499,187.00369 405.18905,200.86702 415.9375,210.34375 C 419.72439,214.02778 422.5625,215.3125 422.5625,215.3125 C 422.5625,215.3125 424.44714,209.90247 425.03125,207.40625 C 425.86277,203.73469 426.3125,199.91765 426.3125,196 C 426.31251,180.58273 419.53859,166.71726 408.78125,157.25 C 414.71202,140.20522 430.90907,128 450,128 z M 406.6875,166.3125 C 413.92239,174.09026 418.34376,184.51678 418.34375,196 C 418.34375,197.78738 418.2394,199.55057 418.03125,201.28125 C 410.79653,193.49488 406.375,183.07681 406.375,171.59375 C 406.375,169.80637 406.47935,168.04281 406.6875,166.3125 z M 493.375,166.90625 C 493.53889,168.44536 493.625,170.0104 493.625,171.59375 C 493.62501,182.78207 489.4385,192.96938 482.53125,200.6875 C 482.36734,199.148 482.25,197.58345 482.25,196 C 482.25,184.81033 486.46627,174.6163 493.375,166.90625 z M 336.75,217.5 C 349.46316,219.95772 360.16622,227.95274 366.34375,238.84375 C 353.63059,236.38179 342.92753,228.39991 336.75,217.5 z M 563.875,217.5 C 557.69777,228.40266 546.96545,236.35037 534.25,238.8125 C 540.43406,227.92236 551.15586,219.94959 563.875,217.5 z M 328.1875,296.125 C 334.67002,296.125 340.81634,297.56895 346.34375,300.09375 C 340.86563,302.56802 334.78323,303.96875 328.375,303.96875 C 321.88238,303.96875 315.75283,302.53608 310.21875,300 C 315.69687,297.52951 321.77927,296.125 328.1875,296.125 z M 572.4375,296.125 C 578.85084,296.125 584.92472,297.52579 590.40625,300 C 584.87217,302.53608 578.71137,303.96875 572.21875,303.96875 C 565.81052,303.96875 559.72813,302.56802 554.25,300.09375 C 559.78408,297.56152 565.94488,296.125 572.4375,296.125 z M 366.21875,361.09375 C 360.10253,371.96912 349.47008,379.9597 336.84375,382.5 C 342.95217,371.6272 353.59467,363.63897 366.21875,361.09375 z M 534.375,361.09375 C 547.0107,363.63206 557.63638,371.62062 563.75,382.5 C 551.12084,379.95858 540.4901,371.97338 534.375,361.09375 z M 418.25,398.75 C 418.44381,400.42093 418.5625,402.11994 418.5625,403.84375 C 418.5625,415.33499 414.11888,425.77436 406.875,433.5625 C 406.67883,431.88131 406.5625,430.1719 406.5625,428.4375 C 406.56249,416.94626 411.00612,406.52948 418.25,398.75 z M 482.34375,398.9375 C 489.48881,406.69761 493.84375,417.03466 493.84375,428.4375 C 493.84375,430.10697 493.74444,431.75464 493.5625,433.375 C 486.41639,425.6061 482.0625,415.24753 482.0625,403.84375 C 482.0625,402.18488 482.16408,400.54759 482.34375,398.9375 z"
     id="path3220"
     style="fill:#be0026;stroke:none" />
</svg>
