<?xml version="1.0" encoding="UTF-8" standalone="no"?>
<!-- Created with Inkscape (http://www.inkscape.org/) -->
<svg
   xmlns:svg="http://www.w3.org/2000/svg"
   xmlns="http://www.w3.org/2000/svg"
   version="1.0"
   width="900"
   height="630"
   id="svg2">
  <defs
     id="defs5" />
  <rect
     width="900"
     height="630"
     x="0"
     y="0"
     id="rect2451"
     style="fill:#ffffff;stroke:none" />
  <path
     d="M 450,126 C 384.5781,126 326.86884,159.28491 292.9375,209.84375 L 382.0625,269.5 L 387.96875,259.25 L 329.40625,206.625 C 359.15103,173.70381 402.17141,153 450,153 C 497.97127,153 541.12102,173.81378 570.875,206.90625 L 512.375,259.21875 L 518.21875,269.3125 L 607.03125,209.8125 C 573.0967,159.27378 515.40643,126 450,126 z M 450,165 C 448.52818,177.63694 443.02201,192.36851 432.09375,202.90625 C 422.63754,213.08814 417.5584,219.93349 411.46875,232.0625 C 404.47302,245.99619 402.31076,254.60525 402.40625,266.5 C 402.4782,275.46392 403.24712,278.47419 406.46875,288.53125 C 406.75987,289.44005 407.28124,290.75002 407.28125,290.75 C 407.28125,290.75 403.17521,291.13494 400.5,291.6875 C 397.20153,292.36879 390.76007,294.66471 386.1875,296.9375 C 368.1828,305.88665 353.20099,327.55289 344.59375,355.125 C 340.56392,368.03398 336.12744,375.77881 328.25,383.65625 C 325,386.78125 320.71876,389.93749 320.71875,389.9375 L 327.15625,387.34375 C 333.19012,385.26492 344.93388,383.85257 350.5,384.53125 C 353.25,384.86657 359.325,385.97671 364,387.03125 C 368.675,388.08578 373.85,389.16459 375.5,389.40625 C 377.15,389.6479 386.225,390.29436 394.75,390.09375 C 418.81593,389.52743 430.44767,383.74322 443.90625,372.1875 C 443.90625,372.1875 448.27643,367.50298 450,364.71875 C 451.06066,366.53071 454.4375,369.75001 454.4375,369.75 C 460.71758,377.64817 471.90608,383.97614 479.875,386.4375 C 494.66427,391.00544 520.4124,391.46323 535.75,387.53125 C 550.01806,383.87347 561.94709,383.57772 572.96875,387.375 C 572.96875,387.375 575.94079,388.28178 579.34375,390.09375 C 575.45466,387.35371 570.53123,381.875 570.53125,381.875 C 563.07168,373.96746 559.38909,367.25283 555.53125,354.5 C 551.77888,342.09578 547.27308,332.69585 539.96875,322.03125 C 528.77655,305.6902 517.66275,296.26684 501.8125,292.28125 C 498.016,291.32661 492.53124,290.59375 492.53125,290.59375 C 492.53125,290.59375 493.56423,288.50615 494.375,286.375 C 500.07326,271.39686 499.33673,255.81401 491.25,237.375 C 485.94387,225.27619 479.68486,215.54763 470.4375,205.40625 C 466.44645,201.02934 461.5381,195.7668 460,193.53125 C 454.57705,184.70762 451.40966,177.3593 450,165 z M 450,199.59375 C 450,199.59375 451.04774,201.07377 452.15625,202.5 C 453.43227,204.14173 456.97473,208.19546 460.03125,211.5 C 470.77441,223.11499 479.63592,239.21271 483.5625,254.21875 C 486.91538,267.03221 484.01813,284.21899 476.5,296.125 C 476.5,296.125 474.31251,299.6875 471.4375,302.8125 C 471.4375,302.8125 479.06252,302 483.8125,302.125 C 497.63048,302.91675 505.38022,305.61528 516.28125,313.9375 C 526.69086,321.88454 539.97992,342.26252 544.96875,358.5 C 546.15164,362.35 547.76882,366.97508 548.5625,368.78125 C 549.50422,370.92425 550.74997,373.03124 550.75,373.03125 C 550.75,373.03125 548.40623,373.1574 546.25,373.5 C 544.1875,373.82772 539.8,374.87896 536.5,375.8125 C 531.81518,377.13779 523.3513,378.18749 512,378.1875 C 498.24969,378.1875 493.11372,377.28508 485.6875,374.6875 C 471.50126,369.72536 460.31407,360.50197 453.90625,348.4375 C 452.02933,344.90369 450,339.96874 450,339.96875 C 450,339.96875 448.43851,344.1375 447.1875,346.75 C 439.5953,362.60497 423.7591,373.88387 404.75,376.96875 C 391.85905,379.29976 377.46412,378.16785 372,377.34375 C 370.625,377.13637 366.8,376.31639 363.5,375.53125 C 360.2,374.74611 355.82469,373.86017 353.78125,373.53125 C 353.78125,373.53125 351.375,373.1875 349.625,373.375 L 351.46875,369.71875 C 352.23705,367.9526 354.08323,362.675 355.5625,358 C 358.85307,347.6006 362.63206,339.9448 369.21875,330.375 C 382.3034,311.3643 398.5012,302 418.34375,302 C 423.09696,302 428.4375,302.65625 428.4375,302.65625 C 428.4375,302.65625 426.36636,299.96206 425.59375,299.09375 C 420.428,293.28818 415.06856,276.87665 415.03125,266.8125 C 414.96958,250.17218 425.97919,226.54203 441.53125,209.96875 C 444.89687,206.38212 447.98928,202.64261 448.75,201.5 C 449.34589,200.60496 449.99999,199.59376 450,199.59375 z M 280.0625,232.25 C 267.85838,257.24775 261,285.32576 261,315 C 261,415.08335 338.92925,497.0562 437.375,503.5625 L 444.5,397 L 433.15625,397 L 417.21875,474.6875 C 343.20737,459.51516 287.5,393.97686 287.5,315.5 C 287.5,298.07811 290.26085,281.29979 295.34375,265.5625 L 370.46875,289.5625 L 376.46875,279.1875 L 280.0625,232.25 z M 619.96875,232.34375 L 523.84375,279.09375 L 529.875,289.5 L 604.6875,265.625 C 609.75676,281.3432 612.5,298.10248 612.5,315.5 C 612.50001,393.47549 557.49233,458.66163 484.1875,474.375 L 467.59375,397 L 455.59375,397 L 462.84375,503.53125 C 561.1857,496.91756 639.00001,415.00888 639,315 C 639,285.36047 632.14608,257.31947 619.96875,232.34375 z M 447.5,260 L 447.5,313.8125 L 401,340.65625 L 403.5,345 L 450,318.15625 L 496.46875,345 L 498.96875,340.65625 L 452.5,313.84375 L 452.5,260 L 447.5,260 z"
     id="path2448"
     style="fill:#009f62;stroke:none" />
</svg>
