<svg xmlns="http://www.w3.org/2000/svg" height="400" width="600" version="1.1">
 <rect height="400" width="600" y="0" x="0" fill="#230042"/>
 <path d="m427 124-24-31c-7.76 3.01-16.9 7.49-26.6 13.1-20.5-16.6-46.6-26.6-75-26.6-29.4 0-56.2 10.6-77 28.2-10.1-6.46-18.9-11.4-24.8-13.9-13.4 11.6-26.1 35.1-26.1 35.1 6.34 2 14.8 5.78 24.2 10.9-9.94 17.4-15.7 37.5-15.7 59 0 41.2 20.9 77.5 52.6 98.9l1.93-1.36c9.29-6.53 18.8-15.3 27.5-24.2-26.7-13.6-45-41.3-45-73.3 0-14.3 3.65-27.7 10.1-39.4 17.2 12.2 34.4 27 47 42.7 5.14-11.7 12.3-23.1 20.7-33.7l0.07-0.12c-9.26-11.8-24.7-25.6-40.8-38.1 13-8.6 28.6-13.6 45.3-13.6 15.4 0 29.8 4.33 42.2 11.7-26.5 20.6-52.2 47.5-64.6 77.1l22.4 30.9c9.66-17.4 29.2-52.2 69.3-81.8 8.2 12.8 13 28 13 44.3 0 30.4-16.5 57-41.1 71.2-1.78 1.03-3.6 1.98-5.46 2.88-18.5-14.6-35.8-35.7-35.8-35.7s-13.8 18.8-31.8 37.5c-9.22 9.62-19.5 19.3-29.7 26.4l-0.01 0 0.05 0c12.5 7.52 26.5 12.8 41.4 15.3l0.1 0.04 0.03-0.02c0.286-0.18 15.4-10.2 22.3-19.9 7.38 6.36 23.5 17.8 24.5 18.5l0.04 0.03 0.06-0.05c3.35-0.785 6.65-1.69 9.9-2.75 47.8-15.5 82.4-60.4 82.4-113 0-23.5-6.88-45.3-18.6-63.8 7.8-4.02 16.1-7.81 25-11.2" fill="#ffffff"/>
 </svg>
