<svg xmlns="http://www.w3.org/2000/svg" width="332" height="216" xmlns:v="https://vecta.io/nano"><path d="M0 0h332v216H0z" fill="#fff"/><g fill="#156dff" transform="matrix(.434576 0 0 .434576 94.647346 39.842118)"><path d="M172 7.754v.455A105 105 0 0 1 262 112a105 105 0 0 1-75.016 100.543l-12.27-55.547-10.689 149.652A150 150 0 0 0 307 157 150 150 0 0 0 172 7.754zm-30 .154A150 150 0 0 0 7 157a150 150 0 0 0 142.982 149.752l-10.697-149.754-12.275 55.578A105 105 0 0 1 52 112 105 105 0 0 1 142 8.182z"/><circle cx="142" cy="79.5" r="10"/><circle cx="172" cy="79.5" r="10"/><path d="M157 307l14.996-210a19.57 19.57 0 0 1-29.969 0z" fill-rule="evenodd"/></g></svg>