<?xml version="1.0" encoding="UTF-8" standalone="no"?>
<!-- Created with Inkscape (http://www.inkscape.org/) -->

<svg
   xmlns:dc="http://purl.org/dc/elements/1.1/"
   xmlns:cc="http://creativecommons.org/ns#"
   xmlns:rdf="http://www.w3.org/1999/02/22-rdf-syntax-ns#"
   xmlns:svg="http://www.w3.org/2000/svg"
   xmlns="http://www.w3.org/2000/svg"
   xmlns:sodipodi="http://sodipodi.sourceforge.net/DTD/sodipodi-0.dtd"
   xmlns:inkscape="http://www.inkscape.org/namespaces/inkscape"
   version="1.1"
   id="svg4485"
   width="324"
   height="216"
   viewBox="0 0 324 216"
   sodipodi:docname="Flag_of_Satte_Saitama.svg"
   inkscape:version="0.92.1 r15371">
  <metadata
     id="metadata4491">
    <rdf:RDF>
      <cc:Work
         rdf:about="">
        <dc:format>image/svg+xml</dc:format>
        <dc:type
           rdf:resource="http://purl.org/dc/dcmitype/StillImage" />
        <dc:title></dc:title>
      </cc:Work>
    </rdf:RDF>
  </metadata>
  <defs
     id="defs4489" />
  <sodipodi:namedview
     pagecolor="#ffffff"
     bordercolor="#666666"
     borderopacity="1"
     objecttolerance="10"
     gridtolerance="10"
     guidetolerance="10"
     inkscape:pageopacity="0"
     inkscape:pageshadow="2"
     inkscape:window-width="1920"
     inkscape:window-height="1017"
     id="namedview4487"
     showgrid="false"
     inkscape:zoom="2.8284271"
     inkscape:cx="83.96219"
     inkscape:cy="153.2962"
     inkscape:window-x="-8"
     inkscape:window-y="-8"
     inkscape:window-maximized="1"
     inkscape:current-layer="svg4485" />
  <path
     style="opacity:1;fill:#ffffff;fill-opacity:1;stroke:none;stroke-width:52.55118179;stroke-linecap:round;stroke-linejoin:round;stroke-miterlimit:4;stroke-dasharray:none;stroke-dashoffset:0;stroke-opacity:1"
     d="M 0,4.7385693e-6 H 323.99997 V 216 H 0 Z"
     id="rect4514" />
  <g
     id="g4512"
     transform="matrix(0.64089705,0,0,0.64089705,88.795515,37.739008)"
     style="display:inline;opacity:1;fill:#ffffff;fill-opacity:1;stroke:#fa0203;stroke-opacity:1">
    <path
       sodipodi:nodetypes="ccccccccccccccccccccc"
       inkscape:connector-curvature="0"
       id="path4497"
       d="m 187.83952,190.26327 c 13.94644,-26.74618 3.6345,-50.20646 3.6345,-50.20646 0,0 22.05459,-12.67986 26.56982,-42.756642 L 202.6512,86.328486 208.65162,68.413213 c -21.33159,-21.678643 -46.9468,-19.086566 -46.9468,-19.086566 0,0 -5.24258,-24.894436 -32.45202,-38.482915 L 114.05995,22.094459 98.868026,10.844172 c -27.20943,13.588464 -32.45236,38.48087 -32.45236,38.48087 0,0 -25.29429,-2.705817 -46.62587,18.972831 l 6.00513,17.924868 -15.39493,10.972613 c 4.51523,30.076786 26.57123,42.755556 26.57123,42.755556 0,0 -10.39122,23.2205 3.63458,50.20711 0,0 12.88324,0.22377 18.90315,0.16941 l 5.6781,18.0297 c 29.99999,5 48.874524,-12.05688 48.874524,-12.05688 0,0 18.87227,17.05805 48.87228,12.05805 l 5.92773,-18.02881 z"
       style="display:inline;opacity:1;fill:#ffffff;fill-opacity:1;stroke:#fa0203;stroke-width:10;stroke-linecap:round;stroke-linejoin:miter;stroke-miterlimit:4;stroke-dasharray:none;stroke-dashoffset:0;stroke-opacity:1" />
    <g
       style="fill:#ffffff;fill-opacity:1;stroke:#fa0203;stroke-opacity:1"
       transform="translate(-443.90326,40.640911)"
       id="g4670">
      <path
         style="color:#000000;font-style:normal;font-variant:normal;font-weight:normal;font-stretch:normal;font-size:medium;line-height:normal;font-family:sans-serif;font-variant-ligatures:normal;font-variant-position:normal;font-variant-caps:normal;font-variant-numeric:normal;font-variant-alternates:normal;font-feature-settings:normal;text-indent:0;text-align:start;text-decoration:none;text-decoration-line:none;text-decoration-style:solid;text-decoration-color:#000000;letter-spacing:normal;word-spacing:normal;text-transform:none;writing-mode:lr-tb;direction:ltr;text-orientation:mixed;dominant-baseline:auto;baseline-shift:baseline;text-anchor:start;white-space:normal;shape-padding:0;clip-rule:nonzero;display:inline;overflow:visible;visibility:visible;opacity:1;isolation:auto;mix-blend-mode:normal;color-interpolation:sRGB;color-interpolation-filters:linearRGB;solid-color:#000000;solid-opacity:1;vector-effect:none;fill:#fa0204;fill-opacity:1;fill-rule:nonzero;stroke:none;stroke-width:10;stroke-linecap:round;stroke-linejoin:miter;stroke-miterlimit:4;stroke-dasharray:none;stroke-dashoffset:0;stroke-opacity:1;color-rendering:auto;image-rendering:auto;shape-rendering:auto;text-rendering:auto;enable-background:accumulate"
         d="m 558.12305,3.9980472 c -7.25226,0 -14.25095,1.106142 -20.83594,3.158203 -4.39142,1.368485 -8.59796,3.1576508 -12.57422,5.3203118 -0.99443,0.540865 -1.97469,1.104575 -2.93945,1.691407 -1.76572,1.074026 -3.47351,2.234103 -5.13282,3.455078 -0.15226,0.112036 -0.31156,0.214894 -0.46289,0.328125 -7.2e-4,5.44e-4 -10e-4,0.0014 -0.002,0.002 -0.19165,0.143419 -0.37432,0.298036 -0.56445,0.443359 -1.47662,1.12866 -2.90967,2.310994 -4.29102,3.550782 -0.11163,0.100193 -0.22885,0.194026 -0.33984,0.294922 -6.8e-4,6.17e-4 -10e-4,0.0013 -0.002,0.002 -1.66119,1.510204 -3.24957,3.098572 -4.75977,4.759765 -6.1e-4,6.82e-4 -0.001,0.0013 -0.002,0.002 -0.75476,0.830288 -1.49025,1.679134 -2.20507,2.544922 -5.9e-4,7.09e-4 -10e-4,0.0012 -0.002,0.002 -1.13313,1.372589 -2.1986,2.800803 -3.22657,4.257813 -0.26971,0.382248 -0.55223,0.754775 -0.81445,1.142578 -3e-4,4.4e-4 3e-4,0.0015 0,0.002 -0.63064,0.932737 -1.23992,1.879925 -1.82617,2.84375 -2.9e-4,4.69e-4 2.8e-4,0.0015 0,0.002 -1.17273,1.928137 -2.25601,3.917263 -3.24219,5.960938 -2.5e-4,5.22e-4 2.5e-4,0.0014 0,0.002 -0.49293,1.021573 -0.96215,2.057244 -1.40625,3.105469 -2.3e-4,5.47e-4 2.3e-4,0.0014 0,0.002 -0.44407,1.048229 -0.86405,2.108239 -1.25781,3.18164 -2.1e-4,5.7e-4 2.1e-4,0.0014 0,0.002 -0.39373,1.073406 -0.76352,2.158759 -1.10547,3.255859 -1.8e-4,5.9e-4 1.8e-4,0.0014 0,0.002 -0.68402,2.19481 -1.26258,4.436038 -1.73047,6.716797 -1.3e-4,6.23e-4 1.3e-4,0.0013 0,0.002 -0.23385,1.140075 -0.43956,2.289886 -0.61719,3.449219 -9e-5,6.36e-4 1e-4,0.0013 0,0.002 -0.17759,1.159345 -0.32736,2.328735 -0.44726,3.505855 -7e-5,6.5e-4 6e-5,0.001 0,0.002 -0.11987,1.17714 -0.2108,2.36126 -0.27149,3.55469 -3e-5,6.5e-4 4e-5,0.001 0,0.002 -0.0606,1.19344 -0.0918,2.39524 -0.0918,3.60351 0,1.20893 0.0311,2.41138 0.0918,3.60547 4e-5,6.5e-4 -3e-5,10e-4 0,0.002 0.0607,1.19343 0.15159,2.37756 0.27149,3.55469 6e-5,6.4e-4 -7e-5,0.001 0,0.002 0.11993,1.17712 0.26964,2.34652 0.44726,3.50586 1e-4,6.4e-4 -9e-5,10e-4 0,0.002 0.17766,1.15933 0.38331,2.30914 0.61719,3.44921 1.3e-4,6.3e-4 -1.3e-4,10e-4 0,0.002 0.46795,2.28076 1.0464,4.52198 1.73047,6.71679 1.9e-4,6e-4 -1.9e-4,10e-4 0,0.002 0.34197,1.0971 0.71171,2.18244 1.10547,3.25586 2.1e-4,5.7e-4 -2.1e-4,0.001 0,0.002 0.39379,1.07341 0.81372,2.1334 1.25781,3.18164 2.4e-4,5.6e-4 -2.3e-4,0.001 0,0.002 0.44413,1.04824 0.9133,2.08389 1.40625,3.10547 2.6e-4,5.4e-4 -2.6e-4,0.001 0,0.002 0.98622,2.04368 2.06943,4.03278 3.24219,5.96093 2.9e-4,4.8e-4 -2.9e-4,0.001 0,0.002 0.58627,0.96383 1.19551,1.911 1.82617,2.84375 3.1e-4,4.5e-4 -3.1e-4,0.002 0,0.002 3.78549,5.59905 8.35784,10.62373 13.55664,14.91601 3.8e-4,3.2e-4 0.002,-3.1e-4 0.002,0 2.59905,2.14577 5.35373,4.1099 8.2461,5.86915 4.6e-4,2.8e-4 0.002,-2.9e-4 0.002,0 0.9638,0.58618 1.94213,1.15109 2.93554,1.6914 5e-4,2.7e-4 0.002,-2.7e-4 0.002,0 3.97626,2.16256 8.1828,3.9519 12.57422,5.32031 1.09651,0.34169 2.20552,0.65684 3.32422,0.94532 6.1e-4,1.5e-4 0.001,-1.6e-4 0.002,0 1.11931,0.2886 2.24862,0.55129 3.38867,0.78515 0.001,2.6e-4 0.003,-2.5e-4 0.004,0 1.13945,0.23368 2.28858,0.43967 3.44726,0.61719 10e-4,2e-4 0.003,-1.9e-4 0.004,0 1.15871,0.17746 2.32744,0.32744 3.50391,0.44727 10e-4,1.3e-4 0.003,-1.4e-4 0.004,0 1.1765,0.11976 2.35996,0.21083 3.55274,0.27148 1.19538,0.0609 2.39913,0.0918 3.60937,0.0918 7.25217,-4e-4 14.25088,-1.10591 20.83594,-3.15821 4.39142,-1.36848 8.59796,-3.15765 12.57422,-5.32031 0.99444,-0.54085 1.97468,-1.10459 2.93945,-1.6914 1.76572,-1.07403 3.47351,-2.23411 5.13282,-3.45508 0.15227,-0.11205 0.31155,-0.21488 0.46289,-0.32813 7.3e-4,-5.5e-4 10e-4,-10e-4 0.002,-0.002 0.19171,-0.14347 0.37426,-0.29798 0.56445,-0.44336 1.4767,-1.12868 2.90959,-2.31097 4.29102,-3.55078 0.11159,-0.10016 0.2289,-0.19407 0.33984,-0.29492 6.8e-4,-6.2e-4 10e-4,-0.001 0.002,-0.002 0.83023,-0.75479 1.6423,-1.52901 2.43555,-2.32226 6.5e-4,-6.5e-4 10e-4,-0.001 0.002,-0.002 0.79322,-0.79328 1.56751,-1.6053 2.32227,-2.43555 6.2e-4,-6.8e-4 10e-4,-0.001 0.002,-0.002 0.75473,-0.83029 1.49028,-1.67914 2.20508,-2.54493 5.8e-4,-7e-4 0.001,-0.001 0.002,-0.002 1.13313,-1.37259 2.1986,-2.8008 3.22657,-4.25781 0.26965,-0.3822 0.55229,-0.75482 0.81445,-1.14258 3.1e-4,-4.5e-4 -3.1e-4,-0.002 0,-0.002 0.63061,-0.93275 1.23996,-1.87992 1.82617,-2.84375 2.9e-4,-4.9e-4 -2.9e-4,-0.001 0,-0.002 1.17265,-1.92815 2.25607,-3.91725 3.24219,-5.96093 2.6e-4,-5.4e-4 -2.6e-4,-0.001 0,-0.002 0.4929,-1.02158 0.96217,-2.05723 1.40625,-3.10547 2.4e-4,-5.5e-4 -2.4e-4,-0.001 0,-0.002 0.44405,-1.04824 0.86407,-2.10823 1.25781,-3.18164 2.1e-4,-5.8e-4 -2.1e-4,-0.001 0,-0.002 0.39372,-1.07342 0.76353,-2.15876 1.10547,-3.25586 1.9e-4,-6e-4 -1.9e-4,-10e-4 0,-0.002 0.684,-2.19481 1.26258,-4.43603 1.73047,-6.71679 1.3e-4,-6.3e-4 -1.3e-4,-10e-4 0,-0.002 0.23385,-1.14007 0.43955,-2.28988 0.61719,-3.44921 9e-5,-6.4e-4 -10e-5,-10e-4 0,-0.002 0.1776,-1.15934 0.32735,-2.32874 0.44726,-3.50586 7e-5,-6.4e-4 -6e-5,-0.001 0,-0.002 0.11989,-1.17713 0.21077,-2.36126 0.27149,-3.55469 3e-5,-6.4e-4 -4e-5,-10e-4 0,-0.002 0.0607,-1.19345 0.0918,-2.39525 0.0918,-3.60352 0,-1.20958 -0.031,-2.41268 -0.0918,-3.60742 -0.0607,-1.19343 -0.15164,-2.37755 -0.27149,-3.55469 -6e-5,-6.4e-4 7e-5,-0.001 0,-0.002 -0.11988,-1.17712 -0.26969,-2.34651 -0.44726,-3.505855 -10e-5,-6.36e-4 9e-5,-0.0013 0,-0.002 -0.17761,-1.159333 -0.38337,-2.309144 -0.61719,-3.449219 -1.3e-4,-6.23e-4 1.3e-4,-0.0013 0,-0.002 -0.46783,-2.280759 -1.04653,-4.521987 -1.73047,-6.716797 -1.8e-4,-5.9e-4 1.8e-4,-0.0014 0,-0.002 -0.34191,-1.0971 -0.71178,-2.182453 -1.10547,-3.255859 -2.1e-4,-5.7e-4 2.1e-4,-0.0014 0,-0.002 -0.39372,-1.073401 -0.81379,-2.133411 -1.25781,-3.18164 -2.3e-4,-5.47e-4 2.3e-4,-0.0014 0,-0.002 -0.44405,-1.048225 -0.91337,-2.083896 -1.40625,-3.105469 -2.5e-4,-5.23e-4 2.5e-4,-0.0014 0,-0.002 -0.98608,-2.043675 -2.06957,-4.032801 -3.24219,-5.960938 -2.8e-4,-4.69e-4 2.9e-4,-0.0015 0,-0.002 -0.58619,-0.963825 -1.19558,-1.911013 -1.82617,-2.84375 -3e-4,-4.39e-4 3e-4,-0.0015 0,-0.002 -3.78548,-5.599048 -8.35784,-10.623732 -13.55664,-14.916016 -3.9e-4,-3.25e-4 -0.002,3.26e-4 -0.002,0 -2.59906,-2.14576 -5.35374,-4.109895 -8.2461,-5.86914 -4.8e-4,-2.93e-4 -10e-4,2.93e-4 -0.002,0 -0.96384,-0.586239 -1.9421,-1.151042 -2.93555,-1.691407 -5.1e-4,-2.76e-4 -10e-4,2.77e-4 -0.002,0 -3.97639,-2.162544 -8.18293,-3.9518888 -12.57435,-5.3202998 -1.09711,-0.341943 -2.20489,-0.656632 -3.32422,-0.945312 -6.1e-4,-1.58e-4 -10e-4,1.57e-4 -0.002,0 -1.11872,-0.288493 -2.24924,-0.551345 -3.38867,-0.785157 -10e-4,-2.56e-4 -0.003,2.57e-4 -0.004,0 -1.13945,-0.23375 -2.28858,-0.439594 -3.44726,-0.617187 -0.001,-1.95e-4 -0.003,1.94e-4 -0.004,0 -1.15871,-0.177531 -2.32744,-0.327369 -3.50391,-0.447266 -10e-4,-1.31e-4 -0.003,1.31e-4 -0.004,0 -1.17649,-0.119833 -2.35997,-0.210763 -3.55274,-0.271484 -10e-4,-6.6e-5 -0.003,6.5e-5 -0.004,0 -1.1941,-0.06072 -2.39655,-0.0918 -3.60547,-0.0918 z m -4.9961,10.2226558 V 31 H 533.125 a 5.0005,5.0005 0 1 0 0,10 h 20.00195 v 8.652344 h -49.95703 c 8.3e-4,-0.0019 0.001,-0.004 0.002,-0.0059 0.81685,-1.833942 1.72366,-3.618799 2.71289,-5.349609 0.98953,-1.731318 2.06175,-3.408135 3.21289,-5.025391 0.002,-0.0023 0.002,-0.0055 0.004,-0.0078 1.15137,-1.617088 2.3815,-3.173878 3.6836,-4.666016 4.34344,-4.977388 9.49576,-9.22987 15.2539,-12.554687 1.72745,-0.997446 3.5087,-1.911219 5.33985,-2.736328 6.10382,-2.750364 12.75441,-4.512696 19.74804,-5.085938 z m 10,0 c 6.5e-4,5.3e-5 0.001,-5.3e-5 0.002,0 4.89156,0.400945 9.61374,1.38516 14.09961,2.880859 0.003,10e-4 0.007,9.11e-4 0.01,0.002 0.004,0.0015 0.009,0.0024 0.0137,0.0039 1.87856,0.627198 3.71571,1.346409 5.50586,2.148437 0.0795,0.03564 0.15896,0.07145 0.23828,0.107422 1.7339,0.785948 3.42178,1.65287 5.0625,2.59375 0.0918,0.05267 0.18389,0.105061 0.27539,0.158203 1.61447,0.937226 3.18117,1.948594 4.69532,3.027344 0.10108,0.07204 0.20212,0.144149 0.30273,0.216797 0.48579,0.350657 0.96672,0.705627 1.44141,1.070313 0.0732,0.05622 0.1439,0.115323 0.21679,0.171874 0.94311,0.73146 1.86472,1.490116 2.76172,2.275391 0.0424,0.03713 0.0866,0.07213 0.12891,0.109375 0.0131,0.01158 0.0259,0.02357 0.0391,0.03516 0.45318,0.399686 0.89901,0.805736 1.33985,1.21875 0.10015,0.09385 0.19932,0.18868 0.29882,0.283204 0.88617,0.841669 1.74859,1.709482 2.58203,2.603515 0.40254,0.431796 0.79771,0.870885 1.1875,1.314453 0.12278,0.139733 0.24374,0.280995 0.36524,0.421875 1.1516,1.335215 2.24523,2.722031 3.27734,4.15625 0.13113,0.182214 0.26151,0.365088 0.39063,0.548828 1.00259,1.426638 1.94236,2.899451 2.82031,4.414063 0.10804,0.186392 0.21618,0.372887 0.32227,0.560547 0.27601,0.488237 0.54985,0.977945 0.8125,1.474609 0.005,0.0098 0.0105,0.0195 0.0156,0.0293 0.0409,0.07745 0.0786,0.156726 0.11914,0.234375 0.50673,0.969772 0.98491,1.956829 1.43945,2.957031 0.0627,0.137888 0.12586,0.275617 0.1875,0.414063 h -49.9515 V 41 H 583.125 a 5.0005,5.0005 0 1 0 0,-10 h -19.99805 z m -63.39062,45.431641 h 116.77539 c 0.15326,0.621647 0.29977,1.245838 0.43359,1.875 0.0832,0.39039 0.15863,0.784594 0.23438,1.177734 0.10788,0.562278 0.20861,1.127529 0.30078,1.695312 0.0558,0.34162 0.11009,0.68381 0.16015,1.02734 0.10446,0.72211 0.19672,1.44747 0.2754,2.17774 0.0227,0.20826 0.0459,0.4161 0.0664,0.625 0.0841,0.86482 0.15197,1.73408 0.19922,2.60937 0.009,0.16893 0.0156,0.33851 0.0234,0.50782 0.0425,0.92979 0.0703,1.8642 0.0703,2.80468 0,0.0667 -0.004,0.13263 -0.004,0.19922 -0.003,0.81083 -0.0263,1.61706 -0.0605,2.41992 -0.0119,0.27501 -0.0215,0.55021 -0.0371,0.82422 -0.0443,0.78835 -0.10548,1.57172 -0.17969,2.35157 -0.0307,0.31878 -0.0659,0.63583 -0.10156,0.95312 -0.0615,0.55288 -0.13272,1.10219 -0.20899,1.65039 -0.0855,0.60979 -0.17971,1.21655 -0.2832,1.82031 -0.0597,0.35043 -0.12176,0.70053 -0.1875,1.04883 -0.0938,0.49473 -0.18928,0.99009 -0.29492,1.48047 -0.12611,0.58673 -0.26127,1.16982 -0.4043,1.75 h -116.7753 c -0.15326,-0.62165 -0.29977,-1.24584 -0.43359,-1.875 -0.0833,-0.39039 -0.15864,-0.78459 -0.23438,-1.17773 -0.10788,-0.56228 -0.20861,-1.12753 -0.30078,-1.69532 -0.0558,-0.34162 -0.11009,-0.6838 -0.16016,-1.02734 -0.10445,-0.72211 -0.19671,-1.44747 -0.27539,-2.17773 -0.0227,-0.20826 -0.0459,-0.4161 -0.0664,-0.625 -0.0841,-0.86482 -0.15196,-1.73409 -0.19922,-2.60938 -0.009,-0.16893 -0.0156,-0.3385 -0.0234,-0.50781 -0.0425,-0.92979 -0.0703,-1.8642 -0.0703,-2.80469 0,-0.0666 0.004,-0.13262 0.004,-0.19922 0.003,-0.81083 0.0263,-1.61706 0.0605,-2.41992 0.0119,-0.27501 0.0215,-0.55021 0.0371,-0.82422 0.0443,-0.78835 0.10548,-1.57172 0.17969,-2.35156 0.0307,-0.31878 0.0659,-0.63584 0.10156,-0.95313 0.0615,-0.55288 0.13272,-1.10219 0.20899,-1.65039 0.0855,-0.60978 0.17971,-1.21655 0.2832,-1.820309 0.0597,-0.350422 0.12176,-0.700523 0.1875,-1.048829 0.0938,-0.494729 0.18928,-0.990082 0.29492,-1.480468 0.12642,-0.586821 0.26122,-1.169617 0.4043,-1.75 z m 3.43554,38.998046 h 49.95118 v 8.65234 H 533.125 a 5.0005,5.0005 0 1 0 0,10 h 19.99805 v 16.7793 c -6.5e-4,-5e-5 -0.001,5e-5 -0.002,0 -4.89156,-0.40094 -9.61374,-1.38516 -14.09961,-2.88086 -0.008,-0.003 -0.0158,-0.003 -0.0234,-0.006 -1.87855,-0.6272 -3.71571,-1.34641 -5.50586,-2.14843 -0.0795,-0.0356 -0.15896,-0.0714 -0.23828,-0.10743 -1.73389,-0.78594 -3.42178,-1.65287 -5.0625,-2.59375 -0.0918,-0.0527 -0.18388,-0.10506 -0.27539,-0.1582 -1.61447,-0.93723 -3.18117,-1.94859 -4.69531,-3.02734 -0.10108,-0.072 -0.20213,-0.14415 -0.30274,-0.2168 -0.48579,-0.35066 -0.96671,-0.70563 -1.4414,-1.07031 -0.0732,-0.0562 -0.14391,-0.11533 -0.2168,-0.17188 -0.9431,-0.73146 -1.86471,-1.49011 -2.76172,-2.27539 -0.0556,-0.0487 -0.11255,-0.0957 -0.16797,-0.14453 -0.45317,-0.39969 -0.899,-0.80574 -1.33984,-1.21875 -0.10015,-0.0939 -0.19932,-0.18868 -0.29883,-0.2832 -0.88616,-0.84167 -1.74858,-1.70949 -2.58203,-2.60352 -0.40253,-0.43179 -0.79771,-0.87088 -1.1875,-1.31445 -0.12278,-0.13973 -0.24374,-0.281 -0.36523,-0.42188 -1.15161,-1.33521 -2.24524,-2.72203 -3.27735,-4.15625 -0.13112,-0.18221 -0.2615,-0.36508 -0.39062,-0.54882 -1.00259,-1.42664 -1.94236,-2.89946 -2.82032,-4.41407 -0.10804,-0.18639 -0.21617,-0.37288 -0.32226,-0.56054 -0.27602,-0.48824 -0.54985,-0.97795 -0.8125,-1.47461 -0.0461,-0.0872 -0.0891,-0.17621 -0.13477,-0.26368 -0.50672,-0.96977 -0.9849,-1.95682 -1.43945,-2.95703 -0.0627,-0.13788 -0.12585,-0.27561 -0.1875,-0.41406 z m 59.95118,0 h 49.95703 c -8.4e-4,0.002 -10e-4,0.004 -0.002,0.006 -0.81684,1.83394 -1.72365,3.6188 -2.71289,5.34961 -0.98952,1.73132 -2.06175,3.40813 -3.21289,5.02539 -8.3e-4,0.001 -10e-4,0.003 -0.002,0.004 -8.3e-4,10e-4 -10e-4,0.003 -0.002,0.004 -1.15137,1.61709 -2.38151,3.17388 -3.6836,4.66602 -4.34344,4.97739 -9.49576,9.22987 -15.2539,12.55469 -1.72745,0.99744 -3.5087,1.91121 -5.33985,2.73632 -6.10382,2.75037 -12.75441,4.5127 -19.74804,5.08594 v -16.7793 h 20.00195 a 5.0005,5.0005 0 1 0 0,-10 h -20.00191 z"
         id="path4648"
         inkscape:connector-curvature="0" />
      <g
         id="g4664"
         transform="translate(447.71591,-35.63652)"
         style="display:inline;fill:#ffffff;fill-opacity:1;stroke:#fa0203;stroke-opacity:1">
        <circle
           r="10"
           cy="109.78844"
           cx="84.776543"
           id="path4658"
           style="opacity:1;fill:#f50505;fill-opacity:1;stroke:none;stroke-width:27.93508148;stroke-linecap:round;stroke-linejoin:miter;stroke-miterlimit:4;stroke-dasharray:none;stroke-dashoffset:0;stroke-opacity:1" />
        <circle
           style="display:inline;opacity:1;fill:#f50505;fill-opacity:1;stroke:none;stroke-width:27.93508148;stroke-linecap:round;stroke-linejoin:miter;stroke-miterlimit:4;stroke-dasharray:none;stroke-dashoffset:0;stroke-opacity:1"
           id="circle4660"
           cx="136.04178"
           cy="109.78844"
           r="10" />
      </g>
    </g>
  </g>
</svg>
