<?xml version="1.0" encoding="UTF-8" standalone="no"?>
<!-- Created with Inkscape (http://www.inkscape.org/) -->

<svg
   xmlns:dc="http://purl.org/dc/elements/1.1/"
   xmlns:cc="http://creativecommons.org/ns#"
   xmlns:rdf="http://www.w3.org/1999/02/22-rdf-syntax-ns#"
   xmlns:svg="http://www.w3.org/2000/svg"
   xmlns="http://www.w3.org/2000/svg"
   xmlns:sodipodi="http://sodipodi.sourceforge.net/DTD/sodipodi-0.dtd"
   xmlns:inkscape="http://www.inkscape.org/namespaces/inkscape"
   width="324.00015"
   height="216"
   viewBox="0 0 85.725044 57.150002"
   version="1.1"
   id="svg8"
   inkscape:version="0.92.1 r15371"
   sodipodi:docname="Flag of Miyashiro saitama.svg">
  <defs
     id="defs2" />
  <sodipodi:namedview
     id="base"
     pagecolor="#ffffff"
     bordercolor="#666666"
     borderopacity="1.0"
     inkscape:pageopacity="0.0"
     inkscape:pageshadow="2"
     inkscape:zoom="0.98994948"
     inkscape:cx="414.619"
     inkscape:cy="216.80848"
     inkscape:document-units="mm"
     inkscape:current-layer="layer1"
     showgrid="false"
     inkscape:window-width="1920"
     inkscape:window-height="1017"
     inkscape:window-x="-8"
     inkscape:window-y="-8"
     inkscape:window-maximized="1"
     fit-margin-top="0"
     fit-margin-left="0"
     fit-margin-right="0"
     fit-margin-bottom="0"
     units="px" />
  <metadata
     id="metadata5">
    <rdf:RDF>
      <cc:Work
         rdf:about="">
        <dc:format>image/svg+xml</dc:format>
        <dc:type
           rdf:resource="http://purl.org/dc/dcmitype/StillImage" />
        <dc:title></dc:title>
      </cc:Work>
    </rdf:RDF>
  </metadata>
  <g
     inkscape:label="レイヤー 1"
     inkscape:groupmode="layer"
     id="layer1"
     style="opacity:1"
     transform="translate(-36.777946,-278.65015)">
    <rect
       style="opacity:1;fill:#571d84;fill-opacity:1;stroke:none;stroke-width:0.75926989;stroke-linecap:butt;stroke-linejoin:miter;stroke-miterlimit:4;stroke-dasharray:none;stroke-dashoffset:0;stroke-opacity:1;paint-order:markers fill stroke"
       id="rect4501"
       width="85.725044"
       height="57.150002"
       x="36.777946"
       y="278.65015" />
    <g
       id="g4505"
       transform="translate(-10.468099,-7.9702878)"
       style="display:inline">
      <path
         inkscape:connector-curvature="0"
         id="path4496"
         d="m 89.792675,299.25775 -1.011074,1.75119 1.203007,8.17032 a 8.5725103,8.5725103 0 0 1 1.228917,-0.0971 8.5725103,8.5725103 0 0 1 0.955737,0.0619 l 0.899431,-8.04818 c -1.049619,-0.67763 -2.143312,-1.2922 -3.276018,-1.83857 z m 5.586351,3.48657 -1.866085,6.67221 a 8.5725103,8.5725103 0 0 1 2.009917,0.85074 l 2.838517,-4.84306 c -0.934345,-0.95768 -1.930501,-1.85311 -2.982349,-2.67989 z m -8.421433,1.42422 -2.025362,3.5073 1.730007,2.72893 a 8.5725103,8.5725103 0 0 1 1.984278,-0.91908 z m 12.941152,2.95555 -3.250757,3.92593 a 8.5725103,8.5725103 0 0 1 1.496326,1.59183 l 3.825336,-2.74146 c -0.63905,-0.96652 -1.33066,-1.89332 -2.070905,-2.7763 z m -15.961508,2.27535 -1.399523,2.4241 1.58016,1.05073 a 8.5725103,8.5725103 0 0 1 1.446851,-1.6435 z m 19.145843,2.32066 -4.218979,2.09209 a 8.5725103,8.5725103 0 0 1 0.725742,2.06724 l 5.029107,-1.03443 c -0.45104,-1.06727 -0.9638,-2.11082 -1.53587,-3.1249 z m -21.387692,1.56231 -1.42084,2.46144 2.512649,0.42578 a 8.5725103,8.5725103 0 0 1 0.658158,-2.09386 z m 23.743002,3.72829 -5.666731,0.23545 a 8.5725103,8.5725103 0 0 1 0.01602,0.40839 8.5725103,8.5725103 0 0 1 -0.198496,1.78089 l 6.884517,1.51058 c -0.25659,-1.33391 -0.60212,-2.6485 -1.03378,-3.93531 z m -26.190491,0.51102 -2.133292,3.69514 5.794825,-1.48504 a 8.5725103,8.5725103 0 0 1 -0.268403,-2.07728 8.5725103,8.5725103 0 0 1 0.0094,-0.11047 z m 19.93454,3.23359 a 8.5725103,8.5725103 0 0 1 -1.054272,1.93046 l 7.220583,5.31893 h 1.6057 c 0.0333,-0.44626 0.0563,-0.89327 0.0665,-1.34045 -0.003,-0.95666 -0.0479,-1.90974 -0.13863,-2.85645 z m -15.83731,0.29102 -8.204043,3.58891 -1.945386,3.36946 h 4.890478 l 6.397754,-5.06673 a 8.5725103,8.5725103 0 0 1 -1.138803,-1.89164 z m 13.882933,2.69013 a 8.5725103,8.5725103 0 0 1 -1.754606,1.33633 l 1.66711,2.93191 h 4.263894 z m -11.803822,0.22124 -3.69213,4.047 h 4.047502 l 1.454903,-2.78005 A 8.5725103,8.5725103 0 0 1 85.42424,323.9577 Z m 8.796965,1.71082 a 8.5725103,8.5725103 0 0 1 -2.15225,0.50717 l 0.180208,1.82901 h 2.839558 z m -5.709393,0.0984 -0.743378,2.23784 h 2.797033 l 0.114282,-1.8042 a 8.5725103,8.5725103 0 0 1 -2.167937,-0.43364 z"
         style="display:inline;opacity:1;fill:#ffffff;fill-opacity:1;stroke:none;stroke-width:0.09583534;stroke-linecap:butt;stroke-linejoin:miter;stroke-miterlimit:4;stroke-dasharray:none;stroke-dashoffset:0;stroke-opacity:1;paint-order:markers fill stroke" />
      <path
         style="display:inline;fill:#ffffff;fill-opacity:1;stroke-width:0.01008062"
         d="m 90.852642,325.27407 c -0.01598,-0.0259 -0.167035,-0.80151 -0.216882,-1.11017 -0.131069,-0.81172 -0.17783,-1.75027 -0.130868,-2.63064 0.0477,-0.88988 0.213198,-1.5589 0.563758,-2.27348 0.159035,-0.324 0.241776,-0.45998 0.444896,-0.72884 0.122499,-0.16157 0.135233,-0.18198 0.123172,-0.19402 -0.02644,-0.0249 -0.503945,-0.32223 -0.517137,-0.32223 -0.01,0 -0.139427,0.102 -0.290528,0.22672 -0.472945,0.3898 -0.624171,0.49679 -1.028716,0.72682 -0.69371,0.39483 -1.576124,0.75239 -2.15908,0.87585 -0.768728,0.16246 -1.45701,0.0913 -2.081681,-0.21635 -0.406274,-0.19965 -0.759259,-0.51237 -1.017253,-0.90022 -0.217799,-0.32719 -0.353397,-0.69097 -0.410824,-1.10105 -0.01697,-0.11888 -0.01697,-0.46836 2.4e-4,-0.58949 0.0535,-0.38798 0.187458,-0.74563 0.402253,-1.07381 0.465581,-0.71066 1.204459,-1.15777 2.057057,-1.24603 0.171418,-0.0188 0.575199,-0.0107 0.75275,0.023 0.435784,0.067 0.839055,0.18669 1.329455,0.3955 0.54963,0.23382 1.018272,0.49519 1.9447,1.08429 0.204064,0.12973 0.378481,0.23424 0.387476,0.23261 0.02114,-0.01 0.36844,-0.36967 0.532053,-0.55989 0.431423,-0.50166 0.729317,-0.98896 0.962733,-1.57536 0.333168,-0.83838 0.343748,-1.44836 0.0359,-2.09202 -0.156632,-0.32671 -0.334839,-0.5553 -0.537569,-0.68847 -0.292854,-0.19221 -0.613984,-0.2188 -0.942713,-0.0774 -0.301153,0.12956 -0.656632,0.46254 -0.811966,0.76086 -0.129856,0.24948 -0.178334,0.51154 -0.1703,0.91975 0.0097,0.20531 0.01417,0.3144 0.07662,0.87459 0.08716,0.77236 0.105154,0.92632 0.138298,1.17443 0.02709,0.20012 0.07971,0.52471 0.09017,0.55164 0.0089,0.0113 0.003,0.0206 -0.0099,0.0238 -0.0099,0.01 -0.285048,-0.14212 -0.620348,-0.32413 -0.583147,-0.3164 -0.610253,-0.33253 -0.624739,-0.368 -0.04751,-0.1175 -0.149378,-0.59791 -0.201344,-0.95062 -0.08863,-0.60233 -0.115473,-0.95245 -0.09704,-1.26384 0.03498,-0.58831 0.180304,-1.04014 0.478852,-1.48837 0.117708,-0.17644 0.219202,-0.29744 0.384818,-0.45891 0.150889,-0.14682 0.257674,-0.23423 0.412042,-0.33727 0.60661,-0.40455 1.255171,-0.53009 1.901489,-0.3684 0.552409,0.1386 1.037965,0.50281 1.400476,1.05066 0.300683,0.45438 0.491787,0.96815 0.565022,1.51868 0.02805,0.20379 0.03037,0.57617 0.01001,0.77306 -0.0708,0.57333 -0.233689,1.0936 -0.530317,1.69341 -0.322142,0.65194 -0.58787,1.02388 -1.185987,1.65961 -0.112985,0.12052 -0.205399,0.22318 -0.205399,0.22857 0,0.0134 0.313945,0.2136 0.330506,0.2136 0.01,0 0.06907,-0.0644 0.139351,-0.1437 0.07073,-0.0794 0.226536,-0.2427 0.34613,-0.36393 0.84733,-0.85813 1.562163,-1.34113 2.31419,-1.56306 1.256701,-0.37059 2.428943,-0.0792 3.105611,0.77538 0.364674,0.46004 0.551333,1.00649 0.551333,1.61284 0,0.72192 -0.266709,1.3646 -0.770336,1.85521 -0.211539,0.206 -0.418551,0.35152 -0.689047,0.48407 -0.557608,0.27333 -1.141589,0.35529 -1.816617,0.25632 -0.457895,-0.0678 -0.940913,-0.21419 -1.423504,-0.43303 -0.387613,-0.17572 -0.868834,-0.43805 -1.23066,-0.67014 -0.09712,-0.0635 -0.186639,-0.11875 -0.198964,-0.12527 -0.02277,-0.0134 -0.03028,-0.006 -0.162029,0.17456 -0.162084,0.21704 -0.23472,0.33491 -0.361356,0.58692 -0.237855,0.47354 -0.366221,0.92125 -0.421632,1.47009 -0.07907,0.7818 -0.04707,1.88533 0.07542,2.60084 0.03735,0.21344 0.07751,0.41213 0.19265,0.93755 0.04996,0.22754 0.09159,0.42917 0.0926,0.44853 l 0.005,0.0356 -0.637052,0.007 c -0.36581,0.004 -0.639109,-0.003 -0.642453,-0.0102 z m 5.531008,-6.24099 c 0.370632,-0.0632 0.728296,-0.26809 0.946336,-0.54233 0.260265,-0.3269 0.345178,-0.88006 0.199727,-1.30255 -0.120358,-0.35079 -0.405221,-0.6379 -0.743318,-0.74913 -0.181044,-0.0613 -0.276129,-0.0724 -0.551433,-0.0726 -0.260883,-9e-5 -0.370133,0.0134 -0.584781,0.0632 -0.52375,0.1231 -1.088339,0.48257 -1.707367,1.08635 -0.172882,0.16913 -0.475032,0.49179 -0.475032,0.50771 0,0.0183 0.217661,0.15574 0.463807,0.29651 0.254482,0.1459 0.656307,0.34976 0.846612,0.43013 0.283817,0.11979 0.663679,0.22994 0.937454,0.2721 0.189797,0.0299 0.177376,0.0294 0.374686,0.0304 0.136111,0.003 0.204923,-0.008 0.293309,-0.0205 z m -9.1456,-0.37262 c 0.524966,-0.0927 1.318305,-0.40595 1.960611,-0.77459 0.304693,-0.17481 0.346379,-0.20366 0.638399,-0.44407 0.157391,-0.1297 0.163725,-0.13663 0.146093,-0.15277 -0.04997,-0.0481 -0.783,-0.49543 -1.091376,-0.66791 -0.716131,-0.40046 -1.359534,-0.62767 -1.902544,-0.67341 -0.339553,-0.0282 -0.681969,0.0582 -0.965868,0.24034 -0.460959,0.29691 -0.734785,0.84428 -0.655039,1.30864 0.04761,0.27758 0.185475,0.55241 0.378644,0.75401 0.197558,0.20704 0.473442,0.34911 0.792182,0.40851 0.156026,0.0301 0.159325,0.0308 0.37621,0.0274 0.146922,-0.006 0.228643,-0.0112 0.322688,-0.0259 z"
         id="path4494"
         inkscape:connector-curvature="0"
         sodipodi:nodetypes="cccsccssssccccsccssccsscscssccccccscscsscsscsscsscsccssscccccsccccccssccccscccccccccccsssccc" />
    </g>
  </g>
</svg>
