<?xml version="1.0" encoding="UTF-8" standalone="no"?>
<!-- Created with Inkscape (http://www.inkscape.org/) -->
<svg
   xmlns:svg="http://www.w3.org/2000/svg"
   xmlns="http://www.w3.org/2000/svg"
   version="1.0"
   width="900"
   height="630"
   id="svg2">
  <defs
     id="defs5" />
  <rect
     width="900"
     height="630"
     x="0"
     y="0"
     id="rect3179"
     style="fill:#ffffff;stroke:none" />
  <path
     d="M 484.84375,129.71875 C 475.13589,129.58431 466.93653,136.874 465.9375,146.53125 C 464.93849,156.1885 471.4702,165.01935 481,166.875 C 562.96412,183.78355 615.47105,263.59837 598.5625,345.5625 C 585.08633,410.88836 531.63503,457.48363 469,465.15625 L 469,394 C 469,383.474 460.526,375 450,375 C 439.474,375 431,383.474 431,394 L 431,465 C 427.29874,464.51507 423.59075,463.89153 419.875,463.125 C 337.91087,446.21644 285.40395,366.40161 302.3125,284.4375 C 314.91677,223.33842 358.37626,179.75509 419.4375,166.96875 C 429.57711,164.84591 436.09159,154.92085 433.96875,144.78125 C 431.8459,134.64165 421.88961,128.12716 411.75,130.25 C 337.05334,145.89163 281.01264,202.13203 265.59375,276.875 C 244.58589,378.71056 310.47695,478.83587 412.3125,499.84375 C 514.14806,520.85162 614.2734,454.96056 635.28125,353.125 C 656.28915,251.28945 590.39806,151.16411 488.5625,130.15625 C 487.34062,129.88672 486.09483,129.74015 484.84375,129.71875 z M 479.09375,202 C 469.69373,201.87097 461.6796,208.73027 460.3125,218.03125 C 458.94542,227.33224 464.64792,236.19997 473.6875,238.78125 C 501.6797,247.3203 521.46769,269.62426 527.90625,296 L 373.0625,296 C 373.41219,294.58612 373.78844,293.1606 374.21875,291.75 C 382.38157,264.99116 399.98467,247.28168 426.6875,238.9375 C 436.57685,235.84816 442.08935,225.32685 439,215.4375 C 436.48991,207.40241 429.05981,202.27135 421.0625,202.28125 C 419.21697,202.28353 417.35425,202.54575 415.5,203.125 C 378.02652,214.83482 349.79906,243.26042 338.34375,280.8125 C 336.8041,285.85969 335.61447,290.92571 334.78125,296 L 312,296 C 312,296 311,303.41421 311,315 C 311,326.46091 312,334 312,334 L 334.875,334 C 341.98936,376.54304 372.36969,413.70801 416.25,427.09375 C 418.16758,427.67871 420.076,428.20585 422,428.6875 L 422,389.4375 C 396.7586,379.84698 379.0038,358.71059 372.96875,334 L 527.8125,334 C 527.46224,335.41685 527.08746,336.83645 526.65625,338.25 C 519.06083,363.1489 500.55707,381.54581 478,389.84375 L 478,428.8125 C 516.90973,419.28497 550.0506,390.10079 562.53125,349.1875 C 564.0709,344.14031 565.26053,339.07429 566.09375,334 L 588,334 C 588,334 590,327.84022 590,315 C 590,301.91007 588,296 588,296 L 566,296 C 558.88564,253.45696 528.50532,216.29198 484.625,202.90625 C 482.83707,202.32877 480.97249,202.02327 479.09375,202 z"
     id="path2388"
     style="fill:#be0026;stroke:none" />
</svg>
