<?xml version="1.0" encoding="UTF-8" standalone="no"?>
<!-- Created with Inkscape (http://www.inkscape.org/) -->
<svg
   xmlns:svg="http://www.w3.org/2000/svg"
   xmlns="http://www.w3.org/2000/svg"
   version="1.0"
   width="900"
   height="600"
   id="svg2">
  <defs
     id="defs5" />
  <rect
     width="900"
     height="600"
     x="0"
     y="0"
     id="rect2427"
     style="fill:#ffffff;stroke:none" />
  <path
     d="M 450,120 L 428.0625,163.875 L 428,163.875 L 428,164 L 428,210 L 294,210 L 356.09375,317.46875 L 395.09375,294.96875 L 372,255 L 428,255 L 428,287.53125 L 321.6875,348.90625 L 321.5625,348.96875 L 321.59375,349 L 294.5625,389.9375 L 343.53125,387 L 343.5625,387.0625 L 343.6875,387 L 383.125,364.25 L 450,480 L 512.09375,372.53125 L 473.09375,350.03125 L 450,390 L 422.09375,341.71875 L 450.40625,325.375 L 556.53125,386.65625 L 556.65625,386.71875 L 556.6875,386.65625 L 605.65625,389.59375 L 578.625,348.65625 L 578.65625,348.59375 L 578.53125,348.53125 L 539.09375,325.78125 L 606,210 L 482,210 L 482,255 L 528,255 L 500.125,303.25 L 472,287.03125 L 472,164 L 472,163.875 L 471.9375,163.875 L 450,120 z"
     id="path2384"
     style="fill:#00693f;stroke:none" />
</svg>
