<?xml version="1.0" encoding="UTF-8" standalone="no"?>
<!-- Created with Inkscape (http://www.inkscape.org/) -->
<svg
   xmlns:svg="http://www.w3.org/2000/svg"
   xmlns="http://www.w3.org/2000/svg"
   version="1.0"
   width="900"
   height="600"
   id="svg2">
  <defs
     id="defs5" />
  <rect
     width="900"
     height="600"
     x="0"
     y="0"
     id="rect2421"
     style="fill:#ffffff;stroke:none" />
  <path
     d="M 447.25,120 C 355.97481,121.30758 278.64431,191.68754 270.65625,284.5625 C 262.14231,383.55179 335.57303,470.82982 434.5625,479.34375 C 533.55196,487.85767 620.8298,414.42679 629.34375,315.4375 L 629.4375,314.125 C 637.20757,215.5284 563.97615,129.1314 465.4375,120.65625 C 460.79737,120.25716 456.17539,120.0448 451.59375,120 C 450.13813,119.98577 448.69881,119.97924 447.25,120 z M 447.71875,153 C 448.90192,152.98304 450.09249,152.98838 451.28125,153 C 455.02292,153.03658 458.80431,153.23658 462.59375,153.5625 C 543.06699,160.48389 602.87681,231.04181 596.53125,311.5625 L 596.4375,312.59375 C 589.48446,393.43514 518.24764,453.39055 437.40625,446.4375 C 356.56486,439.48446 296.60945,368.24764 303.5625,287.40625 C 310.08606,211.55824 373.17877,154.06827 447.71875,153 z M 448,186 C 390.30658,186.95851 341.48899,231.48645 336.4375,290.21875 C 331.04534,352.91207 377.52543,408.17033 440.21875,413.5625 C 442.8309,413.78717 445.41674,413.89036 448,413.9375 L 448,380.96875 C 446.36042,380.92691 444.71826,380.82991 443.0625,380.6875 C 419.79808,378.68656 399.68605,367.03102 386.3125,350 C 396.40625,350 406.50002,350 416.59375,350 C 433.81691,349.73284 448.39858,336.43561 449.90625,318.90625 C 449.96107,318.26885 449.98075,317.63176 450,317 L 392.0625,317 C 391.454,316.99487 390.83518,316.95927 390.21875,316.90625 C 379.28137,315.96556 370.75319,307.65586 369.0625,297.28125 C 369.05914,297.26065 369.0658,297.23937 369.0625,297.21875 C 369.11099,295.83798 369.19277,294.45454 369.3125,293.0625 C 372.88498,251.52602 407.25738,219.99583 448,219.03125 L 448,186 z M 452,186.03125 L 452,219.03125 C 453.63912,219.07882 455.28174,219.17009 456.9375,219.3125 C 478.79628,221.19254 497.86392,231.61874 511.1875,247 L 550.9375,247 C 533.4469,213.7727 499.93537,189.8911 459.78125,186.4375 C 457.16911,186.21283 454.58289,186.08599 452,186.03125 z M 416.71875,250.5 C 408.36045,250.62966 401.29417,257.08685 400.5625,265.59375 C 399.78206,274.66778 406.51971,282.65705 415.59375,283.4375 C 424.66778,284.21794 432.65704,277.48029 433.4375,268.40625 L 433.4375,268.28125 C 434.14976,259.24321 427.43896,251.33939 418.40625,250.5625 C 417.83912,250.51372 417.27597,250.49136 416.71875,250.5 z M 478,251 C 461.52764,252.99217 451.40097,266.25838 450.125,281.09375 C 450.07018,281.73116 450.0505,282.36825 450.03125,283 L 507.96875,283 C 508.57725,283.00514 509.19608,283.04073 509.8125,283.09375 C 520.70489,284.03057 529.19771,292.27893 530.9375,302.59375 C 530.89647,303.84632 530.84946,305.11286 530.75,306.375 L 530.6875,306.9375 C 527.11473,348.47727 492.74538,380.00993 452,380.96875 L 452,413.96875 C 509.69363,413.01321 558.51104,368.51367 563.5625,309.78125 L 563.65625,308.96875 C 565.28541,288.29584 561.30619,268.46908 552.96875,251 L 478,251 z M 482.71875,316.5 C 474.36045,316.62966 467.29417,323.08685 466.5625,331.59375 C 465.78206,340.66778 472.51971,348.65705 481.59375,349.4375 C 490.66778,350.21794 498.65704,343.48029 499.4375,334.40625 L 499.4375,334.28125 C 500.14976,325.24321 493.43896,317.3394 484.40625,316.5625 C 483.83912,316.51372 483.27597,316.49136 482.71875,316.5 z"
     id="path2386"
     style="fill:#be0026;stroke:none" />
</svg>
