<svg xmlns="http://www.w3.org/2000/svg" viewBox="0 0 967.88 645.56"><g transform="translate(209.16-136.72)"><path fill="#fff" d="m-208.64 137.22h966.86v644.57h-966.86z"/><path d="m257.15 230.26v23.719c-112.08 8.979-200.25 102.76-200.25 217.16 0 116.88 92.01 212.24 207.56 217.62v-30.938c-63.825-3.469-119.11-38.948-150.12-90.66h28.813c29.636 40.555 77.54 66.906 131.62 66.906 54.08 0 102.01-26.352 131.66-66.906h28.813c-31.02 51.699-86.31 87.18-150.12 90.66v30.938c115.53-5.397 207.56-100.76 207.56-217.62 0-114.39-88.18-208.16-200.25-217.16v-23.719h-35.28m17.625 53.875c88.42 0 162.52 61.4 182 143.87h-24.813c-18.916-69.06-82.13-119.81-157.19-119.81-75.06 0-138.25 50.757-157.16 119.81h-24.813c19.472-82.48 93.55-143.87 181.97-143.87m0 53.656c58.54 0 108.29 37.748 126.22 90.22h-25.281c-16.77-39.15-55.654-66.59-100.94-66.59-45.28 0-84.15 27.445-100.91 66.59h-25.281c17.924-52.47 67.65-90.22 126.19-90.22m.031 59.656c36.95 0 67.54 27.22 72.844 62.688h36.34 23.688c.297 3.631.438 7.293.438 11 0 3.703-.172 7.373-.469 11h-265.72c-.296-3.627-.469-7.297-.469-11 0-3.707.141-7.369.438-11h54.56 5.469c5.313-35.472 35.925-62.688 72.875-62.688m-186.66 62.688h24.06c-.243 3.639-.375 7.3-.375 11 0 3.698.131 7.363.375 11h-24.09c-.212-3.639-.313-7.308-.313-11 0-3.694.132-7.358.344-11m349.22 0h24.06c.211 3.642.344 7.306.344 11 0 3.693-.1 7.361-.313 11h-24.09c.243-3.637.375-7.302.375-11 0-3.7-.132-7.361-.375-11m-344.56 54.12h24.844c1.956 7.132 4.358 14.08 7.219 20.781h-25.844c-2.457-6.756-4.542-13.688-6.219-20.781m55.813 0h252.31c-2.472 7.22-5.512 14.178-9.125 20.781h-234.06c-3.613-6.603-6.658-13.561-9.125-20.781m283.31 0h24.813c-1.681 7.093-3.76 14.02-6.219 20.781h-25.813c2.862-6.705 5.263-13.65 7.219-20.781m-249.66 52.906h74.875v36.16c-28.901-3.82-54.892-16.897-74.875-36.16m110.16 0h74.844c-19.983 19.254-45.953 32.33-74.844 36.16v-36.16" fill="#000154"/><path fill="#fff" d="m48.629 460.12h452.31v22.02h-452.31z"/></g></svg>