<svg width="600" height="400" version="1.1" xmlns="http://www.w3.org/2000/svg">
 <rect width="600" height="400" fill="#4352a1"/>
 <path d="m202.42 158.15h4.09a96 96 0 0 0 10.37 69.89c12.08 20.92 30.64 28.98 43.85 43.93 a197.8 197.8 0 0 1 39.28 68.05l29.864-64.58-2.05-3.54a96 96 0 0 0 55.33-43.89c12.09-20.94 9.79-41.05 16.13-60a197.8 197.8 0 0 1 39.29-68.03l-70.82 6.42a252 252 0 0 0-27.76 73.56a40 40 0 1 1-1.57-11.07 256 256 0 0 1 24.26-61.61 96 96 0 0 0-62.69-23.31c-24.16 0-40 12-60 16a197.8 197.8 0 0 1-78.56 0z" fill="#ffffff"/>
</svg>
