<?xml version="1.0" encoding="UTF-8" standalone="no"?>
<!-- Created with Inkscape (http://www.inkscape.org/) -->

<svg
   xmlns:dc="http://purl.org/dc/elements/1.1/"
   xmlns:cc="http://creativecommons.org/ns#"
   xmlns:rdf="http://www.w3.org/1999/02/22-rdf-syntax-ns#"
   xmlns:svg="http://www.w3.org/2000/svg"
   xmlns="http://www.w3.org/2000/svg"
   xmlns:sodipodi="http://sodipodi.sourceforge.net/DTD/sodipodi-0.dtd"
   xmlns:inkscape="http://www.inkscape.org/namespaces/inkscape"
   version="1.1"
   id="svg2"
   width="324"
   height="216"
   viewBox="0 0 324 216"
   sodipodi:docname="Flag of Kanonji, Kagawa (1957–2005).svg"
   inkscape:version="0.92.3 (2405546, 2018-03-11)">
  <metadata
     id="metadata8">
    <rdf:RDF>
      <cc:Work
         rdf:about="">
        <dc:format>image/svg+xml</dc:format>
        <dc:type
           rdf:resource="http://purl.org/dc/dcmitype/StillImage" />
        <dc:title></dc:title>
      </cc:Work>
    </rdf:RDF>
  </metadata>
  <defs
     id="defs6" />
  <sodipodi:namedview
     pagecolor="#ffffff"
     bordercolor="#666666"
     borderopacity="1"
     objecttolerance="10"
     gridtolerance="10"
     guidetolerance="10"
     inkscape:pageopacity="0"
     inkscape:pageshadow="2"
     inkscape:window-width="1920"
     inkscape:window-height="1017"
     id="namedview4"
     showgrid="false"
     inkscape:zoom="1.7530864"
     inkscape:cx="93.074988"
     inkscape:cy="108"
     inkscape:window-x="-8"
     inkscape:window-y="-8"
     inkscape:window-maximized="1"
     inkscape:current-layer="svg2" />
  <rect
     style="opacity:1;fill:#ffffff;fill-opacity:1;fill-rule:evenodd;stroke:none;stroke-width:6.18599987;stroke-miterlimit:4;stroke-dasharray:none;stroke-opacity:1"
     id="rect982"
     width="324"
     height="216"
     x="0"
     y="0" />
  <g
     id="layer3"
     transform="translate(112.72536,91.330986)">
    <path
       style="fill:#ff0000;fill-opacity:1;fill-rule:evenodd;stroke:none;stroke-width:0.65766329"
       id="path4557"
       d="m -58.753522,-48.376761 28.382021,49.8906018 h 15.637816 c -0.0087,0.4357725 -0.02052,0.8793826 -0.02052,1.3172436 0,15.1747586 5.2610427,29.1045306 14.03709479,40.0936026 l -4.30963439,3.149035 19.4959656,34.310081 7.552121,-14.48968 c 8.269487,3.903869 17.506992,6.092252 27.253308,6.092252 9.744752,0 18.987051,-2.184945 27.253307,-6.092252 l 7.552121,14.48968 19.495962,-34.310081 -4.289109,-3.128453 c 8.774659,-10.988921 14.016569,-24.941 14.016569,-40.1141846 0,-0.437861 -0.0118,-0.8814711 -0.0206,-1.3172436 h 15.63781 l 28.38206,-49.8906018 -57.564403,3.807657 v 0.02058 l -21.507128,1.420154 -3.488752,8.026953 c 10.697455,7.869608 17.648979,20.561124 17.648979,34.88637353 0,23.88375447 -19.302578,43.24263747 -43.116866,43.24263747 -23.814289,0 -43.1168673,-19.358883 -43.1168673,-43.24263747 0,-14.32524953 6.9515243,-27.01676553 17.6489793,-34.88637353 L 20.31796,-43.12837 -1.1891678,-44.548524 v -0.02058 z"
       inkscape:connector-curvature="0" />
  </g>
</svg>
