<?xml version="1.0" encoding="UTF-8" standalone="no"?>
<!-- Created with Inkscape (http://www.inkscape.org/) -->
<svg
   xmlns:svg="http://www.w3.org/2000/svg"
   xmlns="http://www.w3.org/2000/svg"
   version="1.0"
   width="900"
   height="600"
   id="svg2">
  <defs
     id="defs5" />
  <rect
     width="900"
     height="600"
     x="0"
     y="0"
     id="rect2413"
     style="fill:#ffffff;stroke:none" />
  <path
     d="M 450.5,120 C 364.40319,120 292.38633,180.56483 274.6875,261.375 L 295.625,252.65625 C 315.88307,186.44505 377.4961,138.25 450.3125,138.25 C 523.2423,138.25001 584.93326,186.59831 605.09375,252.96875 L 626.4375,261.84375 C 608.9167,180.79692 536.76475,120 450.5,120 z M 450,210 L 368.125,244.125 L 501,300 L 368.125,355.875 L 450,390 L 666,300 L 450,210 z M 342,255 L 341.34375,255.28125 L 234,300 L 341.34375,344.71875 L 341.40625,344.75 L 342,345 L 449,300 L 342,255 z M 626.4375,338.15625 L 605.09375,347.03125 C 584.93326,413.40169 523.2423,461.75 450.3125,461.75 C 377.49611,461.74999 315.88307,413.55495 295.625,347.34375 L 274.6875,338.625 C 292.38633,419.43517 364.40319,480.00001 450.5,480 C 536.76474,480 608.91671,419.20308 626.4375,338.15625 z"
     id="path2387"
     style="fill:#be0026;stroke:none" />
</svg>
