<svg xmlns="http://www.w3.org/2000/svg" height="400" width="600" version="1.1">
 <rect fill="#ffffff" height="400" width="600" y="0" x="0"/>
 <path fill="#ff0000" d="m276 127.9c-13.2 48.58-26.27 85.89-50.5 123.6 52.66-10.56 100.8-9.981 150 0.096-24.95-38.39-40.31-78.69-49.9-123.6zm28.45 23.99c6.61 24.59 15.47 48.34 26.63 71.26-21.83-2.351-43.79-1.775-64.06 0.2207 11.52-22.07 20.15-46.06 26.87-71.02zm-0.6-67.06c61.5 1.92 111.4 52.56 111.4 115.2 0 63.34-51.82 115.2-115.2 115.2-63.34 0-115.2-51.82-115.2-115.2 0-62.38 48.94-113.2 111.3-115.2v-4.75c-64.2 2.15-116.1 54.75-116.1 120 0 66.22 53.74 120 120 120 66.22 0 120-53.74 120-120 0-65.26-51.82-118-116.1-120zm0 12c55.7 2.01 99.4 47.36 99.8 102.7 0.5 56.6-47 103.7-103.6 103.7-56.62 0-104.1-47.03-103.6-103.6 0.4758-55.67 44.15-100.8 99.81-102.7v-4.75c-57.58 1.631-103.6 48.94-103.6 107.5 0 59.62 48.34 107.5 107.5 107.5 59.62 0 107.5-48.34 107.5-107.5 0-58.54-46.06-105.6-103.6-107.5zm0 12c48.82 1.931 87.57 41.99 87.57 90.93 0 50.38-40.79 91.17-91.17 91.17s-91.19-40.79-91.17-91.17c0.0177-48.94 38.63-89.13 87.57-91.05v-4.75c-50.86 1.919-92.13 44.15-92.13 95.97 0 53.02 42.95 95.97 95.97 95.97s95.97-42.95 95.97-95.97c0-51.58-40.79-93.93-92.37-95.97z"/>
</svg>
