<?xml version="1.0" encoding="UTF-8" standalone="no"?>
<!-- Created with Inkscape (http://www.inkscape.org/) -->
<svg
   xmlns:svg="http://www.w3.org/2000/svg"
   xmlns="http://www.w3.org/2000/svg"
   version="1.0"
   width="900"
   height="600"
   id="svg2">
  <defs
     id="defs5" />
  <rect
     width="900"
     height="600"
     x="0"
     y="0"
     id="rect2411"
     style="fill:#ffffff;stroke:none" />
  <path
     d="M 458,120.1875 L 458,190 L 453,190 L 453,219.5625 C 491.76203,220.97783 523.56984,249.66972 529.84375,287 L 560.25,287 C 555.19413,243.70381 525.18361,208.01094 485,194.65625 L 485,154.625 C 550.93731,170.40345 600,229.74936 600,300.5 C 600,378.92056 539.72091,443.34156 463,449.9375 L 463,479.53125 C 556.29814,472.86121 629.99999,394.98777 630,300 C 630,203.32268 553.64983,124.38051 458,120.1875 z M 441,120.21875 C 345.81969,124.91722 270.00001,203.66061 270,300 C 270,394.98777 343.70186,472.86121 437,479.53125 L 437,449.9375 C 360.27909,443.34156 300,378.92056 300,300.5 C 300,230.10991 348.57062,171.01413 414,154.875 L 414,195 C 374.32669,208.60949 344.8026,244.07482 339.78125,287 L 370.15625,287 C 376.43016,249.66972 408.23797,220.97783 447,219.5625 L 447,190 L 441,190 L 441,120.21875 z M 339.90625,314 C 346.79991,368.66694 393.47249,411 450,411 C 506.52751,411 553.20009,368.66694 560.09375,314 L 339.90625,314 z M 378.71875,339 L 521.28125,339 C 507.57556,364.30275 480.77931,381.5 450,381.5 C 419.22069,381.5 392.42444,364.30275 378.71875,339 z"
     id="path2386"
     style="fill:#be0026;stroke:none" />
</svg>
