<?xml version="1.0" encoding="UTF-8" standalone="no"?>
<!-- Created with Inkscape (http://www.inkscape.org/) -->
<svg
   xmlns:svg="http://www.w3.org/2000/svg"
   xmlns="http://www.w3.org/2000/svg"
   version="1.0"
   width="900"
   height="600"
   id="svg2">
  <defs
     id="defs5" />
  <rect
     width="900"
     height="600"
     x="0"
     y="0"
     id="rect2445"
     style="fill:#00693f;stroke:none" />
  <path
     d="M 450,120.5 C 401.19921,120.5 356.93286,139.96204 324.5,171.53125 C 299.02765,154.02293 271.46363,139.34356 242.25,127.96875 L 265.4375,187.875 C 276.09351,193.61842 286.42722,199.87246 296.40625,206.625 C 279.65289,233.96251 270,266.10988 270,300.5 C 270,397.5047 346.86449,476.64525 442.96875,480.34375 L 442.96875,480 C 442.96875,480 440.41317,456.69287 437.0625,434.84375 C 368.85075,428.08542 315.5,370.48009 315.5,300.5 C 315.5,276.61298 321.726,254.15979 332.625,234.6875 C 336.44989,238.05329 340.22823,241.4773 343.90625,245 L 405.5,245 C 391.80782,228.73055 376.86745,213.56356 360.8125,199.625 C 384.6639,178.40297 416.08689,165.5 450.5,165.5 C 484.85702,165.5 516.22536,178.37092 540.0625,199.53125 C 523.96584,213.49476 508.9737,228.69178 495.25,245 L 555.84375,245 C 559.7894,241.22275 563.82349,237.53402 567.9375,233.9375 C 579.10093,253.58414 585.5,276.30289 585.5,300.5 C 585.50001,370.78953 531.67601,428.5704 463.03125,434.90625 C 459.08939,457.9495 457,479.9375 457,479.9375 L 457,480.34375 C 553.1189,476.66126 630,397.51525 630,300.5 C 630,266.06971 620.32077,233.88944 603.53125,206.53125 C 613.71812,199.64846 624.26558,193.26935 635.15625,187.4375 L 658.125,128.125 C 628.88176,139.545 601.29638,154.28136 575.8125,171.84375 C 543.35163,140.09324 498.95919,120.5 450,120.5 z M 450,211 C 435.54015,227.21848 417.59025,254.42638 415.59375,257.46875 C 414.68675,256.30052 413.7632,255.158 412.84375,254 L 352.96875,254 C 363.9697,265.30625 374.23517,277.3312 383.6875,290 L 397,290 L 390.9375,300.09375 C 401.60326,315.46393 411.10318,331.70942 419.3125,348.6875 C 427.18502,327.33925 446.81802,291.35876 450,288 L 456.90625,298.90625 C 444.67237,319.16431 436.80341,335.95953 426.1875,361.75 C 426.08165,362.04038 425.98013,362.33426 425.875,362.625 C 427.03773,366.11544 428.5842,369.4785 429.9375,372.90625 C 432.24749,378.72936 434.41707,384.61125 436.375,390.5625 C 438.88735,397.91524 441.0456,405.38164 443.09375,412.875 C 445.81831,423.21761 448.09283,433.69712 450,444.21875 C 451.73167,434.24561 453.72364,424.33419 456.25,414.53125 C 458.34116,406.2792 461.00806,398.13051 463.71875,390.0625 C 466.22093,382.59772 469.14826,375.22543 472.125,367.9375 C 489.34896,324.58647 515.0287,288.19669 546.78125,254 L 487.90625,254 C 486.85974,255.31815 485.81163,256.63735 484.78125,257.96875 C 483.74467,256.3401 469.14756,233.53828 450,211 z"
     id="path2388"
     style="fill:#ffffff;stroke:none" />
</svg>
