<?xml version="1.0" encoding="UTF-8"?>
<svg width="900" height="600" version="1.1" viewBox="0 0 238.125 158.75" xmlns="http://www.w3.org/2000/svg">
 <g transform="translate(-6.885161 -55.39763)">
  <rect x="7.517751" y="56.03022" width="236.8598" height="157.4848" fill="#fff"/>
  <g transform="matrix(.293418 0 0 .293418 60.65323 -35.48736)">
   <path d="m215.1027 682.366-33.50359 60.20935c-25.65063-6.89266-70.12297-37.36549-69.92053-82.54507 0.14858-47.16469 32.3969-78.78871 82.54507-99.53964-23.42993 25.70695-48.03944 85.76288 20.87905 121.8754z" fill="#0e8014"/>
   <g fill="#cf003d">
    <ellipse transform="matrix(1.046414 0 0 .9240506 -7.092852 27.91608)" cx="158.0495" cy="533.7849" rx="57.53877" ry="38.35918"/>
    <ellipse transform="matrix(.7392015 .4966697 -.4890109 .5202316 315.5625 96.72048)" cx="158.0495" cy="533.7849" rx="57.53877" ry="31.34565"/>
    <ellipse transform="matrix(.3792045 .4816702 -.4303489 .2373824 398.9013 242.9322)" cx="158.0495" cy="533.7849" rx="54.73026" ry="37.41532"/>
    <ellipse transform="matrix(.5207132 .7557836 -.6655987 .3137002 583.1233 293.6141)" cx="158.0495" cy="533.7849" rx="54.73026" ry="31.08035"/>
    <ellipse transform="matrix(.4943576 .3746039 -.3576403 .3463658 429.5341 282.0611)" cx="158.0495" cy="533.7849" rx="55.28577" ry="36.01361"/>
    <ellipse transform="matrix(.3117618 .3466321 -.3131178 .2049309 400.9177 311.3816)" cx="158.0495" cy="533.7849" rx="55.28577" ry="50.65548"/>
    <ellipse transform="matrix(-.07118208 1.025832 -1.212702 -.2277086 896.8448 554.253)" cx="158.0495" cy="533.7849" rx="54.73026" ry="31.08035"/>
   </g>
  </g>
 </g>
</svg>