<svg height="600" width="900" xmlns="http://www.w3.org/2000/svg">
  <path fill="#fff" d="M0 0h900v600H0z"/>
  <circle fill="#00629d" r="44.96" cy="383.26" cx="487.38"/>
  <path fill="#00a197" d="m361.49 444.38 79.77-21.48a60.2 60.2 0 0 1-14.5-39.14c0-33.3 27.15-60.28 60.63-60.28 9.65 0 19.15 2.33 27.64 6.66a199.6 199.6 0 0 1 20.48-47.46C561.32 239.55 595.87 215.31 640 190c-18.32-26.81-63.52-46.2-110.65-46.2-34.8 0-70.1 14.82-107.74 14.98-58.79.17-136.46-33.8-161.61-58.78 0 50.3 21.39 100.08 55.7 128.9 23.14 19.48 51.79 28.97 77.6 28.97 7.5 0 14.15 5.16 16.98 11.82s2.33 15.82-4 19.82c-33.63 21.31-66.44 49.96-90.42 91.26C285.06 433.72 280 487.34 280 500c14.49-25.15 45.85-45.96 81.49-55.62z"/>
</svg>