<svg xmlns="http://www.w3.org/2000/svg" height="400" width="600">
 <rect height="400" width="600" y="0" x="0" fill="#ffffff"/>
 <path d="m294.8 261.9a32.2 40.7 23.3 1 1 -60.1 -23.4 32.2 40.7 23.3 0 1 60.1 23.4z" fill="#18852c"/>
  <path d="m242.4 137.4c-36.7 0-53.3 58.6-53.3 93.7 0 59.7 34.6 89.3 73.6 89 83.5-0.6 147.6-111.5 148.2-184.5 0.3-30.7-18.3-55.5-42.5-55.5-23.4 0-40.6 25.6-40.6 55.5 0 52 33.1 30.3 15.5 90.8-10.9 37.4-41.5 81.6-85.1 81.6-26.5 0-49-18.1-49-67.3 0-12.5 1.1-38.2 18.8-43 32.6-8.7 45.9-60.2 14.3-60.2z" fill="#0b3684"/>
</svg>
