<svg xmlns="http://www.w3.org/2000/svg" width="1010.71" viewBox="0 0 1010.7143 673.80951"><g transform="translate(18.17-155.46)"><path fill="#003a6c" d="m-18.17 155.46h1010.71v673.81h-1010.71z"/><path d="m487.19 273.02l-13.688 17.404a202.92816 202.92816 0 0 0 -189.24023 202.24414 202.92816 202.92816 0 0 0 194.11523 202.61523v.313h8.813 8.813v-.441a202.92816 202.92816 0 0 0 194.11523 -202.48633 202.92816 202.92816 0 0 0 -189.40234 -202.45117l-13.525-17.197m-8.813 38.28v14.02a167.78448 167.78448 0 0 0 -158.97266 167.34179 167.78448 167.78448 0 0 0 158.97266 167.47266v13.766a181.6785 181.6785 0 0 1 -172.86523 -181.23633 181.6785 181.6785 0 0 1 172.86523 -181.36719m17.625.12891a181.6785 181.6785 0 0 1 172.86719 181.23828 181.6785 181.6785 0 0 1 -172.86719 181.36523v-14.02a167.78448 167.78448 0 0 0 158.97266 -167.34375 167.78448 167.78448 0 0 0 -158.97266 -167.4707v-13.766zm-8.8125 33.06836a148.1694 148.1694 0 0 1 61.88086 13.71484 225.40378 225.40378 0 0 0 -45.00977 134.45312 225.40378 225.40378 0 0 0 38.44727 125.44727 137.19217 137.19217 0 0 0 36.58008 -23.79492 181.67848 181.67848 0 0 1 -31.30078 -101.65235 181.67848 181.67848 0 0 1 37.85937 -110.52539 148.1694 148.1694 0 0 1 49.71289 110.52539 148.1694 148.1694 0 0 1 -135.51953 147.53516l-12.65-16.08-12.65 16.09a148.1694 148.1694 0 0 1 -135.51953 -147.53711 148.1694 148.1694 0 0 1 49.63281 -110.4121 181.67848 181.67848 0 0 1 37.93945 110.4121 181.67848 181.67848 0 0 1 -31.23242 101.71094 137.19217 137.19217 0 0 0 36.6211 23.69531 225.40378 225.40378 0 0 0 38.33789 -125.40625 225.40378 225.40378 0 0 0 -44.92383 -134.4707 148.1694 148.1694 0 0 1 61.79492 -13.69726" fill="#fff"/><path d="m260.05 267.8v449.51a225.40378 225.40378 0 0 0 210.26954 -224.64649 225.40378 225.40378 0 0 0 -210.26954 -224.86718m454.28126.22265a225.40378 225.40378 0 0 0 -210.26954 224.64453 225.40378 225.40378 0 0 0 210.26954 224.86914v-449.51z" fill="none" stroke="#003a6c" stroke-width="11"/></g></svg>