<svg xmlns="http://www.w3.org/2000/svg" xmlns:xlink="http://www.w3.org/1999/xlink" height="400" width="600">
 <rect fill="#660066" height="400" width="600" y="0" x="0"/>
 <g fill="#ffffff">
  <path d="m294 105.2v34.9a37.5 37.5 0 0 1 -49.1 35.7l-33.2-10.8a95 95 0 0 0 -3.7 11.4l33.2 10.8a37.5 37.5 0 0 1 18.8 57.7l-20.5 28.3a95 95 0 0 0 9.7 7.1l20.5-28.3a37.5 37.5 0 0 1 60.7 0l20.5 28.3a95 95 0 0 0 9.7 -7.1l-20.5-28.3a37.5 37.5 0 0 1 18.8 -57.7l33.2-10.8a95 95 0 0 0 -3.7 -11.4l-33.2 10.8a37.5 37.5 0 0 1 -49.1 -35.6v-34.9a95 95 0 0 0 -12 0z"/>
  <path id="a" d="m306 80.2v25a95 95 0 0 1 82.4 59.8l23.8-7.7a120 120 0 0 0 -106.2 -77.1z"/>
  <use xlink:href="#a" transform="rotate(72 300 200)"/>
  <use xlink:href="#a" transform="rotate(144 300 200)"/>
  <use xlink:href="#a" transform="rotate(216 300 200)"/>
  <use xlink:href="#a" transform="rotate(288 300 200)"/>
 </g>
</svg>
