<svg xmlns="http://www.w3.org/2000/svg" height="400" width="600">
 <rect height="400" width="600" y="0" x="0" fill="#009944"/>
 <path fill="#ffffff" d="m270.1 320 4.6-19.9c-40-9.2-72.2-39.8-83.1-80.2-7.1-26.8-4.1-55.2 8.4-79.8l-13.9-6.9v-30.4l56.7 24.8c-18 16.2-28.3 39.2-28.4 63.3 0 40.3 28 74.4 66.2 83.2l1.2-5.2c-37.1-8.5-63.7-42.5-62-81.5 1.1-24.2 13.1-46.6 32.6-61l-66.4-28.8v-17.6l105 43.4c2.4 1 2.3 3.7 0.7 3.9-31.8 4.2-55.9 31.2-56 63.5 0 30.2 21 55.8 49.7 62.4l14.4-62.3 14.4 62.4c28.7-6.6 49.6-32.2 49.7-62.4 0-32.3-24.2-59.3-56-63.5-1.6-0.2-1.7-2.9 0.7-3.9l105-43.4v17.6l-66.4 28.8c19.5 14.4 31.5 36.8 32.6 61 1.7 39.1-24.9 73-62 81.5l1.2 5.2c38.2-8.8 66.2-43 66.2-83.2-0.1-24.2-10.37-47.2-28.4-63.3l56.7-24.8v30.4l-13.9 6.9c12.6 24.6 15.6 53.1 8.4 79.8-10.8 40.4-43.1 71-83.1 80.23l4.6 19.8c-8.8-4.4-19.6-6.9-29.9-6.9-10.3 0-21.1 2.6-29.9 6.9z"/>
</svg>
