<?xml version="1.0" encoding="UTF-8" standalone="no"?>
<!-- Created with Inkscape (http://www.inkscape.org/) -->

<svg
   xmlns:dc="http://purl.org/dc/elements/1.1/"
   xmlns:cc="http://creativecommons.org/ns#"
   xmlns:rdf="http://www.w3.org/1999/02/22-rdf-syntax-ns#"
   xmlns:svg="http://www.w3.org/2000/svg"
   xmlns="http://www.w3.org/2000/svg"
   xmlns:sodipodi="http://sodipodi.sourceforge.net/DTD/sodipodi-0.dtd"
   xmlns:inkscape="http://www.inkscape.org/namespaces/inkscape"
   version="1.1"
   id="svg2"
   width="324"
   height="216"
   viewBox="0 0 324 216"
   sodipodi:docname="Flag of Nagareyama, Chiba.svg"
   inkscape:version="0.92.3 (2405546, 2018-03-11)">
  <metadata
     id="metadata8">
    <rdf:RDF>
      <cc:Work
         rdf:about="">
        <dc:format>image/svg+xml</dc:format>
        <dc:type
           rdf:resource="http://purl.org/dc/dcmitype/StillImage" />
        <dc:title></dc:title>
      </cc:Work>
    </rdf:RDF>
  </metadata>
  <defs
     id="defs6">
    <style
       id="style839"
       type="text/css"><![CDATA[
    .fil0 {fill:#00A2E8}
    .fil1 {fill:white}
   ]]></style>
  </defs>
  <sodipodi:namedview
     pagecolor="#ffffff"
     bordercolor="#666666"
     borderopacity="1"
     objecttolerance="10"
     gridtolerance="10"
     guidetolerance="10"
     inkscape:pageopacity="0"
     inkscape:pageshadow="2"
     inkscape:window-width="1920"
     inkscape:window-height="1017"
     id="namedview4"
     showgrid="false"
     inkscape:zoom="1.6286617"
     inkscape:cx="56.465934"
     inkscape:cy="112.57759"
     inkscape:window-x="-8"
     inkscape:window-y="-8"
     inkscape:window-maximized="1"
     inkscape:current-layer="svg2" />
  <g
     id="g1202"
     transform="matrix(0.36,0,0,0.36,9.4362085e-6,-1.5447554e-6)"
     style="stroke-width:2.77777767">
    <rect
       style="fill:#ffffff;stroke:none;stroke-width:2.77777767"
       id="rect2470"
       y="2.2737368e-013"
       x="1.1368684e-013"
       height="600"
       width="900" />
    <path
       style="fill:#ff0000;fill-opacity:1;stroke:none;stroke-width:2.77777767"
       id="path2452"
       d="m 450,120 c -99.36,0 -180,80.64 -180,180 0,99.36 80.64,180 180,180 99.36,0 180,-80.64 180,-180 0,-99.36 -80.64,-180 -180,-180 z m -3.8125,32.0625 c -14.21454,34.3057 -22.09372,71.88805 -22.09375,111.3125 0,10.02629 0.53363,19.92167 1.53125,29.6875 h -41.68749 v -67.15625 h -1.3125 -34.53125 v 34.5 10.34375 28.09375 c 0,19.11879 15.41244,34.50001 34.53125,34.5 h 41.40623 c 14.42973,30.80349 22.53127,65.16224 22.53127,101.40625 -0.38837,5.41963 -0.55934,9.78268 -0.59376,13.1875 C 366.13626,445.79659 301.99999,380.34634 301.99999,300 302,219.5805 366.25373,154.08989 446.1875,152.0625 Z M 484.24999,156 c 2.78865,0.66171 5.55605,1.40158 8.28126,2.21875 -15.04815,33.03596 -23.4375,69.72325 -23.4375,108.375 0,8.94058 1.05153,17.76045 1.92867,26.46875 H 461.25 c -0.97537,-9.37764 -1.49999,-18.90215 -1.49999,-28.53125 -3e-5,-38.54278 8.93389,-75.25296 24.49998,-108.53125 z m 11.84376,3.34375 C 555.23697,178.73587 598.00001,234.39975 598.00001,300 598,366.378 554.23396,422.59602 494,441.34375 c 0.36294,-5.36861 0.56248,-10.79285 0.56249,-16.25 0,-32.5009 -6.50183,-63.48544 -18.24999,-91.75 h 41.09375 c 19.1188,0 34.49996,-15.38122 34.49999,-34.5 V 270.75 v -10.34375 -34.5 h -34.49999 -1.40624 v 67.15625 h -41.82135 c -1.01995,-9.06972 -2.14741,-18.2864 -2.14741,-27.625 0,-37.99157 8.64503,-73.97128 24.0625,-106.09375 z m -69.4375,174 h 10.65624 c 13.83642,30.27605 21.5625,63.93051 21.5625,99.375 0,5.05683 -0.18978,10.0561 -0.49999,15.03125 -2.77012,0.15466 -5.56642,0.25 -8.375,0.25 -0.54412,0 -1.08227,-0.0254 -1.625,-0.0312 0.27072,-3.54512 0.47766,-8.13735 0.53125,-13.78125 10e-6,-36.02034 -7.98744,-70.18694 -22.25,-100.84375 z"
       inkscape:connector-curvature="0" />
  </g>
</svg>
