<svg xmlns="http://www.w3.org/2000/svg" height="400" width="600" version="1.1">
 <rect fill="#660066" height="400" width="600" y="0" x="0"/>
 <path fill="#ffffff" d="m306 80.21v60.09c30.66 3.081 54 28.89 54 59.7-0.0509 30.78-23.38 56.52-54 59.6v60.1c59.2-3 107.3-48.8 113.3-107.7h30.1l9.7-18h-19.4l1.6-3h19.4l9.7-18h-19.3l1.6-3h19.3l9.7-18h-71.8c-18.2-41.7-58.5-69.49-103.9-71.79zm-12 0.09c-45.42 2.28-85.65 30.04-103.9 71.7h-71.8l9.7 18h19.3l1.6 3h-19.3l9.7 18h19.4l1.6 3h-19.4l9.7 18h30c5.957 59.02 54.15 104.8 113.4 107.8v-60.1c-30.66-3.081-54-28.89-54-59.7 0.0509-30.78 23.38-56.52 54-59.6z"/>
</svg>
