<?xml version="1.0" encoding="UTF-8" standalone="no"?>
<!-- Created with Inkscape (http://www.inkscape.org/) -->

<svg
   xmlns:dc="http://purl.org/dc/elements/1.1/"
   xmlns:cc="http://creativecommons.org/ns#"
   xmlns:rdf="http://www.w3.org/1999/02/22-rdf-syntax-ns#"
   xmlns:svg="http://www.w3.org/2000/svg"
   xmlns="http://www.w3.org/2000/svg"
   xmlns:sodipodi="http://sodipodi.sourceforge.net/DTD/sodipodi-0.dtd"
   xmlns:inkscape="http://www.inkscape.org/namespaces/inkscape"
   version="1.1"
   id="svg2"
   width="324"
   height="216"
   viewBox="0 0 324 216"
   sodipodi:docname="Flag of Funabashi, Chiba.svg"
   inkscape:version="0.92.3 (2405546, 2018-03-11)">
  <metadata
     id="metadata8">
    <rdf:RDF>
      <cc:Work
         rdf:about="">
        <dc:format>image/svg+xml</dc:format>
        <dc:type
           rdf:resource="http://purl.org/dc/dcmitype/StillImage" />
        <dc:title></dc:title>
      </cc:Work>
    </rdf:RDF>
  </metadata>
  <defs
     id="defs6">
    <style
       id="style839"
       type="text/css">
   <![CDATA[
    .fil0 {fill:#00A2E8}
    .fil1 {fill:white}
   ]]>
  </style>
  </defs>
  <sodipodi:namedview
     pagecolor="#ffffff"
     bordercolor="#666666"
     borderopacity="1"
     objecttolerance="10"
     gridtolerance="10"
     guidetolerance="10"
     inkscape:pageopacity="0"
     inkscape:pageshadow="2"
     inkscape:window-width="1920"
     inkscape:window-height="1017"
     id="namedview4"
     showgrid="false"
     inkscape:zoom="3.842741"
     inkscape:cx="149.2705"
     inkscape:cy="108"
     inkscape:window-x="-8"
     inkscape:window-y="-8"
     inkscape:window-maximized="1"
     inkscape:current-layer="svg2" />
  <g
     id="g1364"
     transform="matrix(0.36,0,0,0.36,9.4653324e-6,2.3020934e-6)"
     style="stroke-width:2.77777767">
    <rect
       style="fill:#220055;fill-opacity:1;stroke:none;stroke-width:2.77777767"
       id="rect2402"
       y="1.335144e-005"
       x="0"
       height="600"
       width="900" />
    <g
       id="g2410"
       style="stroke-width:2.50950646"
       transform="matrix(1.1077552,0,0,1.1060493,-46.998216,-31.623507)">
      <path
         style="fill:none;stroke:#ffffff;stroke-width:16.18882751;stroke-linecap:round;stroke-miterlimit:4;stroke-dasharray:none"
         id="path2384"
         d="m 434.07163,470.95601 c -94.20182,-8.79245 -163.51957,-92.38202 -154.72711,-186.58384 8.79246,-94.20183 92.38202,-163.51957 186.58385,-154.72711 94.20182,8.79245 163.51956,92.38202 154.72711,186.58384 -7.76763,83.2219 -72.00175,147.26068 -155.24692,154.77483 m -31.27932,-27.76151 c -78.90381,-8.76066 -135.83158,-79.90863 -127.07093,-158.81244 8.76066,-78.90381 79.90863,-135.83159 158.81245,-127.07093 78.9038,8.76065 135.83158,79.90862 127.07093,158.81244 -7.52371,67.76304 -59.22203,119.49416 -126.98027,127.06084 m -31.3567,-26.99935 c -63.9946,-8.49819 -109.03516,-67.33293 -100.53697,-131.32753 8.4982,-63.99459 67.33293,-109.03516 131.32753,-100.53696 63.9946,8.49819 109.03516,67.33293 100.53697,131.32752 -7.04856,53.07829 -47.03422,93.22033 -100.08459,100.47599"
         inkscape:connector-curvature="0" />
      <path
         style="fill:none;stroke:#ffffff;stroke-width:21.77248001;stroke-linecap:round;stroke-miterlimit:4;stroke-dasharray:none"
         id="path2390"
         d="M 450.07347,383.62533 V 256.3461 m -59.04342,47.0226 h 117.37974 m -117.02618,59.39698 v -71.06424 m 117.37973,71.06424 V 291.70144 M 385.72675,255.99255 H 514.4202 m -80.61019,-37.12311 h 32.52693"
         inkscape:connector-curvature="0" />
    </g>
  </g>
</svg>
