<svg xmlns="http://www.w3.org/2000/svg" height="400" width="600" version="1.1">
 <rect height="400" width="600" y="0" x="0" fill="#ffffff"/>
 <path d="m361 89.84c-45.26 3.042-97.67 26.14-114.1 39.81-0.6704 0.5567-0.9908 1.433-0.9915 2.304 0.002 0.7935 0.2954 1.561 0.8348 2.142l31.05 33.51c0.3855 0.4159 1.119 0.7118 1.878 0.7525 0.7592 0.0408 1.495-0.4163 1.96-0.9401 23.01-25.93 50.01-51.63 80.76-72.06 1.064-0.7076 1.919-2.014 1.564-3.392-0.3554-1.377-1.577-2.212-2.897-2.123z" fill="#ff0000"/>
 <path fill="#4c4c4c" fill-rule="evenodd" d="m472.8 80.08c-79.8 14.5-146.4 75.12-190.8 130.5l102.7 108.4c0.7141 0.7538 1.505 1.061 2.377 0.9892 2.373-0.1953 3.255-2.351 2.586-4.224-35.97-100.6-8.122-187.9 85.2-230.1 1.366-0.6175 2.096-2.508 1.535-3.887-0.5608-1.379-1.761-1.981-3.65-1.703zm-253.5 64.55c-1.65 0.0108-3.02 1.279-2.989 2.881 1.067 54.79-40.39 101.5-90.73 126.8-1.999 1.008-2.338 2.35-1.971 3.705 0.3987 1.353 1.581 2.144 3.094 2.144 35.55 0.0205 71.11 0.007 106.6 0.007 11.52-18.57 27.94-43.5 48.75-69.55l-60.69-65.22c-0.5788-0.622-1.445-0.8317-2.102-0.827zm43.42 147.4-9.666 27.4h5.466l1.814-5.926h10.23l1.814 5.926h5.467l-9.666-27.4h-5.467zm2.733 4.758 3.771 12.32h-7.543l3.771-12.32zm-37.65-4.758v4.859h8.013v22.54h5.467v-22.54h8.013v-4.859zm-11.54 0.00004h5.467v27.4h-5.467zm-14.19 26.97c-0.6543 0-0.8871-0.5541-0.8871-2.659v-5.498c0-0.9642-0.4599-2.299-1.5-2.299h-7.192l-0.06 10.45h-5.467v-27h13.32c3.963 0 7.175 3.212 7.175 7.175s-3.212 7.175-7.175 7.175c3.939 0 6.256 1.325 6.395 3.82l0.3453 6.173c-0.006 1.2 0.4294 2.659 0.4294 2.659zm-9.58-14.85v-7.761h7.193c1.986 0 3.597 1.738 3.597 3.88 0 2.143-1.61 3.88-3.597 3.88zm-26.75-12.12-9.666 27.4h5.467l1.814-5.926h10.23l1.814 5.926h5.467l-9.666-27.4h-5.467zm2.733 4.758 3.771 12.32h-7.543l3.771-12.32zm-43.29-4.758v27.4h5.466v-22.64l10.49 22.64h8.832v-27.4h-5.467v22.64l-10.49-22.64h-8.832z"/>
</svg>
