<svg width="600" height="400" version="1.1" xmlns="http://www.w3.org/2000/svg">
 <rect width="600" height="400" fill="#4b64a1"/>
 <path d="m300 71.4a47.9 47.9 0 0 1-24.4 22.8 128.6 128.6 0 0 0-132.3 67.3l37.2 21.5a85.7 85.7 0 0 1 65.9-46.6 128.6 128.6 0 0 0 6.9 177.3l22.51-38.9a85.7 85.7 0 0 1 2.8-110.1v149h42.9v-149a85.7 85.7 0 0 1 2.8 110.1l22.5 38.9a128.6 128.6 0 0 0 6.9-177.3 85.7 85.7 0 0 1 65.9 46.6l37.2-21.5a128.6 128.6 0 0 0-132.3-67.3 47.9 47.9 0 0 1-24.4-22.8z" fill="#ffffff"/>
</svg>
