<?xml version="1.0" encoding="UTF-8" standalone="no"?>
<!-- Created with Inkscape (http://www.inkscape.org/) -->

<svg
   xmlns:dc="http://purl.org/dc/elements/1.1/"
   xmlns:cc="http://creativecommons.org/ns#"
   xmlns:rdf="http://www.w3.org/1999/02/22-rdf-syntax-ns#"
   xmlns:svg="http://www.w3.org/2000/svg"
   xmlns="http://www.w3.org/2000/svg"
   xmlns:sodipodi="http://sodipodi.sourceforge.net/DTD/sodipodi-0.dtd"
   xmlns:inkscape="http://www.inkscape.org/namespaces/inkscape"
   version="1.1"
   id="svg2"
   width="324"
   height="216"
   viewBox="0 0 324 216"
   sodipodi:docname="Flag of Abiko, Chiba.svg"
   inkscape:version="0.92.3 (2405546, 2018-03-11)">
  <metadata
     id="metadata8">
    <rdf:RDF>
      <cc:Work
         rdf:about="">
        <dc:format>image/svg+xml</dc:format>
        <dc:type
           rdf:resource="http://purl.org/dc/dcmitype/StillImage" />
        <dc:title></dc:title>
      </cc:Work>
    </rdf:RDF>
  </metadata>
  <defs
     id="defs6">
    <style
       id="style839"
       type="text/css">
   <![CDATA[
    .fil0 {fill:#00A2E8}
    .fil1 {fill:white}
   ]]>
  </style>
  </defs>
  <sodipodi:namedview
     pagecolor="#ffffff"
     bordercolor="#666666"
     borderopacity="1"
     objecttolerance="10"
     gridtolerance="10"
     guidetolerance="10"
     inkscape:pageopacity="0"
     inkscape:pageshadow="2"
     inkscape:window-width="1920"
     inkscape:window-height="1017"
     id="namedview4"
     showgrid="false"
     inkscape:zoom="2.7172282"
     inkscape:cx="234.6804"
     inkscape:cy="108"
     inkscape:window-x="-8"
     inkscape:window-y="-8"
     inkscape:window-maximized="1"
     inkscape:current-layer="svg2" />
  <g
     id="g1291"
     transform="matrix(0.35999997,0,0,0.36,9.4653324e-6,-1.6461182e-6)"
     style="stroke:none;stroke-width:2.77777791">
    <rect
       style="opacity:1;fill:#006633;fill-opacity:1;stroke:none;stroke-width:0;stroke-miterlimit:0;stroke-dasharray:none;stroke-opacity:1"
       id="rect2449"
       y="7.6293945e-006"
       x="-1.2934375e-013"
       height="600"
       width="900" />
    <path
       style="opacity:1;fill:#ffffff;fill-opacity:1;stroke:none;stroke-width:0;stroke-miterlimit:0;stroke-dasharray:none;stroke-opacity:1"
       id="path2384"
       d="m 450,119.5 c -99.636,0 -180.49999,80.864 -180.5,180.5 0,84.46101 58.10716,155.43438 136.5,175.09375 l 12.21875,-45.8125 c -37.60768,-14.37301 -64.34375,-50.798 -64.34375,-93.4375 10e-6,-55.2 44.8,-100 100,-100 55.20001,0 100,44.8 100,100 0,35.6031 -18.64121,66.87433 -46.6875,84.59375 4.51843,-15.99643 6.96875,-33.35256 6.96875,-51.5 0.36991,-16.80548 -1.03133,-33.39953 -5.875,-49.5 -7.05077,-23.16945 -28.5978,-40.03125 -54.0625,-40.03125 -31.188,0 -56.50001,25.312 -56.5,56.5 0,20.19256 10.61654,37.91492 26.5625,47.90625 7.98843,5.44018 16.80845,8.59375 24.96875,8.59375 0,43.89953 -31.07726,96.74999 -76.28125,96.75 -28.66123,0 -50.34376,-24.49999 -50.34375,-24.5 0,0 29.25761,48.65624 82.78125,48.65625 28.10316,0 52.85645,-12.45628 71.90506,-34.86671 l 0.71994,-0.13329 C 564.36612,464.82832 630.49999,390.09898 630.5,300 630.5,200.364 549.636,119.5 450,119.5 Z"
       inkscape:connector-curvature="0" />
  </g>
</svg>
