<?xml version="1.0" encoding="UTF-8" standalone="no"?>
<!-- Created with Inkscape (http://www.inkscape.org/) -->

<svg
   xmlns:dc="http://purl.org/dc/elements/1.1/"
   xmlns:cc="http://creativecommons.org/ns#"
   xmlns:rdf="http://www.w3.org/1999/02/22-rdf-syntax-ns#"
   xmlns:svg="http://www.w3.org/2000/svg"
   xmlns="http://www.w3.org/2000/svg"
   xmlns:sodipodi="http://sodipodi.sourceforge.net/DTD/sodipodi-0.dtd"
   xmlns:inkscape="http://www.inkscape.org/namespaces/inkscape"
   version="1.1"
   id="svg2"
   width="324"
   height="216"
   viewBox="0 0 324 216"
   sodipodi:docname="Flag of Sakura, Chiba.svg"
   inkscape:version="0.92.3 (2405546, 2018-03-11)">
  <metadata
     id="metadata8">
    <rdf:RDF>
      <cc:Work
         rdf:about="">
        <dc:format>image/svg+xml</dc:format>
        <dc:type
           rdf:resource="http://purl.org/dc/dcmitype/StillImage" />
        <dc:title></dc:title>
      </cc:Work>
    </rdf:RDF>
  </metadata>
  <defs
     id="defs6">
    <style
       id="style839"
       type="text/css"><![CDATA[
    .fil0 {fill:#00A2E8}
    .fil1 {fill:white}
   ]]></style>
  </defs>
  <sodipodi:namedview
     pagecolor="#ffffff"
     bordercolor="#666666"
     borderopacity="1"
     objecttolerance="10"
     gridtolerance="10"
     guidetolerance="10"
     inkscape:pageopacity="0"
     inkscape:pageshadow="2"
     inkscape:window-width="1920"
     inkscape:window-height="1017"
     id="namedview4"
     showgrid="false"
     inkscape:zoom="1.6286617"
     inkscape:cx="56.465934"
     inkscape:cy="112.57759"
     inkscape:window-x="-8"
     inkscape:window-y="-8"
     inkscape:window-maximized="1"
     inkscape:current-layer="svg2" />
  <g
     id="g2426"
     transform="matrix(0.36,0,0,0.36,9.4362085e-6,-1.5447553e-6)"
     style="stroke-width:2.77777767">
    <rect
       style="fill:#ffffff;stroke:none;stroke-width:2.77777791"
       id="rect2424"
       y="0"
       x="6.5164949e-007"
       height="600"
       width="900.00006" />
    <g
       id="g2412"
       style="stroke-width:2.77777767">
      <path
         style="fill:#3d117b;stroke:none;stroke-width:2.77777767"
         id="path2384"
         d="m 318.9375,203.75 c -9.61324,0.19459 -19.33534,2.48222 -28.8125,7.46875 -10.23594,6.07707 -11.71315,10.86794 -12.75,19.65625 0,11.868 9.632,21.5 21.5,21.5 11.66653,0 21.14937,-9.31644 21.46875,-20.90625 4.42968,-1.15545 7.125,-1.0625 7.125,-1.0625 29.80612,1.36045 66.9671,20.31309 72.59375,38.875 -4.3654,0.79962 -7.6875,4.62345 -7.6875,9.21875 0,5.175 4.1375,9.375 9.3125,9.375 5.175,0 9.375,-4.2 9.375,-9.375 0,0 -0.0312,-1.21875 -0.0312,-1.21875 0.67499,-23.93574 -42.88597,-73.13617 -90.1875,-73.53125 -0.63995,-0.005 -1.26537,-0.013 -1.90625,0 z"
         inkscape:connector-curvature="0" />
      <path
         style="fill:#3d117b;stroke:none;stroke-width:2.77777767"
         id="path2394"
         d="m 508.60293,151.72414 c -3.23851,-9.05341 -8.49622,-17.54512 -16.2352,-24.94716 -9.01407,-7.77508 -14.02604,-7.65377 -22.68847,-5.84497 -11.25319,3.77031 -17.32625,15.96328 -13.55595,27.21647 3.70631,11.06215 15.55268,17.09403 26.64356,13.71494 2.50285,3.83313 3.27098,6.41835 3.27098,6.41835 8.17903,28.69423 2.01378,69.95112 -13.79904,81.18316 -2.14503,-3.88523 -6.82615,-5.82045 -11.1834,-4.36058 -4.9069,1.64403 -7.5749,6.90147 -5.93087,11.80839 1.64403,4.90691 6.96074,7.55504 11.86764,5.91101 0,0 1.14569,-0.41681 1.14569,-0.41681 22.91021,-6.96404 55.7231,-63.89868 41.07065,-108.8753 -0.19823,-0.6085 -0.38969,-1.20394 -0.60559,-1.8075 z"
         inkscape:connector-curvature="0" />
      <path
         style="fill:#3d117b;stroke:none;stroke-width:2.77777767"
         id="path2398"
         d="m 494.15048,469.33085 c 7.91101,5.46516 17.13459,9.29637 27.73816,10.79524 11.85687,1.05819 15.85731,-1.96358 21.83875,-8.48522 6.94186,-9.62602 4.76343,-23.07239 -4.86259,-30.01426 -9.46259,-6.824 -22.60342,-4.81426 -29.6416,4.39931 -4.26873,-1.65384 -6.40049,-3.30579 -6.40049,-3.30579 -23.37968,-18.5377 -42.43475,-55.64626 -36.1412,-73.99279 4.00846,1.90485 8.93961,0.74655 11.6275,-2.98065 3.02697,-4.19738 2.12776,-10.02407 -2.06963,-13.05105 -4.19739,-3.02696 -10.06064,-2.07705 -13.08758,2.12033 0,0 -0.68754,1.0068 -0.68754,1.0068 -14.54803,19.0192 -7.9946,84.40492 30.14008,112.39308 0.51592,0.37866 1.01873,0.75067 1.54614,1.115 z"
         inkscape:connector-curvature="0" />
      <path
         style="fill:#3d117b;stroke:none;stroke-width:2.77777767"
         id="path2400"
         d="m 310.82891,400.38953 c -2.74774,9.21422 -3.53547,19.17073 -1.67823,29.71743 2.66425,11.60203 6.77598,14.47053 14.8289,18.1393 11.30212,3.62099 23.41363,-2.61294 27.03463,-13.91507 3.55952,-11.11024 -2.41942,-22.98343 -13.35916,-26.8237 0.25115,-4.57101 1.16203,-7.10944 1.16203,-7.10944 10.38961,-27.96984 39.77658,-57.57637 59.17016,-57.27138 -0.57041,4.40123 2.05751,8.73159 6.4337,10.13364 4.92824,1.57892 10.19035,-1.07985 11.76928,-6.0081 1.57891,-4.92825 -1.13939,-10.20943 -6.06762,-11.78833 0,0 -1.17018,-0.3421 -1.17018,-0.3421 -22.5885,-7.94575 -82.73368,18.52681 -97.54191,63.45239 -0.20035,0.60779 -0.39843,1.20107 -0.5816,1.81536 z"
         inkscape:connector-curvature="0" />
      <path
         style="fill:#3d117b;stroke:none;stroke-width:2.77777767"
         id="path2402"
         d="m 282.48173,315.33523 c -7.63039,-5.85057 -14.10882,-13.45208 -18.79133,-23.08307 -4.64802,-10.95906 -3.00067,-15.69413 1.36913,-23.38923 7.02927,-9.56235 20.49495,-11.61818 30.0573,-4.58893 9.40005,6.90995 11.5226,20.03303 4.91543,29.5604 2.88475,3.55464 5.11149,5.07614 5.11149,5.07614 24.82136,16.55765 65.98836,23.29702 81.51591,11.67379 -3.04372,-3.22985 -3.45562,-8.27845 -0.73389,-11.981 3.06509,-4.16964 8.8864,-5.10309 13.05603,-2.03801 4.16964,3.06509 5.06609,8.93675 2.00098,13.10639 0,0 -0.74702,0.96347 -0.74702,0.96347 -13.633,19.68544 -77.87202,33.52689 -116.21812,5.8291 -0.5188,-0.37472 -1.02722,-0.73901 -1.53591,-1.12905 z"
         inkscape:connector-curvature="0" />
      <path
         style="fill:#3d117b;stroke:none;stroke-width:2.77777767"
         id="path2404"
         d="m 391.81155,152.28931 c 3.24196,-9.05217 8.50294,-17.54187 16.24476,-24.94093 9.01703,-7.77163 14.02896,-7.64839 22.69072,-5.83628 11.25172,3.77463 17.3201,15.96994 13.5455,27.22167 -3.71054,11.06075 -15.55925,17.08807 -26.64881,13.70472 -2.50433,3.83218 -3.27344,6.4171 -3.27344,6.4171 -8.19004,28.6911 -2.04062,69.95034 13.7679,81.18846 2.14651,-3.88441 6.82838,-5.81784 11.18505,-4.35631 4.90629,1.64591 7.57226,6.90438 5.92636,11.81066 -1.64591,4.90629 -6.96363,7.55239 -11.86992,5.90646 0,0 -1.14553,-0.41724 -1.14553,-0.41724 -22.90752,-6.97284 -55.69857,-63.92005 -41.02888,-108.89105 0.19846,-0.60842 0.39016,-1.20378 0.60629,-1.80726 z"
         inkscape:connector-curvature="0" />
      <path
         style="fill:#3d117b;stroke:none;stroke-width:2.77777767"
         id="path2406"
         d="m 581.11246,204.14924 c 9.61283,0.21329 19.33048,2.51987 28.79789,7.52486 10.2241,6.09696 11.69197,10.8907 12.71172,19.68104 -0.0231,11.86796 -9.67387,21.48118 -21.54183,21.45808 -11.66653,-0.0227 -21.1312,-9.35762 -21.428,-20.94801 -4.42743,-1.16409 -7.12292,-1.07638 -7.12292,-1.07638 -29.80872,1.30241 -67.00654,20.18262 -72.66934,38.73356 4.36385,0.80811 7.6785,4.63841 7.66955,9.23368 -0.0101,5.175 -4.15575,9.36693 -9.33074,9.35686 -5.17499,-0.0101 -9.36681,-4.21824 -9.35671,-9.39325 0,0 0.0336,-1.21869 0.0336,-1.21869 -0.62837,-23.937 43.02832,-73.05249 90.33053,-73.35547 0.63995,-0.004 1.26538,-0.0105 1.90624,0.004 z"
         inkscape:connector-curvature="0" />
      <path
         style="fill:#3d117b;stroke:none;stroke-width:2.77777767"
         id="path2396"
         d="m 617.76084,315.70887 c 7.6384,-5.84011 14.12725,-13.4327 18.82299,-23.05725 4.66305,-10.95269 3.0222,-15.69001 -1.33703,-23.39108 -7.01615,-9.572 -20.47897,-11.64633 -30.05098,-4.63019 -9.4095,6.89704 -11.55008,20.01718 -4.95599,29.55362 -2.88963,3.55068 -5.11845,5.06912 -5.11845,5.06912 -24.84407,16.52357 -66.02028,23.20642 -81.53185,11.56188 3.04814,-3.22567 3.46697,-8.27369 0.75031,-11.97998 -3.05937,-4.17383 -8.87938,-5.11529 -13.05322,-2.05592 -4.17383,3.05936 -5.07833,8.92979 -2.01897,13.10361 0,0 0.74571,0.9645 0.74571,0.9645 13.60596,19.70415 77.82593,33.63377 116.21001,5.98864 0.51931,-0.37401 1.02824,-0.7376 1.53747,-1.12695 z"
         inkscape:connector-curvature="0" />
      <path
         style="fill:#3d117b;stroke:none;stroke-width:2.77777767"
         id="path2408"
         d="m 589.44237,400.25292 c 2.71423,9.22415 3.46573,19.18348 1.57014,29.72333 -2.7064,11.59226 -6.82854,14.44578 -14.89477,18.08527 -11.31519,3.57985 -23.40395,-2.6981 -26.98383,-14.01329 -3.51912,-11.12314 2.50299,-22.9745 13.45661,-26.77495 -0.23453,-4.5719 -1.13617,-7.11363 -1.13617,-7.11363 -10.28783,-28.00743 -39.56693,-57.72064 -58.96151,-57.48619 0.55442,4.40328 -2.08923,8.72407 -6.47047,10.11019 -4.93396,1.56101 -10.18637,-1.1169 -11.74737,-6.05085 -1.56099,-4.93395 1.17648,-10.20522 6.11046,-11.7662 0,0 1.17141,-0.33784 1.17141,-0.33784 22.61724,-7.86354 82.66574,18.82757 97.31051,63.8067 0.19814,0.60852 0.39404,1.20251 0.57499,1.81746 z"
         inkscape:connector-curvature="0" />
      <path
         style="fill:#3d117b;stroke:none;stroke-width:2.77777767"
         id="path2410"
         d="m 406.12438,469.40781 c -7.88001,5.50976 -17.08183,9.393 -27.67674,10.95171 -11.8507,1.12516 -15.86813,-1.87398 -21.88635,-8.36173 -6.99608,-9.58664 -4.89362,-23.04511 4.69301,-30.04122 9.42392,-6.87737 22.57589,-4.94185 29.66598,4.2318 4.25932,-1.67792 6.38173,-3.34188 6.38173,-3.34188 23.27459,-18.66946 42.11979,-55.88503 35.72272,-74.19575 -3.99764,1.92749 -8.93527,0.79705 -11.64415,-2.9149 -3.05065,-4.18022 -2.18435,-10.0119 1.99587,-13.06254 4.18022,-3.05062 10.04874,-2.13386 13.09937,2.04639 0,0 0.69321,1.00289 0.69321,1.00289 14.6552,18.93674 8.47116,84.35841 -29.50483,112.56152 -0.51377,0.38157 -1.01448,0.75639 -1.53982,1.12371 z"
         inkscape:connector-curvature="0" />
    </g>
  </g>
</svg>
