<?xml version="1.0" encoding="UTF-8" standalone="no"?>
<!-- Generator: Adobe Illustrator 18.0.0, SVG Export Plug-In . SVG Version: 6.00 Build 0)  -->

<svg
   xmlns:dc="http://purl.org/dc/elements/1.1/"
   xmlns:cc="http://creativecommons.org/ns#"
   xmlns:rdf="http://www.w3.org/1999/02/22-rdf-syntax-ns#"
   xmlns:svg="http://www.w3.org/2000/svg"
   xmlns="http://www.w3.org/2000/svg"
   xmlns:sodipodi="http://sodipodi.sourceforge.net/DTD/sodipodi-0.dtd"
   xmlns:inkscape="http://www.inkscape.org/namespaces/inkscape"
   version="1.1"
   x="0px"
   y="0px"
   viewBox="0 0 324 216"
   style="enable-background:new 0 0 324 216;"
   width="324"
   height="216"
   xml:space="preserve"
   id="svg34"
   sodipodi:docname="Flag of Urayasu, Chiba.svg"
   inkscape:version="0.92.3 (2405546, 2018-03-11)"><metadata
   id="metadata40"><rdf:RDF><cc:Work
       rdf:about=""><dc:format>image/svg+xml</dc:format><dc:type
         rdf:resource="http://purl.org/dc/dcmitype/StillImage" /><dc:title></dc:title></cc:Work></rdf:RDF></metadata><defs
   id="defs38"><style
     id="style1023"
     type="text/css">
   <![CDATA[
    .fil1 {fill:#FEFEFE}
    .fil0 {fill:#7092BF}
   ]]>
  </style><style
     id="style1066"
     type="text/css">
   <![CDATA[
    .fil0 {fill:#400000}
    .fil1 {fill:white}
   ]]>
  </style><style
     id="style2-3"
     type="text/css">
   <![CDATA[
    .fil1 {fill:#FEFEFE}
    .fil0 {fill:#018821}
   ]]>
  </style><path
     id="e2FACu9Ylf"
     d="M0 0L1000 0L1000 690L0 690L0 0Z" /><path
     id="a1saAh7sU9"
     d="M192.35 456.13C192.35 456.93 192.36 457.72 192.37 458.51C206.56 404.56 242.13 342.98 290.62 288.46C379.67 188.44 495.88 146.55 550.18 194.89C574.97 217.06 583.41 255.72 573.8 303.1C617.48 220.39 621.71 147.44 584.76 114.37C530.46 66.03 406.01 117.19 306.78 228.64C239.29 304.43 195.68 391.15 192.35 456.13Z" /><path
     id="a1Tbbvve3K"
     d="M292.89 327.57C227.05 401.52 181.99 483.9 174.69 543.68C167.39 603.46 198.95 631.56 257.48 617.39C269.77 614.36 283.01 609.52 296.94 602.97C293.49 603.91 290.12 604.68 286.83 605.26C246.22 612.19 222.55 591.11 224.74 549.98C226.93 508.84 254.63 453.89 297.43 405.83C352.39 344.17 420.82 306.71 467.93 312.49C444.26 370.44 444.01 419.02 467.23 445.21C509.06 491.95 614.03 455.42 706.55 361.93C706.61 361.98 707.06 362.38 707.11 362.43C772.95 288.49 818.01 206.11 825.31 146.33C832.61 86.55 801.05 58.45 742.52 72.62C730.23 75.65 716.99 80.49 703.06 87.04C706.51 86.1 709.88 85.33 713.17 84.75C753.78 77.82 777.45 98.89 775.26 140.03C773.07 181.17 745.37 236.12 702.57 284.18C647.61 345.84 579.18 383.3 532.07 377.52C555.74 319.57 555.99 270.98 532.77 244.8C490.94 198.06 385.97 234.59 293.45 328.07C293.34 327.97 293 327.67 292.89 327.57Z" /><path
     id="a15x9jlPKO"
     d="M807.64 233.9C807.64 233.11 807.63 232.31 807.62 231.52C793.43 285.48 757.85 347.06 709.37 401.57C620.32 501.59 504.11 543.49 449.81 495.14C425.02 472.97 416.58 434.31 426.19 386.94C382.51 469.65 378.28 542.6 415.23 575.66C469.52 624 593.98 572.84 693.21 461.39C760.69 385.6 804.31 298.88 807.64 233.9Z" /><style
     id="style1747"
     type="text/css">
   <![CDATA[
    .fil1 {fill:#FEFEFE}
    .fil0 {fill:#A349A3}
   ]]>
  </style></defs><sodipodi:namedview
   pagecolor="#ffffff"
   bordercolor="#666666"
   borderopacity="1"
   objecttolerance="10"
   gridtolerance="10"
   guidetolerance="10"
   inkscape:pageopacity="0"
   inkscape:pageshadow="2"
   inkscape:window-width="1920"
   inkscape:window-height="1017"
   id="namedview36"
   showgrid="false"
   inkscape:zoom="1.654952"
   inkscape:cx="116.88671"
   inkscape:cy="133.10146"
   inkscape:window-x="-8"
   inkscape:window-y="-8"
   inkscape:window-maximized="1"
   inkscape:current-layer="svg34" />
<style
   type="text/css"
   id="style2">
	.st0{fill:#606;}
	.st1{fill:#fff;}
</style>


<style
   id="style847"
   type="text/css">
	.st0{fill:#000040;}
	.st1{fill:#fff;}
</style><style
   id="style865"
   type="text/css">
	.st0{fill:#3F47CD;}
	.st1{fill:#fff;}
	.st2{fill:none;stroke:#fff;stroke-width:10;}
</style><style
   id="style914"
   type="text/css">
	.st0{fill:#004101;}
	.st1{fill:#fff;}
</style><style
   id="style1245"
   type="text/css">
	.st0{fill:#400040;}
	.st1{fill:#fff;}
</style><style
   id="style1328"
   type="text/css">
	.st0{fill:#fff;}
	.st1{fill:#F35911;}
	.st2{fill:#008143;}
	.st3{fill:#0066AC;}
</style><style
   id="style1432"
   type="text/css">
	.st0{fill:#004080;}
	.st1{fill:#fff;}
</style><style
   id="style1470"
   type="text/css">
	.st0{fill:#23B14D;}
	.st1{fill:#fff;}
	.st2{fill:#F01630;}
</style><style
   id="style1541"
   type="text/css">
	.st0{fill:#3F47CD;}
	.st1{fill:#fff;}
</style><style
   id="style1614"
   type="text/css">
	.st0{fill:#800080;}
	.st1{fill:none;stroke:#fff;stroke-width:3;}
	.st2{fill:#fff;}
</style><style
   id="style1691"
   type="text/css">
	.st0{fill:#880015;}
	.st1{fill:#FFFFFF;}
</style><style
   id="style894"
   type="text/css">
	.st0{fill:#fff;}
	.st1{fill:#447550;}
	.st2{fill:#FCB931;stroke:#DBA12B;stroke-width:0.5;}
</style><g
   id="g1060"
   transform="translate(-1.105957e-5,1.518158e-6)"
   style="stroke:none"><rect
     style="fill:#ffffff;fill-opacity:1;fill-rule:nonzero;stroke:none"
     id="rect3049"
     y="0"
     x="-1.5676878e-013"
     height="216.00003"
     width="324.00003" /><g
     id="g3045"
     transform="matrix(0.69653547,0,0,0.70981619,232.10017,33.008816)"
     style="stroke:none;stroke-width:1.00032818"><path
       style="fill:#0060a7;stroke:none;stroke-width:1.00032818"
       id="path3013"
       d="m -223.9375,69.09375 a 132.50787,93.810883 0 0 0 -2.40625,4.6875 h 73.625 A 63.322346,63.322346 0 0 1 -149,69.09375 Z m 169.15625,0 a 63.322346,63.322346 0 0 1 3.8125,4.6875 h 73.625 A 132.50787,93.810883 0 0 0 20.25,69.09375 Z m -173.875,9.375 a 132.50787,93.810883 0 0 0 -3.28125,9.375 h 71.3125 a 63.322346,63.322346 0 0 1 4.75,-9.375 z m 180.8125,0 a 63.322346,63.322346 0 0 1 4.65625,9.375 h 71.375 a 132.50787,93.810883 0 0 0 -3.21875,-9.375 z m -185.09375,14.0625 a 132.50787,93.810883 0 0 0 -1.46875,12.90625 h 69.46875 a 63.322346,63.322346 0 0 1 2.59375,-12.90625 z m 191.40625,0 a 63.322346,63.322346 0 0 1 2.59375,12.90625 H 30.625 A 132.50787,93.810883 0 0 0 29.21875,92.53125 Z M -234.0625,110.125 A 132.50787,93.810883 0 0 0 -101.90625,199.25 132.50787,93.810883 0 0 0 30.375,110.125 h -68.96875 a 63.322346,63.322346 0 0 1 0.03125,1.1875 63.322346,63.322346 0 0 1 -63.34375,63.3125 63.322346,63.322346 0 0 1 -63.3125,-63.3125 63.322346,63.322346 0 0 1 0.0625,-1.1875 z"
       inkscape:connector-curvature="0" /><circle
       style="fill:#00a062;stroke:none;stroke-width:1.00032818"
       id="circle3019"
       transform="matrix(0.58631802,0,0,0.58631802,-101.894,58.530036)"
       r="64"
       cy="-16"
       cx="0" /></g></g></svg>