<?xml version="1.0" encoding="UTF-8" standalone="no"?>
<!-- Created with Inkscape (http://www.inkscape.org/) -->

<svg
   xmlns:dc="http://purl.org/dc/elements/1.1/"
   xmlns:cc="http://creativecommons.org/ns#"
   xmlns:rdf="http://www.w3.org/1999/02/22-rdf-syntax-ns#"
   xmlns:svg="http://www.w3.org/2000/svg"
   xmlns="http://www.w3.org/2000/svg"
   xmlns:sodipodi="http://sodipodi.sourceforge.net/DTD/sodipodi-0.dtd"
   xmlns:inkscape="http://www.inkscape.org/namespaces/inkscape"
   width="900"
   height="598.33795"
   id="svg2"
   version="1.1"
   inkscape:version="0.48.4 r9939"
   sodipodi:docname="Flag of Tomisato Chiba.svg">
  <defs
     id="defs4" />
  <sodipodi:namedview
     id="base"
     pagecolor="#ffffff"
     bordercolor="#666666"
     borderopacity="1.0"
     inkscape:pageopacity="0.0"
     inkscape:pageshadow="2"
     inkscape:zoom="1.2417731"
     inkscape:cx="315.11224"
     inkscape:cy="299.16898"
     inkscape:document-units="px"
     inkscape:current-layer="layer1"
     showgrid="false"
     inkscape:window-width="1280"
     inkscape:window-height="961"
     inkscape:window-x="-4"
     inkscape:window-y="-4"
     inkscape:window-maximized="1"
     inkscape:object-paths="false"
     fit-margin-top="0"
     fit-margin-left="0"
     fit-margin-right="0"
     fit-margin-bottom="0" />
  <metadata
     id="metadata7">
    <rdf:RDF>
      <cc:Work
         rdf:about="">
        <dc:format>image/svg+xml</dc:format>
        <dc:type
           rdf:resource="http://purl.org/dc/dcmitype/StillImage" />
        <dc:title />
      </cc:Work>
    </rdf:RDF>
  </metadata>
  <g
     inkscape:label="レイヤー 1"
     inkscape:groupmode="layer"
     id="layer1"
     transform="translate(239.86986,-244.67341)">
    <rect
       style="fill:#089f77;fill-opacity:1;fill-rule:evenodd;stroke:none"
       id="rect3001"
       width="900"
       height="598.33795"
       x="-239.86986"
       y="244.6734" />
    <g
       id="g3829"
       transform="matrix(0.78135069,0,0,0.78135069,-79.850411,111.51024)"
       style="fill:#f9f9f9">
      <path
         inkscape:connector-curvature="0"
         id="path3002"
         d="m 335.90625,530.4375 c -3.33363,9.01977 -12.42074,15.12028 -18.16824,22.90483 C 290.67951,583.95738 263.621,614.57244 236.5625,645.1875 355.875,639.98958 475.1875,634.79167 594.5,629.59375 534.54302,614.93208 474.59378,600.23789 414.625,585.625 c 35.20376,-87.07055 70.39486,-174.14623 105.59375,-261.21875 -42.97936,48.59358 -85.9474,97.19719 -128.9375,145.78125 -33.9593,-52.0795 -67.87799,-104.18556 -101.8125,-156.28125 15.47917,72.17708 30.95833,144.35417 46.4375,216.53125 z"
         style="fill:#f9f9f9;fill-opacity:1;stroke:none" />
      <path
         id="path3808"
         d="m 451.625,396.59375 15.0625,-17.03125 c -24.44077,-12.05447 -51.84288,-19 -80.9375,-19 -19.70393,0 -38.64741,3.18809 -56.4375,8.9375 l 12.5,19.15625 c 13.98655,-3.95131 28.68649,-6.1875 43.9375,-6.1875 23.48643,0 45.74188,5.10913 65.875,14.125 z"
         style="fill:#f9f9f9;fill-opacity:1;fill-rule:evenodd;stroke:none"
         inkscape:connector-curvature="0" />
      <path
         id="path3804"
         d="m 532.40625,611.46875 21.75,5.3125 c 9.65648,-22.3167 15.0625,-46.88654 15.0625,-72.75 0,-60.25471 -29.17602,-113.55211 -74.03125,-147 l -8.5,21 c 36.90305,29.61209 60.59375,75.00717 60.59375,126 0,24.10267 -5.4111,46.89435 -14.875,67.4375 z"
         style="fill:#f9f9f9;fill-opacity:1;fill-rule:evenodd;stroke:none"
         inkscape:connector-curvature="0" />
      <path
         id="path3800"
         d="m 263.21875,649.125 -26.84375,1.1875 c 33.26259,46.66781 87.7,77.1875 149.375,77.1875 67.40222,0 126.1379,-36.46212 158.03125,-90.625 l -26.84375,1.15625 c -29.31375,40.83557 -77.08125,67.53125 -131.1875,67.53125 -49.04558,0 -92.90719,-21.93348 -122.53125,-56.4375 z"
         style="fill:#f9f9f9;fill-opacity:1;fill-rule:evenodd;stroke:none"
         inkscape:connector-curvature="0" />
      <path
         id="path3796"
         d="m 299.34375,382.21875 c -57.74195,30.90214 -97.0625,91.74297 -97.0625,161.8125 0,37.13566 11.12649,71.64842 30.09375,100.53125 l 15.1875,-17.1875 c -14.72038,-24.35356 -23.34375,-52.80961 -23.34375,-83.34375 0,-59.42259 32.17925,-111.21846 79.96875,-139.28125 l -4.84375,-22.53125 z"
         style="fill:#f9f9f9;fill-opacity:1;fill-rule:evenodd;stroke:none"
         inkscape:connector-curvature="0" />
    </g>
  </g>
</svg>
