<?xml version="1.0" encoding="UTF-8" standalone="no"?>
<!-- Created with Inkscape (http://www.inkscape.org/) -->

<svg
   xmlns:dc="http://purl.org/dc/elements/1.1/"
   xmlns:cc="http://creativecommons.org/ns#"
   xmlns:rdf="http://www.w3.org/1999/02/22-rdf-syntax-ns#"
   xmlns:svg="http://www.w3.org/2000/svg"
   xmlns="http://www.w3.org/2000/svg"
   xmlns:sodipodi="http://sodipodi.sourceforge.net/DTD/sodipodi-0.dtd"
   xmlns:inkscape="http://www.inkscape.org/namespaces/inkscape"
   version="1.1"
   id="svg2"
   width="324"
   height="216"
   viewBox="0 0 324 216"
   sodipodi:docname="Flag of Choshi, Chiba.svg"
   inkscape:version="0.92.3 (2405546, 2018-03-11)">
  <metadata
     id="metadata8">
    <rdf:RDF>
      <cc:Work
         rdf:about="">
        <dc:format>image/svg+xml</dc:format>
        <dc:type
           rdf:resource="http://purl.org/dc/dcmitype/StillImage" />
        <dc:title></dc:title>
      </cc:Work>
    </rdf:RDF>
  </metadata>
  <defs
     id="defs6">
    <style
       id="style839"
       type="text/css">
   <![CDATA[
    .fil0 {fill:#00A2E8}
    .fil1 {fill:white}
   ]]>
  </style>
  </defs>
  <sodipodi:namedview
     pagecolor="#ffffff"
     bordercolor="#666666"
     borderopacity="1"
     objecttolerance="10"
     gridtolerance="10"
     guidetolerance="10"
     inkscape:pageopacity="0"
     inkscape:pageshadow="2"
     inkscape:window-width="1920"
     inkscape:window-height="1017"
     id="namedview4"
     showgrid="false"
     inkscape:zoom="1.9213705"
     inkscape:cx="149.2705"
     inkscape:cy="108"
     inkscape:window-x="-8"
     inkscape:window-y="-8"
     inkscape:window-maximized="1"
     inkscape:current-layer="svg2" />
  <g
     id="g1314"
     transform="matrix(0.35999997,0,0,0.36,9.4653324e-6,-1.6461182e-6)"
     style="stroke:none;stroke-width:2.77777791">
    <rect
       style="fill:#440055;fill-opacity:1;stroke:none;stroke-width:2.77777791"
       id="rect2471"
       y="1.0967255e-005"
       x="-1.2934375e-013"
       height="600"
       width="900" />
    <path
       style="fill:#ffffff;stroke:none;stroke-width:2.77777791"
       id="path2422"
       d="m 450,119.1875 c -49.16809,0 -93.76973,19.65128 -126.375,51.53125 L 341.90625,189 c 24.47492,-23.83936 56.76956,-39.6691 92.6875,-43.21875 -0.40021,35.79706 -14.26041,68.38926 -36.75,92.9375 C 411.89868,226.73935 430.0992,219.5 450,219.5 c 20.4725,0 39.1647,7.64806 53.375,20.25 -23.06531,-24.66727 -37.34498,-57.6549 -37.75,-93.96875 35.8221,3.59051 68.04599,19.40135 92.46875,43.1875 l 18.25,-18.25 C 543.73988,138.84799 499.16006,119.1875 450,119.1875 Z m 129.3125,54.46875 -18.28125,18.28125 c 23.72817,24.38015 39.53073,56.51504 43.15625,92.25 -36.3006,-0.36725 -69.31547,-14.57728 -94,-37.59375 C 522.81482,260.80995 530.5,279.50441 530.5,300 c 0,20.00397 -7.31535,38.2907 -19.40625,52.375 24.59109,-22.52884 57.25426,-36.39614 93.125,-36.75 -3.58973,35.81426 -19.37875,68.04488 -43.15625,92.46875 l 18.25,18.25 c 31.86184,-32.6025 51.50001,-77.19149 51.5,-126.34375 0,-49.15226 -19.63816,-93.74125 -51.5,-126.34375 z m -258.65625,0.0312 C 288.81254,206.28722 269.1875,250.86357 269.1875,300 c 0,49.17588 19.6736,93.76837 51.5625,126.375 L 339,408.125 c -23.80022,-24.42346 -39.62705,-56.66605 -43.21875,-92.5 35.48206,0.29477 67.81711,13.82648 92.34375,35.875 C 376.48565,337.5389 369.5,319.58397 369.5,300 c 0,-19.90928 7.23021,-38.13014 19.21875,-52.1875 -24.58566,22.34713 -57.16184,36.06831 -92.90625,36.375 3.62413,-35.72134 19.41106,-67.84719 43.125,-92.21875 z M 450,234.5 c -36.156,0 -65.5,29.344 -65.5,65.5 0,36.156 29.344,65.5 65.5,65.5 36.156,0 65.5,-29.344 65.5,-65.5 0,-36.156 -29.344,-65.5 -65.5,-65.5 z m 52.375,126.59375 C 488.2907,373.18465 470.00397,380.5 450,380.5 c -19.52814,0 -37.43099,-6.95145 -51.375,-18.53125 22.06439,24.48987 35.6197,56.79833 35.96875,92.25 -35.87425,-3.54533 -68.15775,-19.33407 -92.625,-43.125 l -18.25,18.25 C 356.31705,461.17826 400.8716,480.8125 450,480.8125 c 49.15226,0 93.74125,-19.63816 126.34375,-51.5 l -18.25,-18.25 c -24.42387,23.7775 -56.65449,39.56652 -92.46875,43.15625 0.35386,-35.87075 14.22116,-68.53391 36.75,-93.125 z"
       inkscape:connector-curvature="0" />
  </g>
</svg>
