<?xml version="1.0" encoding="UTF-8" standalone="no"?>
<!-- Created with Inkscape (http://www.inkscape.org/) -->

<svg
   xmlns:dc="http://purl.org/dc/elements/1.1/"
   xmlns:cc="http://creativecommons.org/ns#"
   xmlns:rdf="http://www.w3.org/1999/02/22-rdf-syntax-ns#"
   xmlns:svg="http://www.w3.org/2000/svg"
   xmlns="http://www.w3.org/2000/svg"
   xmlns:sodipodi="http://sodipodi.sourceforge.net/DTD/sodipodi-0.dtd"
   xmlns:inkscape="http://www.inkscape.org/namespaces/inkscape"
   version="1.1"
   id="svg2"
   width="324"
   height="216"
   viewBox="0 0 324 216"
   sodipodi:docname="Flag of Tateyama, Chiba.svg"
   inkscape:version="0.92.3 (2405546, 2018-03-11)">
  <metadata
     id="metadata8">
    <rdf:RDF>
      <cc:Work
         rdf:about="">
        <dc:format>image/svg+xml</dc:format>
        <dc:type
           rdf:resource="http://purl.org/dc/dcmitype/StillImage" />
        <dc:title></dc:title>
      </cc:Work>
    </rdf:RDF>
  </metadata>
  <defs
     id="defs6">
    <style
       id="style839"
       type="text/css"><![CDATA[
    .fil0 {fill:#00A2E8}
    .fil1 {fill:white}
   ]]></style>
  </defs>
  <sodipodi:namedview
     pagecolor="#ffffff"
     bordercolor="#666666"
     borderopacity="1"
     objecttolerance="10"
     gridtolerance="10"
     guidetolerance="10"
     inkscape:pageopacity="0"
     inkscape:pageshadow="2"
     inkscape:window-width="1920"
     inkscape:window-height="1017"
     id="namedview4"
     showgrid="false"
     inkscape:zoom="1.6286617"
     inkscape:cx="56.465934"
     inkscape:cy="112.57759"
     inkscape:window-x="-8"
     inkscape:window-y="-8"
     inkscape:window-maximized="1"
     inkscape:current-layer="svg2" />
  <g
     id="g1268"
     transform="matrix(0.36000003,0,0,0.36,9.6708027e-6,-1.5447554e-6)"
     style="stroke-width:2.77777767">
    <rect
       style="fill:#ffffff;stroke:none;stroke-width:2.77777767"
       id="rect2428"
       y="1.5006663e-013"
       x="-1.5857452e-013"
       height="600"
       width="900" />
    <path
       style="fill:#000099;fill-opacity:1;stroke:none;stroke-width:2.77777767"
       id="path2387"
       d="M 435.92384,120.625 C 344.01031,128.25459 271.70556,205.69067 271.70556,300 c 0,96.67732 75.98845,175.61949 171.18512,179.8125 v -15.5 C 358.83371,460.26439 291.33113,392.43017 287.31874,307.96875 h 21.92687 c 3.96735,72.31749 61.67505,130.27743 133.64507,134.28125 v -15 C 379.17078,423.28024 328.13987,371.99691 324.20565,307.96875 h 19.1277 V 292 h -19.1277 c 3.80862,-61.65525 51.29743,-111.49589 111.71819,-118.625 v -4.53125 -10.53125 -22.125 -5.9375 z m 29.85788,0 v 15.5625 c 83.38527,7.58523 148.79172,78.06524 148.79172,163.8125 0,88.13469 -69.0914,160.15454 -155.78966,164.3125 v 15.5 C 553.99503,475.63535 630,396.68787 630,300 630,205.69067 557.69525,128.25459 465.78172,120.625 Z m -45.75097,17.8125 v 22.5 C 359.05864,174.534 312.79866,227.55172 309.24561,292 h -21.92687 c 3.65451,-76.63016 59.58874,-139.54494 132.71201,-153.5625 z m 45.75097,19.875 v 15.0625 c 60.42076,7.12911 107.90957,56.96975 111.71819,118.625 h -19.1588 v 15.96875 h 19.1588 C 573.56505,372.00729 522.51812,423.29494 458.78378,427.25 v 15.03125 C 533.39226,438.14915 592.67766,375.9901 592.67766,300 c 0,-73.59363 -55.61798,-134.18376 -126.89594,-141.6875 z M 442.89068,208.125 V 376.0625 C 404.60354,372.05548 374.71521,339.52403 374.71521,300 c 0,-37.09171 26.32496,-68.01888 61.20863,-75 v -15.78125 c -43.4495,7.16977 -76.6352,45.10563 -76.6352,90.78125 0,50.784 41.02074,92 91.56414,92 50.5434,0 91.56414,-41.216 91.56414,-92 0,-45.67562 -33.1857,-83.61148 -76.6352,-90.78125 V 225 c 34.88367,6.98112 61.20863,37.90829 61.20863,75 0,39.5346 -29.9047,72.06969 -68.20657,76.0625 V 208.125 Z"
       inkscape:connector-curvature="0" />
  </g>
</svg>
