<?xml version="1.0" encoding="UTF-8" standalone="no"?>
<!-- Created with Inkscape (http://www.inkscape.org/) -->

<svg
   xmlns:dc="http://purl.org/dc/elements/1.1/"
   xmlns:cc="http://creativecommons.org/ns#"
   xmlns:rdf="http://www.w3.org/1999/02/22-rdf-syntax-ns#"
   xmlns:svg="http://www.w3.org/2000/svg"
   xmlns="http://www.w3.org/2000/svg"
   xmlns:sodipodi="http://sodipodi.sourceforge.net/DTD/sodipodi-0.dtd"
   xmlns:inkscape="http://www.inkscape.org/namespaces/inkscape"
   version="1.1"
   id="svg2"
   width="324"
   height="216"
   viewBox="0 0 324 216"
   sodipodi:docname="Flag of Matsudo, Chiba.svg"
   inkscape:version="0.92.3 (2405546, 2018-03-11)">
  <metadata
     id="metadata8">
    <rdf:RDF>
      <cc:Work
         rdf:about="">
        <dc:format>image/svg+xml</dc:format>
        <dc:type
           rdf:resource="http://purl.org/dc/dcmitype/StillImage" />
        <dc:title></dc:title>
      </cc:Work>
    </rdf:RDF>
  </metadata>
  <defs
     id="defs6">
    <style
       id="style839"
       type="text/css"><![CDATA[
    .fil0 {fill:#00A2E8}
    .fil1 {fill:white}
   ]]></style>
  </defs>
  <sodipodi:namedview
     pagecolor="#ffffff"
     bordercolor="#666666"
     borderopacity="1"
     objecttolerance="10"
     gridtolerance="10"
     guidetolerance="10"
     inkscape:pageopacity="0"
     inkscape:pageshadow="2"
     inkscape:window-width="1920"
     inkscape:window-height="1017"
     id="namedview4"
     showgrid="false"
     inkscape:zoom="1.6286617"
     inkscape:cx="272.39865"
     inkscape:cy="112.57759"
     inkscape:window-x="-8"
     inkscape:window-y="-8"
     inkscape:window-maximized="1"
     inkscape:current-layer="svg2" />
  <g
     id="g1179"
     transform="matrix(0.36,0,0,0.36,9.4362085e-6,-1.5447554e-6)"
     style="stroke-width:2.77777767">
    <rect
       style="fill:#006633;fill-opacity:1;stroke:none;stroke-width:2.77777767"
       id="rect2464"
       y="9.9475983e-014"
       x="1.1368684e-013"
       height="600"
       width="900" />
    <path
       style="fill:#ffffff;stroke:none;stroke-width:2.77777767"
       id="path2386"
       d="M 440.90625,101.8125 C 430.38154,114.28141 415.011,122.75569 401.0625,126 337.16568,143.97213 287.23034,196.29995 273.21875,262.3125 265.67477,277.81758 253.96689,290.96818 239.5,300.25 c 14.50898,9.30849 26.31391,22.53321 33.875,38.21875 14.35975,66.13008 65.04928,119.17674 130.65625,136.375 14.77276,4.0848 26.36806,12.2474 37.1875,23.8125 l 4.1875,-3.28125 c -10.16202,-12.4545 -24.45379,-21.28491 -39.875,-26.1875 l 4.28125,-16.09375 C 354.99755,438.74048 312.04745,395.81346 297.28125,341.625 l 29.46875,-8 c 11.93362,43.74617 46.61207,78.39924 90.875,89.96875 l 16.46875,-62.125 c -28.07958,-7.24707 -48.46025,-33.14541 -47.5625,-63.34375 0.85435,-28.73808 20.71091,-52.46686 47.15625,-59.5 l -16.59375,-62.09375 c -43.82886,11.67933 -78.63207,46.17892 -90.46875,90.3125 l -29.46875,-8 c 14.68058,-54.60961 57.78794,-97.27192 112.03125,-111.75 L 405.03125,131.5 c 15.61119,-4.86961 29.79116,-13.81777 40.0625,-26.40625 z m 18.3125,0 -4.34375,3.125 c 10.07949,12.367 24.02358,21.41896 39.84375,25.9375 l -4.28125,16.09375 c 54.95897,14.48104 97.93459,57.70691 112.46875,112.21875 L 573.5,267.125 c -11.71035,-44.05781 -46.46133,-78.96357 -90.875,-90.65625 l -16.46875,62.125 c 27.85245,7.31008 48.06414,32.99225 47.3125,63 v 0.28125 c -0.85733,28.83901 -20.85699,52.62608 -47.4375,59.5625 l 16.625,62.0625 c 43.8912,-11.59625 78.7849,-46.02625 90.6875,-90.15625 l 29.4375,7.9375 C 588.04569,395.92221 544.88563,438.6029 490.5625,453 l 4.28125,16 c -15.95193,4.50926 -29.81045,13.88005 -39.96875,26.34375 l 4.34375,3.125 c 9.72184,-11.2031 22.91129,-20.01849 37.15625,-23.75 1.07807,-0.31963 2.1659,-0.61058 3.25,-0.90625 63.75792,-18.19936 113.48575,-70.63624 127.28125,-136.6875 7.57927,-15.09072 19.09941,-27.83654 33.1875,-36.875 -14.01725,-8.99333 -25.44036,-21.62042 -33,-36.5 C 613.63311,197.72429 564.0619,144.4482 499.40625,126.125 l -3.21875,-0.6875 c -14.03959,-3.47184 -27.27037,-12.44893 -36.96875,-23.625 z"
       inkscape:connector-curvature="0" />
  </g>
</svg>
