<?xml version="1.0" encoding="UTF-8" standalone="no"?>
<!-- Created with Inkscape (http://www.inkscape.org/) -->

<svg
   xmlns:dc="http://purl.org/dc/elements/1.1/"
   xmlns:cc="http://creativecommons.org/ns#"
   xmlns:rdf="http://www.w3.org/1999/02/22-rdf-syntax-ns#"
   xmlns:svg="http://www.w3.org/2000/svg"
   xmlns="http://www.w3.org/2000/svg"
   xmlns:sodipodi="http://sodipodi.sourceforge.net/DTD/sodipodi-0.dtd"
   xmlns:inkscape="http://www.inkscape.org/namespaces/inkscape"
   version="1.1"
   id="svg2"
   width="334"
   height="215"
   viewBox="0 0 334 215"
   sodipodi:docname="Flag_of_Chosei,_Chiba.svg"
   inkscape:version="0.92.3 (2405546, 2018-03-11)">
  <metadata
     id="metadata8">
    <rdf:RDF>
      <cc:Work
         rdf:about="">
        <dc:format>image/svg+xml</dc:format>
        <dc:type
           rdf:resource="http://purl.org/dc/dcmitype/StillImage" />
        <dc:title></dc:title>
      </cc:Work>
    </rdf:RDF>
  </metadata>
  <defs
     id="defs6" />
  <sodipodi:namedview
     pagecolor="#ffffff"
     bordercolor="#666666"
     borderopacity="1"
     objecttolerance="10"
     gridtolerance="10"
     guidetolerance="10"
     inkscape:pageopacity="0"
     inkscape:pageshadow="2"
     inkscape:window-width="1920"
     inkscape:window-height="1017"
     id="namedview4"
     showgrid="false"
     inkscape:zoom="1.8638445"
     inkscape:cx="53.7575"
     inkscape:cy="107.5"
     inkscape:window-x="-8"
     inkscape:window-y="-8"
     inkscape:window-maximized="1"
     inkscape:current-layer="svg2" />
  <g
     style="display:inline;opacity:1;stroke:none;stroke-width:1.00690496"
     inkscape:label="svg"
     id="layer2"
     transform="matrix(0.99091942,0,0,0.99537036,0.6527785,-0.1661418)">
    <rect
       y="0.16691455"
       x="-0.65876043"
       height="216"
       width="337.0607"
       id="rect12030"
       style="fill:#006600;fill-opacity:1;stroke:none;stroke-width:0.10969122" />
    <path
       id="path19730"
       d="m 87.280947,105.09628 76.855473,-57.339836 0.23803,24.804194 -23.86485,17.67767 h 9.98788 l 15.64474,-12.993087 15.46796,13.081475 9.89949,-0.08839 -23.42291,-17.766058 -0.26516,-24.660349 77.60497,57.187261 h -68.67775 l -0.0884,4.5078 69.0313,-0.0884 -79.72629,59.75053 -79.284351,-59.39697 67.882261,-0.17678 v 18.56155 l -7.07107,0.0884 18.64994,13.52342 18.56155,-13.34664 -26.95844,-0.0884 -0.0884,-23.06936 z"
       style="fill:#ffffff;fill-opacity:1;stroke:none;stroke-width:1.00690496px;stroke-linecap:butt;stroke-linejoin:miter;stroke-opacity:1"
       inkscape:connector-curvature="0" />
    <path
       sodipodi:nodetypes="cccccccccccccccccccccccc"
       id="path19730-4"
       d="m 97.536862,102.12956 64.121678,-47.731471 -0.10909,15.93882 -30.51404,23.51553 20.23183,0.0818 14.66804,-11.99663 14.03211,12.10956 20.96055,-0.31814 -30.14328,-23.11686 -0.2266,-16.05674 63.63721,47.256281 -60.3826,0.28107 -0.0131,11.51039 60.30976,0.19854 -68.32519,50.07137 -68.025155,-50.10982 53.861005,-0.14819 -0.17677,10.92743 -15.58921,0.0281 30.61156,22.21103 29.56372,-21.70471 -35.59105,0.14209 -0.0675,-23.10007 z"
       style="display:inline;opacity:0.59934902;fill:#feff00;fill-opacity:1;stroke:none;stroke-width:0.89152473px;stroke-linecap:butt;stroke-linejoin:miter;stroke-opacity:1"
       inkscape:connector-curvature="0" />
  </g>
</svg>
