<svg xmlns="http://www.w3.org/2000/svg" height="400" width="600">
 <rect height="400" width="600" y="0" x="0" fill="#005c92"/>
 <path d="m357.3 269.2c-20.6 20-48.2 30-75.9 24.6-48.6-9.4-80.6-62.3-66.2-126.8l-57 38c-22.5 133.3 130.4 177 197.9 67.3 0.5-0.9 1-1.8 1.5-2.7l-0.5-0.4m0.9-10.2c-10.4 4.7-20.3 5.7-28.6 1.9-26.3-11.9-27.6-65.5-3.1-119.7 7.4-16.4 16.4-30.9 26-43l-55.8-32.6c-77.2 85-47.2 196.6 5.7 208.4 19 4.2 38.7-1 56.2-14.3l-0.3-0.6m-26.5-62.3c0 10.13 8.2 18.4 18.4 18.4s18.4-8.2 18.4-18.4c0-6.9-3.7-12.8-9.3-16 2.8 1.1 5.5 2.4 8.1 4.2 26.7 18.3 24.9 67.6-4.2 109.9-6.3 9.2-13.5 17.4-21 24.3h80.4c41.2-67.5 18.1-123.5-20.8-139.7-34.5-14.4-69.8-5.2-69.8 17.3z" fill="#ffffff"/>
</svg>
