<?xml version="1.0" encoding="UTF-8" standalone="no"?>
<!-- Created with Inkscape (http://www.inkscape.org/) -->

<svg
   xmlns:dc="http://purl.org/dc/elements/1.1/"
   xmlns:cc="http://creativecommons.org/ns#"
   xmlns:rdf="http://www.w3.org/1999/02/22-rdf-syntax-ns#"
   xmlns:svg="http://www.w3.org/2000/svg"
   xmlns="http://www.w3.org/2000/svg"
   xmlns:sodipodi="http://sodipodi.sourceforge.net/DTD/sodipodi-0.dtd"
   xmlns:inkscape="http://www.inkscape.org/namespaces/inkscape"
   version="1.1"
   id="svg2"
   width="324"
   height="216"
   viewBox="0 0 324 216"
   sodipodi:docname="Flag of Kisarazu, Chiba.svg"
   inkscape:version="0.92.3 (2405546, 2018-03-11)">
  <metadata
     id="metadata8">
    <rdf:RDF>
      <cc:Work
         rdf:about="">
        <dc:format>image/svg+xml</dc:format>
        <dc:type
           rdf:resource="http://purl.org/dc/dcmitype/StillImage" />
        <dc:title></dc:title>
      </cc:Work>
    </rdf:RDF>
  </metadata>
  <defs
     id="defs6">
    <style
       id="style839"
       type="text/css"><![CDATA[
    .fil0 {fill:#00A2E8}
    .fil1 {fill:white}
   ]]></style>
  </defs>
  <sodipodi:namedview
     pagecolor="#ffffff"
     bordercolor="#666666"
     borderopacity="1"
     objecttolerance="10"
     gridtolerance="10"
     guidetolerance="10"
     inkscape:pageopacity="0"
     inkscape:pageshadow="2"
     inkscape:window-width="1920"
     inkscape:window-height="1017"
     id="namedview4"
     showgrid="false"
     inkscape:zoom="1.6286617"
     inkscape:cx="272.39865"
     inkscape:cy="112.57759"
     inkscape:window-x="-8"
     inkscape:window-y="-8"
     inkscape:window-maximized="1"
     inkscape:current-layer="svg2" />
  <g
     id="g1156"
     transform="matrix(0.36,0,0,0.36,9.4362085e-6,-1.5447554e-6)"
     style="stroke-width:2.77777767">
    <rect
       style="fill:#000044;fill-opacity:1;stroke:none;stroke-width:2.77777767"
       id="rect2407"
       y="1.2079227e-013"
       x="1.1368684e-013"
       height="600"
       width="900" />
    <path
       style="fill:#ffffff;stroke:none;stroke-width:2.77777767"
       id="path2386"
       d="M 440.0625,119.53125 C 344.91338,124.70253 269.24998,203.5679 269.25,300 c 0,68.97111 38.70889,128.97148 95.5625,159.4375 L 419.5,404.65625 V 480.5 h 61 v -75.84375 l 54.65625,54.78125 C 592.02317,428.97556 630.74999,368.98097 630.75,300 630.75,203.5679 555.08662,124.70253 459.9375,119.53125 V 180.875 c 61.33558,5.05781 109.59375,56.49148 109.59375,119.125 0,30.18548 -11.20926,57.76764 -29.6875,78.8125 L 509.5625,348.5 H 540.5 v -49.0625 h -60 V 270 h -61 v 29.4375 h -60 V 348.5 h 30.9375 l -30.28125,30.3125 C 341.67801,357.76764 330.46875,330.18548 330.46875,300 c 0,-62.63352 48.25817,-114.06719 109.59375,-119.125 z"
       inkscape:connector-curvature="0" />
  </g>
</svg>
