<?xml version="1.0" encoding="UTF-8"?>
<svg width="157.16mm" height="105.57mm" data-name="Layer 1" version="1.1" viewBox="0 0 445.5 299.25" xmlns="http://www.w3.org/2000/svg">
 <defs>
  <style>.cls-1 {
        fill: #fff;
      }

      .cls-2 {
        fill: #ffab00;
      }

      .cls-3 {
        fill: #1f7fb9;
      }

      .cls-4 {
        fill: #fe0000;
      }</style>
 </defs>
 <rect id="Back" class="cls-1" width="445.5" height="299.25"/>
 <g id="Yellow">
  <path class="cls-2" d="m167.38 135.21h0.07a129.65 129.65 0 0 1 26 3.09l19.9-25.49c-3-0.14-6.1-0.23-9.26-0.23h-4.07a157.58 157.58 0 0 0-31.64 3.84 165.77 165.77 0 0 0-5 18.64h0.38c2.37 0.04 3.62 0.15 3.62 0.15z"/>
  <path class="cls-2" d="m200 108.62h4.15q6.24 0 12.27 0.38l0.13-0.17c10.21-14 42.73-33.36 42.73-33.36s-12.77-16.69-35.41-18.56-42.3 31-42.3 31a139.35 139.35 0 0 0-11.57 24.14 162.08 162.08 0 0 1 30-3.43z"/>
  <path class="cls-2" d="M160.87,202.23c3.24-14.12,29.62-60.08,29.62-60.08l.28-.37a126.56,126.56,0,0,0-23.37-2.57H167s-1.15-.1-3.25-.1h-1.18A202.75,202.75,0,0,0,160.87,202.23Z"/>
 </g>
 <path id="Blue" class="cls-3" d="m94.68 154.23s40.79-40.34 105.38-41.61c64.21-1.27 103.28 27.57 103 55.78s-30.39 59.37-91.92 59.24c0 0-52.6-1.53-60.51-11.75 0 0 82 2.94 83-39.06s-66.26-41.62-66.26-41.62-29.86-2.81-72.69 19.02z"/>
 <path id="Red" class="cls-4" d="m262.4 82.15s12.69 15.66 44.69 20.51c0 0-1.62 6-35.75 5.11s-37.45-6.13-37.45-6.13 18.3-15.58 28.51-19.49z"/>
</svg>
