<?xml version="1.0" encoding="UTF-8" standalone="no"?>
<!-- Created with Inkscape (http://www.inkscape.org/) -->

<svg
   xmlns:osb="http://www.openswatchbook.org/uri/2009/osb"
   xmlns:dc="http://purl.org/dc/elements/1.1/"
   xmlns:cc="http://creativecommons.org/ns#"
   xmlns:rdf="http://www.w3.org/1999/02/22-rdf-syntax-ns#"
   xmlns:svg="http://www.w3.org/2000/svg"
   xmlns="http://www.w3.org/2000/svg"
   xmlns:sodipodi="http://sodipodi.sourceforge.net/DTD/sodipodi-0.dtd"
   xmlns:inkscape="http://www.inkscape.org/namespaces/inkscape"
   version="1.1"
   id="svg2"
   width="324"
   height="216"
   viewBox="0 0 324 216"
   sodipodi:docname="Flag of Katori, Chiba.svg"
   inkscape:version="0.92.3 (2405546, 2018-03-11)">
  <metadata
     id="metadata8">
    <rdf:RDF>
      <cc:Work
         rdf:about="">
        <dc:format>image/svg+xml</dc:format>
        <dc:type
           rdf:resource="http://purl.org/dc/dcmitype/StillImage" />
        <dc:title></dc:title>
      </cc:Work>
    </rdf:RDF>
  </metadata>
  <defs
     id="defs6">
    <style
       type="text/css"
       id="style1023">
   <![CDATA[
    .fil1 {fill:#FEFEFE}
    .fil0 {fill:#7092BF}
   ]]>
  </style>
    <style
       type="text/css"
       id="style1066">
   <![CDATA[
    .fil0 {fill:#400000}
    .fil1 {fill:white}
   ]]>
  </style>
    <style
       type="text/css"
       id="style2-3">
   <![CDATA[
    .fil1 {fill:#FEFEFE}
    .fil0 {fill:#018821}
   ]]>
  </style>
    <path
       d="M0 0L1000 0L1000 690L0 690L0 0Z"
       id="e2FACu9Ylf" />
    <path
       d="M192.35 456.13C192.35 456.93 192.36 457.72 192.37 458.51C206.56 404.56 242.13 342.98 290.62 288.46C379.67 188.44 495.88 146.55 550.18 194.89C574.97 217.06 583.41 255.72 573.8 303.1C617.48 220.39 621.71 147.44 584.76 114.37C530.46 66.03 406.01 117.19 306.78 228.64C239.29 304.43 195.68 391.15 192.35 456.13Z"
       id="a1saAh7sU9" />
    <path
       d="M292.89 327.57C227.05 401.52 181.99 483.9 174.69 543.68C167.39 603.46 198.95 631.56 257.48 617.39C269.77 614.36 283.01 609.52 296.94 602.97C293.49 603.91 290.12 604.68 286.83 605.26C246.22 612.19 222.55 591.11 224.74 549.98C226.93 508.84 254.63 453.89 297.43 405.83C352.39 344.17 420.82 306.71 467.93 312.49C444.26 370.44 444.01 419.02 467.23 445.21C509.06 491.95 614.03 455.42 706.55 361.93C706.61 361.98 707.06 362.38 707.11 362.43C772.95 288.49 818.01 206.11 825.31 146.33C832.61 86.55 801.05 58.45 742.52 72.62C730.23 75.65 716.99 80.49 703.06 87.04C706.51 86.1 709.88 85.33 713.17 84.75C753.78 77.82 777.45 98.89 775.26 140.03C773.07 181.17 745.37 236.12 702.57 284.18C647.61 345.84 579.18 383.3 532.07 377.52C555.74 319.57 555.99 270.98 532.77 244.8C490.94 198.06 385.97 234.59 293.45 328.07C293.34 327.97 293 327.67 292.89 327.57Z"
       id="a1Tbbvve3K" />
    <path
       d="M807.64 233.9C807.64 233.11 807.63 232.31 807.62 231.52C793.43 285.48 757.85 347.06 709.37 401.57C620.32 501.59 504.11 543.49 449.81 495.14C425.02 472.97 416.58 434.31 426.19 386.94C382.51 469.65 378.28 542.6 415.23 575.66C469.52 624 593.98 572.84 693.21 461.39C760.69 385.6 804.31 298.88 807.64 233.9Z"
       id="a15x9jlPKO" />
    <style
       type="text/css"
       id="style1747">
   <![CDATA[
    .fil1 {fill:#FEFEFE}
    .fil0 {fill:#A349A3}
   ]]>
  </style>
    <inkscape:path-effect
       effect="powerstroke"
       id="path-effect4283"
       is_visible="true"
       offset_points="0,0.5"
       sort_points="true"
       interpolator_type="CubicBezierJohan"
       interpolator_beta="0.2"
       start_linecap_type="zerowidth"
       linejoin_type="round"
       miter_limit="4"
       end_linecap_type="zerowidth"
       cusp_linecap_type="round" />
    <inkscape:path-effect
       effect="powerstroke"
       id="path-effect4275"
       is_visible="true"
       offset_points="0,0.5"
       sort_points="true"
       interpolator_type="CubicBezierJohan"
       interpolator_beta="0.2"
       start_linecap_type="zerowidth"
       linejoin_type="round"
       miter_limit="4"
       end_linecap_type="zerowidth"
       cusp_linecap_type="round" />
    <linearGradient
       id="linearGradient5904"
       osb:paint="solid">
      <stop
         style="stop-color:#00b248;stop-opacity:1;"
         offset="0"
         id="stop5906" />
    </linearGradient>
    <inkscape:path-effect
       effect="powerstroke"
       id="path-effect5890"
       is_visible="true"
       offset_points="0.035690123,1.3014427"
       sort_points="true"
       interpolator_type="Linear"
       interpolator_beta="0.2"
       start_linecap_type="zerowidth"
       linejoin_type="round"
       miter_limit="4"
       end_linecap_type="zerowidth"
       cusp_linecap_type="round" />
    <inkscape:path-effect
       effect="powerstroke"
       id="path-effect5884"
       is_visible="true"
       offset_points="0,0.5"
       sort_points="true"
       interpolator_type="Linear"
       interpolator_beta="0.2"
       start_linecap_type="zerowidth"
       linejoin_type="round"
       miter_limit="4"
       end_linecap_type="zerowidth"
       cusp_linecap_type="round" />
    <inkscape:path-effect
       effect="skeletal"
       id="path-effect4225"
       is_visible="true"
       pattern="m -898.145,66.520153 c 0,-2.76 2.24,-5 5,-5 2.76,0 5,2.24 5,5 0,2.76 -2.24,5 -5,5 -2.76,0 -5,-2.24 -5,-5 z"
       copytype="single_stretched"
       prop_scale="1"
       scale_y_rel="false"
       spacing="0"
       normal_offset="0"
       tang_offset="0"
       prop_units="false"
       vertical_pattern="false"
       fuse_tolerance="0" />
  </defs>
  <sodipodi:namedview
     pagecolor="#ffffff"
     bordercolor="#666666"
     borderopacity="1"
     objecttolerance="10"
     gridtolerance="10"
     guidetolerance="10"
     inkscape:pageopacity="0"
     inkscape:pageshadow="2"
     inkscape:window-width="1920"
     inkscape:window-height="1017"
     id="namedview4"
     showgrid="false"
     inkscape:zoom="0.96068526"
     inkscape:cx="52.147994"
     inkscape:cy="108"
     inkscape:window-x="-8"
     inkscape:window-y="-8"
     inkscape:window-maximized="1"
     inkscape:current-layer="svg2" />
  <style
     id="style2"
     type="text/css">
	.st0{fill:#606;}
	.st1{fill:#fff;}
</style>
  <style
     type="text/css"
     id="style847">
	.st0{fill:#000040;}
	.st1{fill:#fff;}
</style>
  <style
     type="text/css"
     id="style865">
	.st0{fill:#3F47CD;}
	.st1{fill:#fff;}
	.st2{fill:none;stroke:#fff;stroke-width:10;}
</style>
  <style
     type="text/css"
     id="style914">
	.st0{fill:#004101;}
	.st1{fill:#fff;}
</style>
  <style
     type="text/css"
     id="style1245">
	.st0{fill:#400040;}
	.st1{fill:#fff;}
</style>
  <style
     type="text/css"
     id="style1328">
	.st0{fill:#fff;}
	.st1{fill:#F35911;}
	.st2{fill:#008143;}
	.st3{fill:#0066AC;}
</style>
  <style
     type="text/css"
     id="style1432">
	.st0{fill:#004080;}
	.st1{fill:#fff;}
</style>
  <style
     type="text/css"
     id="style1470">
	.st0{fill:#23B14D;}
	.st1{fill:#fff;}
	.st2{fill:#F01630;}
</style>
  <style
     type="text/css"
     id="style1541">
	.st0{fill:#3F47CD;}
	.st1{fill:#fff;}
</style>
  <style
     type="text/css"
     id="style1614">
	.st0{fill:#800080;}
	.st1{fill:none;stroke:#fff;stroke-width:3;}
	.st2{fill:#fff;}
</style>
  <style
     type="text/css"
     id="style1691">
	.st0{fill:#880015;}
	.st1{fill:#FFFFFF;}
</style>
  <style
     type="text/css"
     id="style894">
	.st0{fill:#fff;}
	.st1{fill:#447550;}
	.st2{fill:#FCB931;stroke:#DBA12B;stroke-width:0.5;}
</style>
  <style
     type="text/css"
     id="style2475">
	.st0{fill:#880016;}
	.st1{fill:#FFFFFF;}
</style>
  <style
     id="style899"
     type="text/css">
	.st0{fill:#880015;}
	.st1{fill:#fff;}
</style>
  <style
     id="style977"
     type="text/css">
	.st0{fill:#fff;}
	.st1{fill:#060087;}
</style>
  <g
     style="display:inline;stroke:none;stroke-width:1.74978137"
     inkscape:label="Layer 4"
     id="layer4"
     transform="matrix(0.60960003,0,0,0.60959996,-6.5332492e-6,-0.20926612)">
    <rect
       y="0.3432467"
       x="-1.1368684e-013"
       height="354.33072"
       width="531.49603"
       id="rect4430"
       style="fill:#ffffff;fill-opacity:1;stroke:none;stroke-width:3.10000634;stroke-linecap:round;stroke-linejoin:bevel;stroke-miterlimit:4;stroke-dasharray:none;stroke-dashoffset:0;stroke-opacity:1" />
    <path
       inkscape:connector-curvature="0"
       id="path4314"
       d="m 216.24798,219.9284 c -32.01083,0.0385 -74.44994,38.46251 -89.00085,55.75212 33.53412,-11.7775 69.0931,-17.18306 103.4734,-15.05936 9.8505,-13.99451 13.18912,-22.83075 6.49481,-33.02978 -5.99972,-5.40414 -13.17354,-7.67237 -20.96736,-7.66298 z"
       style="fill:#80c31c;fill-opacity:1;fill-rule:evenodd;stroke:none;stroke-width:1.74978137px;stroke-linecap:butt;stroke-linejoin:miter;stroke-opacity:1" />
    <path
       style="fill:#2e60a9;fill-opacity:1;fill-rule:evenodd;stroke:none;stroke-width:1.74978137px;stroke-linecap:butt;stroke-linejoin:miter;stroke-opacity:1"
       d="m 156.77701,233.9331 c 14.44013,-31.08459 43.15708,-86.93988 36.24411,-121.19907 -2.60985,-12.933838 -11.42249,-22.77167 -28.72493,-27.705344 67.20996,-5.109054 70.48857,18.812344 63.44308,47.421784 36.15127,-47.114899 93.23741,-67.057341 165.7243,-64.863202 -11.4576,21.190001 -24.81823,40.926192 -41.67342,59.375152 -16.85521,18.44897 -36.19758,29.25409 -84.84816,38.93686 -66.37632,13.21065 -84.66928,41.54001 -110.16498,68.03382 z"
       id="path4316"
       inkscape:connector-curvature="0"
       sodipodi:nodetypes="csccczsc" />
    <path
       inkscape:connector-curvature="0"
       id="path4318"
       d="m 301.56754,179.73964 c -27.0362,0.37764 -61.06244,10.21949 -98.73534,31.90505 50.30533,-20.54953 103.38744,6.8679 66.46185,54.73246 24.35105,5.90776 47.38687,16.13772 67.81752,31.14226 51.60142,-69.85153 26.37924,-118.64471 -35.54403,-117.77977 z"
       style="fill:#43a6cd;fill-opacity:1;fill-rule:evenodd;stroke:none;stroke-width:1.74978137px;stroke-linecap:butt;stroke-linejoin:miter;stroke-opacity:1" />
    <rect
       y="-1.034126"
       x="0"
       height="354.33072"
       width="531.49603"
       id="rect4349"
       style="display:none;fill:#ffffff;fill-opacity:1;stroke:none;stroke-width:3.10000634;stroke-linecap:round;stroke-linejoin:bevel;stroke-miterlimit:4;stroke-dasharray:none;stroke-dashoffset:0;stroke-opacity:1" />
  </g>
</svg>
