<?xml version="1.0" encoding="UTF-8"?>
<svg id="Layer_1" data-name="Layer 1" xmlns="http://www.w3.org/2000/svg" viewBox="0 0 3000 2000">
  <defs>
    <style>
      .cls-1 {
        fill: #d13c46;
      }

      .cls-1, .cls-2 {
        stroke-width: 0px;
      }

      .cls-2 {
        fill: #fff;
      }
    </style>
  </defs>
  <rect class="cls-2" width="3000" height="2000"/>
  <path class="cls-1" d="m2051.4,1044.09c3.51-22.68,6.83-56.1,3.69-96.04-16.08-204.8-182.29-332.03-211.78-354.61-88.27-67.57-179.63-95.82-243.8-108.35-.42,7.62-.73,18.7,0,32.01,3.63,67.19,29.53,117.98,67.72,181,56.32,92.94,84.48,139.41,130.52,189.62,107.09,116.8,217.98,170.56,240.1,181,68.31,32.24,129.77,48.18,173.61,56.64-.94,14.41-2.51,29.62-4.93,45.56-6.34,41.72-16.93,78.06-28.32,108.35-14.79-1.59-36.19-4.44-61.56-9.85-145.77-31.09-242.39-108.27-310.29-163.76-66.93-54.71-191.64-166.13-283.2-344.76-13.22-25.8-15.69-29.26-22.16-44.33l-1.01-4.67-1.02,4.67c-6.48,15.07-8.94,18.53-22.16,44.33-91.57,178.64-216.26,290.06-283.2,344.76-67.89,55.49-164.51,132.67-310.29,163.76-25.38,5.41-46.78,8.26-61.56,9.85-11.39-30.29-21.98-66.64-28.32-108.35-2.41-15.93-3.99-31.15-4.93-45.56,43.85-8.46,105.3-24.4,173.61-56.64,22.13-10.44,133.02-64.2,240.1-181,46.04-50.21,74.2-96.68,130.52-189.62,38.19-63.02,64.09-113.81,67.72-181,.73-13.31.42-24.39,0-32.01-64.16,12.53-155.52,40.78-243.8,108.35-29.49,22.58-195.7,149.81-211.78,354.61-3.14,39.94.18,73.36,3.69,96.04l-162.53,50.48c-1.43-33.52-10.88-370.31,221.63-586.09,53.49-49.65,176.67-145.66,350.92-181,24.27-4.93,44.76-7.7,59.18-9.33v-98.55h164.41v98.55c14.41,1.64,34.91,4.41,59.18,9.33,174.25,35.34,297.42,131.35,350.92,181,232.52,215.78,223.06,552.58,221.63,586.09l-162.53-50.48Z"/>
  <path class="cls-1" d="m1785.88,1190.62c-7.06,10.44-17.3,24.69-30.78,40.63-20.35,24.05-52.47,61.37-105.89,92.35,0,0-59.95,34.77-115.74,40.63-9.95,1.05-19.7,1.23-19.7,1.23-3.6.07-6.58.04-8.62,0h-9.85c-2.04.04-5.02.07-8.62,0,0,0-9.75-.18-19.7-1.23-55.79-5.86-115.74-40.63-115.74-40.63-53.43-30.98-85.54-68.3-105.89-92.35-13.48-15.95-23.73-30.19-30.78-40.63l131.75-114.51c6.72,17.69,35.9,88.39,107.12,114.51,16.76,6.14,32.75,8.69,46.79,9.37,14.04-.68,30.03-3.23,46.79-9.37,71.22-26.12,100.4-96.82,107.12-114.51l131.75,114.51Z"/>
  <path class="cls-1" d="m2170.65,1308.82c-1.95,5.65-4.83,13.77-8.62,23.39-7.23,18.38-34.76,85.51-102.2,168.69-33.01,40.72-81.28,100.24-163.76,153.91-63.53,41.35-120.21,61.53-168.69,78.8-71.71,25.55-117.24,34.93-136.67,38.17-35.89,5.97-66.47,7.98-88.65,8.62h-4.31c-22.19-.64-52.76-2.65-88.65-8.62-19.43-3.24-64.96-12.62-136.67-38.17-48.48-17.28-105.15-37.46-168.69-78.8-82.48-53.67-130.75-113.19-163.76-153.91-67.44-83.17-94.97-150.3-102.2-168.69-3.79-9.63-6.67-17.74-8.62-23.39,16.77-1.77,30.29-4.26,39.4-6.16,30.95-6.46,55.14-15.44,86.19-27.09,12.15-4.56,21.99-8.51,28.32-11.08,15.61,33.42,40.07,78.22,77.57,125.59,69.62,87.91,144.71,134.7,171.15,150.22,41.85,24.56,122.93,70.92,233.95,76.34,14.07.69,25.82.58,33.86.34h.62c8.04.23,19.79.34,33.86-.34,111.01-5.42,192.09-51.78,233.95-76.34,26.44-15.51,101.53-62.3,171.15-150.22,37.51-47.37,61.96-92.17,77.57-125.59,6.33,2.57,16.17,6.53,28.32,11.08,31.05,11.65,55.24,20.62,86.19,27.09,9.11,1.9,22.63,4.38,39.4,6.16Z"/>
</svg>