<svg xmlns="http://www.w3.org/2000/svg" height="400" width="600">
 <rect fill="#00441b" height="400" width="600" y="0" x="0"/>
 <path fill="#ffffff" d="m257.7 80c-65.3 0-118.5 52.2-119.9 117.2h51.3c1.255-31.6 23.8-57.6 53.7-64.3-12.9 19.2-20.5 42.2-20.5 67.1 0 24.9 7.6 48 20.5 67.1-29.9-6.7-52.4-32.8-53.7-64.3h-51.3c1.5 65 54.6 117.2 119.9 117.2 14.9 0 29.1-2.7 42.3-7.7 13.1 4.9 27.4 7.7 42.2 7.7 65.3 0 118.5-52.2 120-117.2h-51.3c-1.3 31.6-23.8 57.7-53.7 64.3 12.5-18.4 19.9-40.5 20.5-64.3h-51.3c-0.8 20.9-11 39.4-26.4 51.4-16.1-12.6-26.5-32.2-26.5-54.2 0-22 10.4-41.6 26.5-54.2 15.4 12.1 25.6 30.5 26.4 51.4h51.3c-0.5-23.8-8-45.9-20.5-64.3 29.9 6.6 52.4 32.8 53.7 64.3h51.3c-1.5-65-54.6-117.2-120-117.2-14.8 0-29.1 2.7-42.2 7.7-13.1-5-27.4-7.7-42.3-7.7z"/>
</svg>
