<svg xmlns="http://www.w3.org/2000/svg" width="919.5" height="613" xmlns:v="https://vecta.io/nano"><path fill="#fff" d="M0 0h919.5v613H0z"/><g fill="#e5231f"><path d="M460.773 122.116c-89.716 0-164.156 69.001-176.592 158.485h12.848c12.344-82.17 81.069-145.272 163.744-145.272 91.359 0 165.659 77.003 165.659 171.698s-74.3 171.703-165.659 171.703c-82.674 0-151.398-63.103-163.701-145.271H284.18c12.393 89.482 86.832 158.484 176.593 158.484 98.4 0 178.417-82.945 178.417-184.914s-80.016-184.913-178.417-184.913m0 336.038c80.794 0 146.548-67.813 146.548-151.125s-65.754-151.121-146.548-151.121c-72.064 0-132.103 53.912-144.267 124.694h39.141c11.114-49.294 54.6-84.455 105.126-85.05 59.716 0 108.323 50.023 108.323 111.477S520.492 418.51 460.773 418.51c-50.526-.593-94.012-35.805-105.126-85.052h-39.141c12.163 70.783 72.202 124.696 144.267 124.696M273.387 300.447h89.211v13.212h-89.211z"/><path d="M311.617 250.88h66.759v13.212h-66.759zm0 99.088h66.759v13.215h-66.759zm75.854-99.088h57.342v13.212h-57.342zm0 99.088h57.342v13.215h-57.342z"/><path d="M416.145 387.415c-10.748-.184-19.345-9.057-19.161-19.798h0V246.444c-.41-10.565 7.819-19.433 18.384-19.845s19.429 7.819 19.844 18.38v1.465 121.172c.183 10.742-8.367 19.615-19.118 19.799"/></g></svg>