<svg xmlns="http://www.w3.org/2000/svg" height="400" width="600" version="1.1">
 <rect height="400" width="600" y="0" x="0" fill="#0095d9"/>
 <path fill="#ffffff" d="m180 207c0.0943 1.7 0.196 3.43 0.34 4.89 0.284 2.87 2.81 5.1 5.57 5.11l76.1 0.5c5.52 0.0341 10 4.48 10 10v2.66c0 5.52-4.48 10-10 10l-62.9 0.172c-7.35 0.02-10.8 4.6-8.48 9.87 19 41 62 69 109 69 47.3-0.06 90-27.7 109-70.3 2.07-4.62 1.28-9.64-8.41-9.67l-63-0.172c-5.52-0.013-10-4.48-10-10v-2.66c0-5.52 4.48-9.97 10-10l76.6-0.473c2.54-0.02 4.7-2.42 4.99-5.09 0.18-1.65 0.33-3.48 0.41-4.94zm113 10.5h13.3c5.52 0 10 4.48 10 10v2.66c0 5.52-4.48 10-10 10h-13.3c-5.52 0-10-4.48-10-10v-2.66c0-5.52 4.48-10 10-10zm-50 39.5h19.5c5.52 0 10 4.48 10 10v18c0 7.02-5.29 7.56-9.98 0.26 3.29 9.25 10.9 15 15 15.1 2.76 0 5-2.24 5-5v-28.7c0-4.49 2.83-9.63 7.31-9.63h17c5.52 0 10 4.48 10 10v28.3c0 2.76 2.24 5 5 5 4.08-0.1 11.7-5.86 15-15.1-4.7 7.3-9.98 6.76-9.98-0.264v-18.3c0-4.49 2.83-9.63 7.31-9.63h22.2c5.14 0 8.18 4.33 6.8 8.97-13.2 32.3-40.7 50.9-63.5 51-22.6-0.07-49.8-18.4-63.1-50.1-2.07-4.96 1.02-9.86 6.49-9.86zm44.4-177c-0.65-0.01-1.34 0.02-2.06 0.107-45.6 5.32-86.2 41.5-100 82.9-2.66 8.17-5.2 16.7-5.34 25.6-0.04 2.53 2.02 4.81 4.04 4.9l103 0.104c4.44 0 7.23-5.11 7.25-9.55v-10.4-0.115c0 5.03-3.66 9.88-8.54 9.88h-30.7l-30.2-0.121c-2.93-0.0117-5.27-3.33-4.94-5.91 1.6-9.95 4.91-19.7 9.55-28.7 1.6-3.1 5.05-4.79 8.54-4.81 0 0 32.8-0.178 49.2-0.268 4.43-0.0241 7.16-5.15 7.16-9.58l0.0215-10.5c0 5.52-4.48 10-10 10l-37.3-0.311c-3.9-0.0325-5.48-4.55-3.59-7.25 10.8-15.4 23.8-26.5 39.1-34.1 6.71-2.82 11.7 1.65 11.8 8.58v-13.4c0-4.4-2.64-6.84-7.19-6.93zm18 8.6v100c0 5.52-4.48 10-10 10h12.2c5.31 0 9.97-4.15 9.97-9.46v-93.8c0-3.92 3.82-4.92 7.73-2.24 20 13.7 48.2 47 54.4 83.7 0.481 2.86-1.53 5-5.03 5l-42.5 0.01c-4.71 0.001-7.91-5.05-7.91-9.77v10.4c0.0279 4.44 2.81 9.56 7.25 9.55l84.1-0.1c2.43 0 4.24-3.15 4.06-5.05-5-56-48-101-103-108-5-0.5-11 3.6-11 8.6z"/>
</svg>
