<svg xmlns="http://www.w3.org/2000/svg" height="400" width="600">
 <rect fill="#20b1aa" height="400" width="600" y="0" x="0"/>
 <path fill="#ffffff" d="m300 80c-66.3 0-120 53.7-120 120s53.7 120 120 120 120-53.7 120-120c-0.1-13.7-2.5-27.3-6-37.3s-4.7-17.5-4.7-25.1h-73.6c22.4 12.8 36.2 36.6 36.2 62.4 0 39.8-32.2 72-72 72s-72-32.2-72-72 32.2-72 72-72h110.1c2.6-19.1 12.7-36.4 28.2-48zm31.1 84.5c-1.8 1.6-4.4 3.5-7.1 5.1-14.9 8.6-33.2 8.6-48 0-2.7-1.6-5.3-3.4-7.2-5.1s-3.7-1.7-4.8-0.5c-1.2 1.1-1.2 3.1 0.5 4.9s3.5 4.4 5.1 7.1c8.6 14.9 8.6 33.2 0 48-1.6 2.7-3.4 5.3-5.1 7.1-1.7 1.8-1.7 3.7-0.5 4.9 1.2 1.2 3.1 1.2 4.9-0.5s4.4-3.5 7.1-5.1c14.9-8.6 33.2-8.6 48 0 2.7 1.6 5.3 3.4 7.1 5.1s3.7 1.7 4.9 0.5 1.2-3.1-0.5-4.9-3.5-4.4-5.1-7.1c-8.6-14.9-8.6-33.2 0-48 1.6-2.7 3.4-5.3 5.1-7.1 1.7-1.8 1.9-3.7 0.5-4.9s-3.7-0.6-4.9 0.5zm-31.1 25.9c5.3 0 9.6 4.3 9.6 9.6s-4.3 9.6-9.6 9.6-9.6-4.3-9.6-9.6 4.3-9.6 9.6-9.6z"/>
</svg>
