<svg xmlns="http://www.w3.org/2000/svg" height="400" width="600">
 <rect fill="#ffffff" height="400" width="600" y="0" x="0"/>
 <path fill="#48a663" d="m405.6 240c-0.1-21.3-6.6-42.2-18.7-59.8-16 8.9-33.9 13.6-52.2 13.6 14.5 10.9 23 28.1 23 46.2 0 31.7-25.7 57.5-57.5 57.5s-57.5-25.7-57.5-57.5c0-23.5 14.3-44.6 36.1-53.3 5.6 10.5 12.8 20 21.4 28.2 10.8-10.3 19.5-22.8 25.3-36.5 54.7 0.8 98.4-54.4 99.5-91.5 0-2 0-3.9-0.3-5.9-4.7-0.8-9.4-1.2-14.2-1.163-31 0-60 15.7-76.9 41.8-3.1-25.7-15-49.5-33.8-67.4-18.6 17.8-30.5 41.6-33.5 67.3-16.9-26-45.9-41.7-76.9-41.7-4.7 0-9.4 0.4-14.2 1.2-0.2 1.9-0.3 3.9-0.3 5.9 0 33.8 18.6 64.8 48.4 80.8-18.4 19.5-28.6 45.3-28.7 72.1 0 58.2 47.2 105.3 105.4 105.4 58.2 0 105.4-47.2 105.4-105.4z"/>
</svg>
