<svg width="900" height="600" xmlns="http://www.w3.org/2000/svg"><path fill="#fff" d="M0 0h900v600H0z"/><g fill="#fe0000"><path d="m449.972 328.62-60.73-86.474h121.456zm0 1.58-88.716 125.93s36.987 23.857 88.716 23.857 88.715-23.857 88.715-23.857z"/><path d="M220.602 325.048h119.335c7.206 32.75 23.291 57.993 48.665 73.973l-36.336 51.258c-19.475-14.963-38.089-28.908-55.157-58.694h-35.904zm458.878 0H560.032c-7.207 32.75-23.084 57.993-48.458 73.973l36.335 51.258c19.476-14.963 38.09-28.908 55.158-58.694h35.904zM449.972 119.994c-57.326 26.203-132.302 48.223-162.628 127.813H174.066l40.606 67.534h125.262c0-81.393 65.601-114.757 110.038-114.757s110.043 33.364 110.043 114.757h125.359l40.51-67.534h-113.28c-30.323-79.593-105.307-101.61-162.633-127.813z"/></g></svg>