<?xml version="1.0" encoding="UTF-8" standalone="no"?>
<!-- Created with Inkscape (http://www.inkscape.org/) -->
<svg
   xmlns:svg="http://www.w3.org/2000/svg"
   xmlns="http://www.w3.org/2000/svg"
   version="1.0"
   width="900"
   height="600"
   id="svg2">
  <defs
     id="defs5" />
  <rect
     width="900"
     height="600"
     x="0"
     y="0"
     id="rect2443"
     style="fill:#a6384a;stroke:none" />
  <path
     d="M 440,135.25 C 370.89988,135.25 311.69462,177.74485 287.03125,238 L 313.09375,238 C 334.50801,194.61376 377.46427,163.75187 428,159.5 L 428,170.5625 C 383.7062,174.60689 345.81246,200.82525 325.46875,238 L 353.34375,238 C 372.70837,210.90553 404.43007,193.25 440.25,193.25 C 476.06993,193.25 507.79163,210.90553 527.15625,238 L 554.53125,238 C 534.34324,201.10182 496.86893,174.99964 453,170.65625 L 453,159.59375 C 503.10944,164.16529 545.69405,194.89377 566.96875,238 L 592.96875,238 C 568.30538,177.74485 509.10012,135.25001 440,135.25 z M 216,245 L 281,357 L 281.90625,357 C 320.05138,341.5377 360.96767,331.50121 403.6875,327.8125 L 390,359 L 491,359 L 477.03125,327.78125 C 519.52444,331.42483 560.24016,341.36029 598.21875,356.65625 L 666,245 L 501.78125,245 C 497.4386,266.8781 481.67396,284.65704 460.96875,291.84375 L 440,245 L 419.53125,291.6875 C 399.07064,284.39052 383.52665,266.70303 379.21875,245 L 216,245 z M 347.75,342.4375 C 334.75907,344.41598 306.10531,353.4864 286.3125,361.25 C 309.73842,420.17455 366.28413,462.20557 433,464.96875 L 433,441.1875 C 384.49432,438.87062 342.39098,412.61408 318.75,373.40625 C 322.33915,372.24189 325.96087,371.12614 329.59375,370.0625 C 351.54987,404.81686 389.45111,428.50825 433,430.8125 L 433,406.5 C 400.90447,404.34313 372.67345,387.98424 354.5625,363.65625 C 356.35868,363.25659 358.16274,362.87621 359.96875,362.5 C 355.16428,356.33804 351.0499,349.61522 347.75,342.4375 z M 537.75,343.46875 C 521.96106,378.79432 487.53693,403.99395 447,406.53125 L 447,430.8125 C 498.62928,428.07573 542.32214,395.28259 560.90625,349.625 C 553.278,347.36048 545.55142,345.30737 537.75,343.46875 z M 571.40625,352.9375 C 551.35707,402.83878 503.52049,438.45545 447,441.1875 L 447,464.96875 C 513.8402,462.20625 570.46076,420.0301 593.8125,360.9375 C 586.43835,358.06366 578.97487,355.40219 571.40625,352.9375 z"
     id="path2392"
     style="fill:#ffffff;stroke:none" />
</svg>
