<?xml version="1.0" encoding="UTF-8" standalone="no"?>
<!-- Created with Inkscape (http://www.inkscape.org/) -->
<svg
   xmlns:svg="http://www.w3.org/2000/svg"
   xmlns="http://www.w3.org/2000/svg"
   version="1.0"
   width="900"
   height="600"
   id="svg2">
  <defs
     id="defs5" />
  <rect
     width="900"
     height="600"
     x="0"
     y="0"
     id="rect2412"
     style="fill:#ffffff;stroke:none" />
  <path
     d="M 450,120 L 372.59375,254.5 C 364.32684,267.98761 359.5625,283.80997 359.5625,300.71875 C 359.5625,340.59987 386.04277,374.38667 422.5625,385.875 L 453.96875,331.46875 C 452.67302,331.65627 451.34741,331.75 450,331.75 C 434.82,331.74999 422.5,319.43 422.5,304.25 C 422.5,289.07 434.82,276.75 450,276.75 C 465.18,276.75 477.5,289.07 477.5,304.25 C 477.5,309.55754 476.0141,314.51482 473.40625,318.71875 L 415.28125,419.875 L 450.0625,480.21875 L 524.28125,351.71875 C 534.65186,335.83909 540.4375,319.66925 540.4375,300.71875 C 540.4375,283.80997 535.67316,267.98761 527.40625,254.5 L 450,120 z M 256,143 L 333.5,277.5 L 411,143 L 256,143 z M 489,143 L 566.5,277.5 L 644,143 L 489,143 z"
     id="path2394"
     style="fill:#be0026;stroke:none" />
</svg>
