<?xml version="1.0" encoding="UTF-8" standalone="no"?>
<svg xmlns="http://www.w3.org/2000/svg" xmlns:xlink="http://www.w3.org/1999/xlink" version="1.0" width="900" height="600">
<rect width="900" height="600" x="0" y="0" fill="#002f55"/>
<path id="a" fill="#ffffff" d="M 450,120.5 C 397.008,120.5 354.00001,163.508 354,216.5 354,239.93359 362.71745,262.0434 375.54779,277.26654 380.67446,283.99811 386.47455,287.74264 393.96875,287.74265 405.28475,287.74265 414.05515,278.97224 414.05515,267.65625 414.05515,256.34025 405.28475,247.56985 393.96875,247.56985 386.76593,247.56985 380.46913,250.87676 376.8125,256.5 371.21589,247.13857 368,236.19516 368,224.5 368,190 396,162 430.5,162 454.08882,162 474.61084,175.09896 485.25,194.40625 500.70215,184.79012 518.94294,179.22472 538.46875,179.21875 523.904,144.73261 489.76869,120.5 450,120.5 z"/>
<use transform="translate(17.426362,642.05507)rotate(288)" xlink:href="#a"/>
<use transform="translate(632.84038,823.66584)rotate(216)" xlink:href="#a"/>
<use transform="translate(996.01336,294.22915)rotate(144)" xlink:href="#a"/>
<use transform="translate(605.21268,-214.87022)rotate(72)" xlink:href="#a"/>
</svg>