<?xml version="1.0" encoding="UTF-8" standalone="no"?>
<!-- Created with Inkscape (http://www.inkscape.org/) -->
<svg
   xmlns:svg="http://www.w3.org/2000/svg"
   xmlns="http://www.w3.org/2000/svg"
   version="1.0"
   width="900"
   height="600"
   id="svg2">
  <defs
     id="defs5" />
  <rect
     width="900"
     height="600"
     x="0"
     y="0"
     id="rect2464"
     style="fill:#ffffff;stroke:none" />
  <path
     d="M 450,120 C 439.41705,128.89246 434,138 434,138 C 434.00001,138 416.64614,137.48851 397,150 C 400.41223,163.9591 417.78125,174.34375 417.78125,174.34375 C 417.78124,174.34374 413.71829,189.45175 415.0625,204.03125 C 437.19027,199.99861 450,194.09375 450,194.09375 C 450,194.09375 462.80973,199.99861 484.9375,204.03125 C 486.28171,189.45175 482.21876,174.34374 482.21875,174.34375 C 482.21875,174.34375 499.58777,163.9591 503,150 C 483.35386,137.48851 465.99999,138 466,138 C 466,138 460.58295,128.89246 450,120 z M 450,126.96875 C 456.5,132.96875 463,142 463,142 C 479.375,143.125 496.53125,152.5 496.53125,152.5 C 491.28125,163.25 476.59375,172.46875 476.59375,172.46875 C 480.09375,182.84375 480.71875,198.125 480.71875,198.125 C 464.21875,195.25 450,187.25 450,187.25 C 450,187.25 435.78126,195.25 419.28125,198.125 C 419.28125,198.125 419.90626,182.84375 423.40625,172.46875 C 423.40625,172.46875 408.71876,163.25 403.46875,152.5 C 403.46875,152.5 420.62501,143.125 437,142 C 437,142 443.50001,132.96875 450,126.96875 z M 449.875,143.46875 C 448.75211,143.48899 447.63382,143.83477 447,144.4375 C 445.23205,146.73669 447,165.375 447,165.375 C 442.87074,165.375 441,167 441,167 C 440.1875,167.375 430.69508,155.83888 427.0625,160.125 C 424.1875,163.5 436.625,169.6875 436,170.0625 C 427.125,176.25 426,184.0625 426,184.0625 C 426,184.0625 437.0625,170.1875 450,170.1875 C 464.62513,170.1875 473.9375,184.0625 473.9375,184.0625 C 473.9375,184.0625 473.5,176.75 463.9375,170.0625 C 462.9375,169.375 476.07366,164.06402 472.9375,160.0625 C 469.5625,155.75 459.625,167.4375 459.0625,167.0625 C 459.0625,167.0625 456.5625,165.3125 453,165.3125 C 453,165.3125 454.89869,146.70319 452.78125,144.4375 C 452.12962,143.75378 450.99789,143.44851 449.875,143.46875 z M 404.75,185.8125 C 387.5,187.5625 380.4375,193.625 380.4375,193.625 C 380.4375,193.625 367.9375,188.875 356.5625,189.5 C 355.3125,196.75 356.4375,207.875 356.4375,207.875 C 356.4375,207.875 343.9375,218 339.4375,228.5 C 376.9375,233.25 396,249 396,249 C 396,249 384.9375,229.375 348.5625,224.75 C 350.9375,219.5 361.5625,209.9375 361.5625,209.9375 C 361.5625,209.9375 360.1875,200.0625 361.5625,194.8125 C 371.8125,196.3125 381.3125,199.3125 381.3125,199.3125 C 381.3125,199.3125 389.3125,193.6875 398.3125,192.6875 C 395.3125,231.8125 407,243 407,243 C 407,243 400,220.1875 404.75,185.8125 z M 495.1875,185.8125 C 499.9375,220.1875 492.9375,243 492.9375,243 C 492.9375,243 504.625,231.8125 501.625,192.6875 C 510.625,193.6875 518.625,199.3125 518.625,199.3125 C 518.625,199.3125 528.125,196.3125 538.375,194.8125 C 539.75,200.0625 538.375,209.9375 538.375,209.9375 C 538.375,209.9375 549,219.5 551.375,224.75 C 515,229.375 503.9375,249 503.9375,249 C 503.9375,249 523,233.25 560.5,228.5 C 556,218 543.5,207.875 543.5,207.875 C 543.5,207.875 544.625,196.75 543.375,189.5 C 532,188.875 519.5,193.625 519.5,193.625 C 519.5,193.625 512.4375,187.5625 495.1875,185.8125 z M 430.6875,201.875 C 430.45801,201.87817 430.23697,201.88548 430,201.90625 C 437.3125,209.40625 443.06463,236.11025 444.09375,235.96875 C 444.89532,235.85854 445.14567,201.67514 430.6875,201.875 z M 468.65625,201.875 C 454.88396,202.73568 455.14865,235.86029 455.9375,235.96875 C 456.96662,236.11025 462.71874,209.40625 470.03125,201.90625 C 469.55731,201.8647 469.10052,201.84724 468.65625,201.875 z M 450,245.1875 C 419.23276,245.1875 416.25,285.61581 416.25,300.875 C 416.25,354.83725 418.94901,364.88031 422.0625,378 C 429.92887,407.35771 438.75,441.25 450,480 C 461.25,441.25 470.07113,407.35771 477.9375,378 C 481.05099,364.88031 483.75,354.83725 483.75,300.875 C 483.75,285.61581 480.76724,245.1875 450,245.1875 z M 450,251 C 461.25454,251 476.84374,259.10938 478.59375,303.125 L 478.59375,325.75 C 478.59375,334.75 475.99959,358.07549 472,373.5 C 466.5,396.5 450.00001,456 450,456 C 449.99999,456 433.5,396.5 428,373.5 C 424.00041,358.07549 421.40625,334.75 421.40625,325.75 L 421.40625,303.125 C 423.15625,259.10938 438.74546,251 450,251 z M 418.96875,265 C 399.22526,265 385.875,278.375 382.875,280.875 C 364.48075,296.20354 346.25,317.375 342.0625,321.5625 C 335.12675,328.44521 301.625,374.25 294.875,397 C 313.125,391.75 361.5,361.25 361.5,361.25 C 372.375,355.25 385.92721,344.43988 397.125,335.375 C 405,329 410.65625,323.71875 412.03125,320.96875 L 412.03125,313 C 402.28125,324.625 374.41874,346.15925 364.125,352.78125 C 355.70589,358.19729 321,378.25 306.5,386 C 309,376 344.5,327.25 344.5,327.25 C 353.75,317.125 371.36198,298.33797 384.25,287.5 C 389,283.5 404.05417,270.9375 416.9375,270.9375 L 418.96875,265 z M 480.875,265 L 482.90625,270.9375 C 495.78958,270.9375 510.84375,283.5 515.59375,287.5 C 528.48177,298.33797 546.09375,317.125 555.34375,327.25 C 555.34375,327.25 590.84375,376 593.34375,386 C 578.84375,378.25 544.13786,358.19729 535.71875,352.78125 C 525.42501,346.15925 497.5625,324.625 487.8125,313 L 487.8125,320.96875 C 489.1875,323.71875 494.84375,329 502.71875,335.375 C 513.91654,344.43988 527.46875,355.25 538.34375,361.25 C 538.34375,361.25 586.71875,391.75 604.96875,397 C 598.21875,374.25 564.717,328.44521 557.78125,321.5625 C 553.59375,317.375 535.363,296.20354 516.96875,280.875 C 513.96875,278.375 500.61849,265 480.875,265 z M 449.8125,267.65625 C 447.00001,267.65625 446.9375,269.03125 446.9375,269.03125 L 446.9375,337.75 C 446.93751,373.5 450,417 450,417 C 450,417 453,373.64677 453,337.75 L 453,269.125 C 453,269.125 452.90688,267.65625 449.8125,267.65625 z M 389.78125,268.96875 C 365.42586,269.0847 297.15625,284.02344 270.03125,307.03125 C 278.28125,315.78125 334.9375,315.03125 342.9375,315.03125 L 347.03125,310.03125 C 317.51431,310.03125 283.8125,307.5 283.0625,306 C 303.65939,289.44377 373.96591,274.71875 384.96875,274.71875 L 392,269 C 391.30859,268.97266 390.56691,268.96501 389.78125,268.96875 z M 510.25,268.96875 C 509.46434,268.96501 508.72266,268.97266 508.03125,269 L 515.0625,274.71875 C 526.06534,274.71875 596.37186,289.44377 616.96875,306 C 616.21875,307.5 582.51694,310.03125 553,310.03125 L 557.09375,315.03125 C 565.09375,315.03125 621.75,315.78125 630,307.03125 C 602.875,284.02344 534.60539,269.0847 510.25,268.96875 z M 413,285.96875 C 387.25,300.09375 333.25,355.5 333.25,355.5 C 321.625,366.25 313.23483,377.34414 314,378 C 314.875,378.75 329.00697,365.28742 335.75,359 C 345,350.375 396.25,299.75 413,292 L 413,285.96875 z M 486.84375,285.96875 L 486.84375,292 C 503.59375,299.75 554.84375,350.375 564.09375,359 C 570.83678,365.28742 584.96875,378.75 585.84375,378 C 586.60892,377.34414 578.21875,366.25 566.59375,355.5 C 566.59375,355.5 512.59375,300.09375 486.84375,285.96875 z M 368,289.4375 C 309.625,293.8125 290.57756,302.34801 290.96875,303 C 291.34375,303.625 333.5625,296.40625 363.9375,294.03125 L 368,289.4375 z M 532.03125,289.4375 L 536.09375,294.03125 C 566.46875,296.40625 608.6875,303.625 609.0625,303 C 609.45369,302.34801 590.40625,293.8125 532.03125,289.4375 z"
     id="path2411"
     style="fill:#000000;stroke:none" />
</svg>
