<?xml version="1.0" encoding="UTF-8" standalone="no"?>
<!-- Created with Inkscape (http://www.inkscape.org/) -->
<svg
   xmlns:svg="http://www.w3.org/2000/svg"
   xmlns="http://www.w3.org/2000/svg"
   version="1.0"
   width="900"
   height="600"
   id="svg2">
  <defs
     id="defs5" />
  <rect
     width="900"
     height="600"
     x="0"
     y="0"
     id="rect2424"
     style="fill:#ffffff;stroke:none" />
  <path
     d="M 436,120.53125 C 375.32251,125.20537 323.02849,160.01694 294.09375,210 L 91,210 L 270,299.75 C 269.99989,299.83328 270,299.9167 270,300 C 270,394.64975 343.17354,472.31813 436,479.46875 L 436,390 L 450,390 L 464,390 L 464,479.46875 C 556.82646,472.31813 630.00001,394.64975 630,300 C 630,299.9167 630.00011,299.83328 630,299.75 L 809,210 L 749.09375,210 L 785,192 L 745.75,192 L 709.84375,210 L 689.21875,210 L 725.125,192 L 685.875,192 L 649.96875,210 L 605.90625,210 C 576.97151,160.01694 524.67749,125.20537 464,120.53125 L 464,209.875 L 436,209.875 L 436,120.53125 z M 128.90625,219 L 450,219 L 771.125,219 L 450,380 L 244.59375,277 L 344.3125,277 L 450,330 L 581.65625,264 L 218.65625,264 L 128.90625,219 z"
     id="path2384"
     style="fill:#be0026;stroke:none" />
</svg>
