<svg xmlns="http://www.w3.org/2000/svg" height="400" width="600">
 <rect fill="#ffffff" height="400" width="600" y="0" x="0"/>
 <path fill="#ff0000" d="m295.5 75a125 125 0 0 0 -125 125 125 125 0 0 0 125 125 125 125 0 0 0 125 -125 125 125 0 0 0 -7.1 -40.9l16-8.4-14.9-21.3-11.1 7.8a125 125 0 0 0 -5.5 -8.8l-17.1 12a104.2 104.2 0 0 1 5.6 8.8l-4.3 3a99 99 0 0 0 -5.5 -8.9l-12.8 9a83.3 83.3 0 0 1 5.4 8.9l-118.4 82.9 125.2-65.4a83.3 83.3 0 0 1 3 21.3 83.3 83.3 0 0 1 -83.4 83.3 83.3 83.3 0 0 1 -83.3 -83.3 83.3 83.3 0 0 1 83.3 -83.3 83.3 83.3 0 0 1 52 18.3l13.2-9.3a99 99 0 0 0 -65.2 -24.8 99 99 0 0 0 -99 99 99 99 0 0 0 99 99 99 99 0 0 0 99 -99 99 99 0 0 0 -4.3 -28.7l4.6-2.4a104.2 104.2 0 0 1 4.9 31.1 104.2 104.2 0 0 1 -104.2 104.2 104.2 104.2 0 0 1 -104.1 -104.2 104.2 104.2 0 0 1 104.1 -104.2 104.2 104.2 0 0 1 69.6 26.9l17.6-12.3a125 125 0 0 0 -87.2 -35.4z"/>
</svg>
