<?xml version="1.0" encoding="UTF-8" standalone="no"?>
<!-- Created with Inkscape (http://www.inkscape.org/) -->
<svg
   xmlns:svg="http://www.w3.org/2000/svg"
   xmlns="http://www.w3.org/2000/svg"
   version="1.0"
   width="900"
   height="630"
   id="svg2">
  <defs
     id="defs5" />
  <rect
     width="900"
     height="630"
     x="0"
     y="0"
     id="rect2438"
     style="fill:#ffffff;stroke:none" />
  <path
     d="M 441.3125,125.59375 C 424.73792,138.09221 410.47589,152.74925 398.71875,168.9375 C 385.08205,186.87211 375.53996,205.80861 369.21875,226 L 330,226 C 330,226 326.375,235.75 323,261 L 361.46875,261 C 360.13335,270.57842 359.35258,280.42339 359,290.5625 C 359,299.23108 359.52491,307.76695 360.5625,316.15625 C 315.49002,335.29957 278.60199,370.00665 256.625,413.5 C 245.78743,434.6608 239.43468,457.41735 236.09375,480.9375 C 247.02702,485.76826 259.69625,489.68383 270.65625,491.75 C 285.32358,495.05455 300.5891,496.8125 316.25,496.8125 C 362.95009,496.8125 406.06119,481.3016 440.6875,455.15625 C 475.4217,481.59381 518.76273,497.31251 565.75,497.3125 C 575.23491,497.35795 584.69613,496.60308 594.09375,495.375 C 593.21866,483.2826 590.9299,471.59215 587.40625,460.4375 C 580.31177,461.33683 573.08877,461.8125 565.75,461.8125 C 529.2422,461.81251 495.3953,450.36762 467.59375,430.875 C 488.46864,408.44958 504.4077,381.38763 513.71875,351.40625 C 552.32808,369.48287 583.07734,401.51957 599.46875,441.03125 C 606.65466,457.19975 609.5896,474.69035 611.875,492.125 C 611.87586,492.1353 611.87414,492.14595 611.875,492.15625 C 623.53951,489.49739 635.10567,485.82105 646.40625,481.03125 C 643.93482,460.86537 638.41473,441.14647 630.1875,422.59375 C 608.84392,374.67696 569.82284,336.34179 521.40625,315.9375 C 522.46675,307.45817 523,298.82772 523,290.0625 C 523,286.35415 522.88061,282.66058 522.6875,279 L 487.125,279 C 487.35908,282.66086 487.5,286.34278 487.5,290.0625 C 487.5,295.05717 487.26342,299.98847 486.84375,304.875 C 472.17642,301.57045 456.9109,299.8125 441.25,299.8125 C 425.40034,299.8125 409.95472,301.61758 395.125,305 C 394.72627,300.23529 394.5,295.42968 394.5,290.5625 C 394.5,280.48165 395.35593,270.60249 397.03125,261 L 559,261 C 556.125,238.25 552,226 552,226 L 407.09375,226 C 413.65723,207.61822 425.45352,188.58643 441.25,173.0625 C 451.07636,183.55546 459.60398,195.29509 466.5625,208 L 506.0625,208 C 496.73698,186.47008 483.85342,166.83994 468.15625,149.84375 C 460.03738,141.10042 451.08404,132.96344 441.3125,125.59375 z M 441.25,335.3125 C 454.6328,335.3125 467.65453,336.84181 480.15625,339.75 C 472.3748,365.42888 458.71218,388.53858 440.75,407.5625 C 422.94722,388.55202 409.44408,365.49017 401.75,339.90625 C 414.43393,336.90739 427.65394,335.3125 441.25,335.3125 z M 368.1875,351.65625 C 377.40487,381.47255 393.18214,408.40979 413.84375,430.78125 C 386.14949,450.03287 352.51,461.3125 316.25,461.3125 C 302.8672,461.3125 289.84547,459.78318 277.34375,456.875 C 291.4463,410.33641 324.82274,372.15959 368.1875,351.65625 z"
     id="path2386"
     style="fill:#be0026;stroke:none" />
</svg>
