<svg width="3370" height="2244" xmlns="http://www.w3.org/2000/svg" xmlns:xlink="http://www.w3.org/1999/xlink" xml:space="preserve" overflow="hidden"><defs><clipPath id="clip0"><rect x="515" y="116" width="3370" height="2244"/></clipPath></defs><g clip-path="url(#clip0)" transform="translate(-515 -116)"><rect x="515" y="116" width="3370" height="2244" fill="#FFFFFF"/><path d="M2202.05 789.668C2242.06 789.668 2279.23 802.407 2310.06 824.224L2313 826.767 2199.83 1330.96 2087.38 829.983 2094.04 824.224C2124.88 802.407 2162.04 789.668 2202.05 789.668ZM2021.6 698.561 1980.73 713.375C1778.54 798.057 1636.67 996.304 1636.67 1227.36 1636.67 1535.44 1888.88 1785.18 2200 1785.18 2511.12 1785.18 2763.33 1535.44 2763.33 1227.36 2763.33 996.304 2621.46 798.057 2419.28 713.375L2378.4 698.561 2401.02 704.321C2676.2 789.073 2876 1043.24 2876 1343.61 2876 1713.31 2573.34 2013 2200 2013 1826.66 2013 1524 1713.31 1524 1343.61 1524 1043.24 1723.8 789.073 1998.98 704.321ZM2199.83 462C2286.41 462 2356.6 532.216 2356.6 618.831L2355.22 632.525 2356.6 632.525 2354.1 643.682 2353.42 650.438 2350.4 660.171 2326.92 764.747 2318.95 758.383C2285.58 736.565 2245.35 723.826 2202.05 723.826 2158.75 723.826 2118.52 736.565 2085.15 758.383L2073.41 767.756 2049.26 660.171 2046.24 650.438 2045.56 643.682 2043.06 632.525 2044.44 632.525 2043.06 618.831C2043.06 532.216 2113.25 462 2199.83 462Z" fill="#FF0000" fill-rule="evenodd"/></g></svg>