<?xml version="1.0" encoding="UTF-8" standalone="no"?>
<!-- Created with Inkscape (http://www.inkscape.org/) -->

<svg
   xmlns:dc="http://purl.org/dc/elements/1.1/"
   xmlns:cc="http://creativecommons.org/ns#"
   xmlns:rdf="http://www.w3.org/1999/02/22-rdf-syntax-ns#"
   xmlns:svg="http://www.w3.org/2000/svg"
   xmlns="http://www.w3.org/2000/svg"
   xmlns:sodipodi="http://sodipodi.sourceforge.net/DTD/sodipodi-0.dtd"
   xmlns:inkscape="http://www.inkscape.org/namespaces/inkscape"
   version="1.1"
   id="svg2"
   width="324"
   height="216"
   viewBox="0 0 324 216"
   sodipodi:docname="Flag of Yamakita, Kanagawa.svg"
   inkscape:version="0.92.3 (2405546, 2018-03-11)">
  <metadata
     id="metadata8">
    <rdf:RDF>
      <cc:Work
         rdf:about="">
        <dc:format>image/svg+xml</dc:format>
        <dc:type
           rdf:resource="http://purl.org/dc/dcmitype/StillImage" />
        <dc:title></dc:title>
      </cc:Work>
    </rdf:RDF>
  </metadata>
  <defs
     id="defs6" />
  <sodipodi:namedview
     pagecolor="#ffffff"
     bordercolor="#666666"
     borderopacity="1"
     objecttolerance="10"
     gridtolerance="10"
     guidetolerance="10"
     inkscape:pageopacity="0"
     inkscape:pageshadow="2"
     inkscape:window-width="1920"
     inkscape:window-height="1017"
     id="namedview4"
     showgrid="false"
     inkscape:zoom="1.7530864"
     inkscape:cx="162"
     inkscape:cy="108.40288"
     inkscape:window-x="-8"
     inkscape:window-y="-8"
     inkscape:window-maximized="1"
     inkscape:current-layer="svg2" />
  <rect
     style="opacity:1;fill:#ffffff;fill-opacity:1;fill-rule:evenodd;stroke:none;stroke-width:6.18599987;stroke-miterlimit:4;stroke-dasharray:none;stroke-opacity:1"
     id="rect840"
     width="324"
     height="216"
     x="0"
     y="0" />
  <g
     transform="translate(63.036095,-432.8147)"
     id="layer1"
     inkscape:label="レイヤー 1">
    <path
       inkscape:connector-curvature="0"
       id="path3824"
       d="m 99.534327,474.18794 -43.687118,87.37425 c -4.641672,-7.68439 -7.341867,-16.67253 -7.341867,-26.30329 0,-12.81827 4.748121,-24.51055 12.560049,-33.46313 h -19.38616 c -5.703769,9.84081 -8.980132,21.2667 -8.980132,33.46313 0,16.0799 5.651317,30.81745 15.108464,42.35223 l -16.230979,32.4923 26.30329,-22.57168 c 11.419471,9.11399 25.876801,14.56238 41.624117,14.56238 15.750269,0 30.227519,-5.44531 41.654459,-14.56238 l 26.33362,22.57168 -16.26131,-32.52263 c 9.44802,-11.53008 15.1388,-26.25688 15.1388,-42.3219 0,-12.19643 -3.30218,-23.62232 -9.01047,-33.46313 h -19.4165 c 7.81193,8.95258 12.56005,20.64486 12.56005,33.46313 0,9.60655 -2.69141,18.5709 -7.31153,26.24261 z m 0,77.66599 29.306783,25.1201 c -8.29606,5.84469 -18.41951,9.28351 -29.337119,9.28351 -10.905908,0 -21.015721,-3.41992 -29.306778,-9.25317 z"
       style="fill:#ff0000;fill-opacity:1;stroke:none;stroke-width:0.54366195" />
  </g>
</svg>
