<?xml version="1.0" encoding="UTF-8" standalone="no"?>
<!-- Created with Inkscape (http://www.inkscape.org/) -->
<svg
   xmlns:svg="http://www.w3.org/2000/svg"
   xmlns="http://www.w3.org/2000/svg"
   version="1.0"
   width="900"
   height="600"
   id="svg2">
  <defs
     id="defs5" />
  <rect
     width="900"
     height="600"
     x="0"
     y="0"
     id="rect3169"
     style="fill:#ffffff;stroke:none" />
  <path
     d="M 450,120 C 353.74807,120 274.92341,195.91187 270.21875,291 L 288.25,291 C 292.91358,205.66167 363.50597,138 450,138 C 539.51365,138 612,210.46866 612,300 C 611.99994,389.53134 539.51366,462 450,462 C 363.50596,461.99998 292.91358,394.33832 288.25,309 L 270.21875,309 C 274.92342,404.08812 353.74808,479.99998 450,480 C 549.27039,480.00001 630.03122,399.25275 630.03125,300 C 630.03124,200.74725 549.2704,120 450,120 z M 423,185 L 321,362 L 404,362 L 465,257 L 423,185 z M 502,228 L 425,362 L 579,362 L 502,228 z"
     id="path2384"
     style="fill:#be0026;stroke:none" />
</svg>
