<?xml version="1.0" encoding="UTF-8" standalone="no"?>
<svg xmlns="http://www.w3.org/2000/svg" xmlns:xlink="http://www.w3.org/1999/xlink" version="1.0" width="900" height="600">
<defs>
	<path id="a" d="M 323,173 374.125,264.8125 405.78125,255.78125 414.8125,224.125 323,173 z M 413,348.03125 450,478 487,348.03125 C 476.784,356 463.951,360.75 450,360.75 436.049,360.75 423.216,356 413,348.03125 z"/>
</defs>
<rect width="900" height="600" x="0" y="0" fill="#fff"/>
<g fill="#be0026">
	<use xlink:href="#a"/>
	<use xlink:href="#a" transform="rotate(90,450,300)"/>
	<use xlink:href="#a" transform="rotate(180,450,300)"/>
	<use xlink:href="#a" transform="rotate(270,450,300)"/>
	<path d="M 450,108 439.1875,120.625 450,133.25 460.8125,120.625 450,108 z"/>
	<path d="M 450,246 C 433.967,246 419.569,252.967 409.594,264 L 428.25,264 C 434.612,260.2 442.054,258 450,258 471.422,258 489.143,273.879 492.0625,294.5 L 414,294.5 C 413.676,296.453 413.5,298.456 413.5,300.5 413.5,302.544 413.676,304.547 414,306.5 L 492.0625,306.5 C 489.143,327.121 471.422,343 450,343 441.367,343 433.337,340.424 426.625,336 L 408.6875,336 C 418.685,347.616 433.484,355 450,355 480.084,355 504.5,330.584 504.5,300.5 504.5,270.416 480.084,246 450,246 z"/>
	<path d="M 404.84375,270 C 398.95,278.706 395.5,289.203 395.5,300.5 395.5,311.58 398.813,321.894 404.5,330.5 L 419.875,330.5 H 470.75 C 475.26,327.375 479.029,323.289 481.75,318.5 L 411.5,318.5 C 408.934,313.029 407.5,306.939 407.5,300.5 407.5,293.862 409.033,287.599 411.75,282 L 481.46875,282 C 478.623,277.17 474.704,273.075 470.03125,270 L 450.25,270 H 404.84375 z"/>
</g>
</svg>