<?xml version="1.0" encoding="UTF-8" standalone="no"?>
<!-- Created with Inkscape (http://www.inkscape.org/) -->
<svg
   xmlns:svg="http://www.w3.org/2000/svg"
   xmlns="http://www.w3.org/2000/svg"
   version="1.0"
   width="900"
   height="600"
   id="svg2">
  <defs
     id="defs5" />
  <rect
     width="900"
     height="600"
     x="0"
     y="0"
     id="rect3185"
     style="fill:#1e2a63;stroke:none" />
  <path
     d="M 450,120 C 350.76579,120 269.99998,200.76577 270,300 C 270.00001,397.22262 347.53604,476.692 444,479.875 L 444,456.875 C 359.99522,453.72984 293,384.78215 293,300 C 293,218.63453 354.71136,151.84385 433.9375,143.8125 C 433.95814,143.81041 433.97936,143.81458 434,143.8125 L 434,154.375 L 434,177.53125 L 434,188.40625 C 379.42297,196.21391 337.24999,243.31863 337.25,300 C 337.25001,360.0977 384.66235,409.4554 444,412.59375 L 444,389.5625 C 397.14821,386.4837 360.25,347.648 360.25,300 C 360.24998,255.79844 392.00473,219.21021 434,211.6875 L 434,242 L 466,242 L 466,211.6875 C 507.99526,219.2102 539.75,255.79843 539.75,300 C 539.75001,347.648 502.85179,386.48369 456,389.5625 L 456,412.59375 C 515.33764,409.45539 562.75001,360.09769 562.75,300 C 562.75003,243.31864 520.57702,196.21391 466,188.40625 L 466,177.53125 L 466,154.375 L 466,143.8125 C 545.25591,151.81531 607,218.61333 607,300 C 607.00001,384.78215 540.00479,453.72986 456,456.875 L 456,479.875 C 552.46397,476.69201 630.00002,397.22262 630,300 C 630.00003,200.76578 549.23422,120 450,120 z M 423,156 C 355.10454,168.7237 303.5,228.48412 303.5,300 C 303.49999,378.73431 366.02305,443.2164 444,446.375 L 444,423.34375 C 378.49421,420.22715 326.5,366.2889 326.5,300 C 326.49999,240.98496 367.73309,191.76287 423,179.46875 L 423,156 z M 477,156 L 477,179.46875 C 532.26691,191.76287 573.5,240.98496 573.5,300 C 573.49998,366.28891 521.5058,420.22714 456,423.34375 L 456,446.375 C 533.97695,443.2164 596.49997,378.73431 596.5,300 C 596.50001,228.48412 544.89546,168.7237 477,156 z"
     id="path2384"
     style="fill:#ffffff;stroke:none" />
</svg>
