<?xml version="1.0" encoding="UTF-8" standalone="no"?>
<!-- Created with Inkscape (http://www.inkscape.org/) -->

<svg
   xmlns:dc="http://purl.org/dc/elements/1.1/"
   xmlns:cc="http://creativecommons.org/ns#"
   xmlns:rdf="http://www.w3.org/1999/02/22-rdf-syntax-ns#"
   xmlns:svg="http://www.w3.org/2000/svg"
   xmlns="http://www.w3.org/2000/svg"
   xmlns:sodipodi="http://sodipodi.sourceforge.net/DTD/sodipodi-0.dtd"
   xmlns:inkscape="http://www.inkscape.org/namespaces/inkscape"
   version="1.1"
   id="svg4485"
   width="321"
   height="216"
   viewBox="0 0 321 216"
   sodipodi:docname="Flag_of_Miura_Kanagawa.svg"
   inkscape:version="0.92.1 r15371">
  <metadata
     id="metadata4491">
    <rdf:RDF>
      <cc:Work
         rdf:about="">
        <dc:format>image/svg+xml</dc:format>
        <dc:type
           rdf:resource="http://purl.org/dc/dcmitype/StillImage" />
        <dc:title></dc:title>
      </cc:Work>
    </rdf:RDF>
  </metadata>
  <defs
     id="defs4489" />
  <sodipodi:namedview
     pagecolor="#ffffff"
     bordercolor="#666666"
     borderopacity="1"
     objecttolerance="10"
     gridtolerance="10"
     guidetolerance="10"
     inkscape:pageopacity="0"
     inkscape:pageshadow="2"
     inkscape:window-width="1920"
     inkscape:window-height="1017"
     id="namedview4487"
     showgrid="false"
     inkscape:zoom="0.94675926"
     inkscape:cx="295.48211"
     inkscape:cy="136.53929"
     inkscape:window-x="-8"
     inkscape:window-y="-8"
     inkscape:window-maximized="1"
     inkscape:current-layer="svg4485" />
  <path
     style="opacity:1;fill:#ffffff;fill-opacity:1;stroke:none;stroke-width:1.88976383;stroke-linecap:round;stroke-linejoin:round;stroke-miterlimit:4;stroke-dasharray:none;stroke-dashoffset:0;stroke-opacity:1"
     d="M 0,0 H 321 V 216 H 0 Z"
     id="rect4505" />
  <g
     id="layer1"
     transform="matrix(0.25247314,0,0,0.25247314,67.084938,37.950538)"
     style="fill:#fc0101;fill-opacity:1">
    <path
       id="path2170"
       style="opacity:1;fill:#fc0101;fill-opacity:1;fill-rule:nonzero;stroke:none;stroke-width:100;stroke-linecap:square;stroke-linejoin:miter;stroke-miterlimit:4;stroke-dasharray:none;stroke-opacity:1"
       d="M 370,20 C 307.96525,20 250.32188,38.86069 202.46875,71.15625 167.67822,47.692865 127.71934,31.308676 84.65625,24.125 c -22.202071,17.47456 -41.861606,38.03425 -58.375,61 2.185703,-0.06255 4.371697,-0.09924 6.5625,-0.09375 C 34.61983,84.995188 36.38146,84.991474 38.15625,85 77.463334,85.188834 116.35069,96.269923 150.5,115.625 100.58196,169.21003 70,241.0456 70,320 c 0,82.62541 33.46416,157.47744 87.5625,211.75 L 199.28125,490 244.1875,534.90625 C 300.17507,480.39673 335,404.25257 335,320 c 0,-78.90034 -30.51583,-150.71517 -80.375,-204.28125 34.37545,-19.585796 73.42619,-30.787286 113.21875,-30.6875 1.77608,-0.03606 3.53771,-0.03978 5.3125,-0.03125 39.29291,0.188766 78.17208,11.251631 112.3125,30.59375 C 435.54677,169.17192 405,241.04372 405,320 c 0,84.25257 34.82493,160.39672 90.8125,214.90625 L 540.71875,490 582.4375,531.75 C 636.53584,477.47744 670,402.62541 670,320 c 0,-78.899 -30.51915,-150.70819 -80.375,-204.28125 34.37545,-19.585796 73.42619,-30.787286 113.21875,-30.6875 1.77608,-0.03606 3.53771,-0.03978 5.3125,-0.03125 1.85499,0.0089 3.7098,0.06793 5.5625,0.125 -16.51339,-22.96575 -36.17293,-43.525439 -58.375,-61 -43.06309,7.183677 -83.02197,23.567864 -117.8125,47.03125 C 489.67812,38.860691 432.03475,20 370,20 Z M 202.78125,155.1875 c 53.98719,53.50667 77.73338,135.91301 62.875,210.71875 -8.27545,45.30405 -31.46437,86.58774 -63.71875,118.9375 C 142.46772,425.1158 120.437,331.72776 144.71875,251.125 c 10.80988,-36.45409 31.3142,-69.2813 58.0625,-95.9375 z m 335,0 c 53.98719,53.50667 77.73338,135.91301 62.875,210.71875 -8.27339,45.29276 -31.4474,86.58972 -63.6875,118.9375 -59.49114,-59.72599 -81.53562,-153.10313 -57.25,-233.71875 10.80988,-36.45409 31.3142,-69.2813 58.0625,-95.9375 z"
       inkscape:connector-curvature="0" />
  </g>
</svg>
