<svg xmlns="http://www.w3.org/2000/svg" height="400" width="600">
 <rect fill="#ffffff" height="400" width="600" y="0" x="0"/>
 <path fill="#010197" d="m300 75c-44.6 0.1-85.8 23.9-108.1 62.5h-10.8c-34.5 0-62.5 28-62.5 62.5s28 62.5 62.5 62.5h10.9c22.3 38.6 63.4 62.4 108 62.5 44.6-0.1 85.8-23.9 108.1-62.5h10.9c34.5 0 62.5-28 62.5-62.5s-28-62.5-62.5-62.5h-10.8c-22.4-38.6-63.6-62.4-108.2-62.5z"/>
 <path fill="#fdfd00" d="m300 85.1c-42.26 0.1-81.1 23.3-101.1 60.5h-18.8c-29.7 0.1-53.5 24.7-53.6 54.4 0 29.7 23.8 54.4 53.6 54.4h18.7c19.4 36 56.4 58.9 97.1 60.3v-28.3c-24.7-1.1-47.7-12.7-63.3-32h115.3c9.3-8.1 16.3-18.6 20.4-30.2h-151.5c-2.3-7.8-3.5-16.1-3.5-24.2 0-47.9 38.8-86.7 86.7-86.7 22.3 0.1 43.8 8.7 59.9 24.2h36.4c-21.1-32.7-57.4-52.4-96.3-52.5zm-47.9 60.5c-9.3 8.1-16.3 18.6-20.4 30.2h151.5c2.3 7.8 3.5 16.1 3.5 24.2 0 46.3-36.5 84.4-82.7 86.5v28.2c40.7-1.5 77.7-24.4 97.1-60.2l18.8-0.1c29.7-0.1 53.5-24.7 53.6-54.4 0-29.7-23.8-54.4-53.6-54.4zm-71.1 30.2h6.8c-1.8 8-2.7 16.1-2.7 24.2 0 8.1 0.9 16.2 2.7 24.19h-6.7c-13.4 0-24.2-10.8-24.2-24.2 0-13.4 10.8-24.2 24.2-24.2zm231.2 0h6.7c13.4 0 24.2 10.8 24.2 24.2 0 13.4-10.8 24.2-24.2 24.2h-6.8c1.8-8 2.7-16.1 2.7-24.19 0-8.1-0.9-16.2-2.7-24.2z"/>
</svg>
