<?xml version="1.0" encoding="UTF-8" standalone="no"?>
<!-- Created with Inkscape (http://www.inkscape.org/) -->
<svg
   xmlns:svg="http://www.w3.org/2000/svg"
   xmlns="http://www.w3.org/2000/svg"
   version="1.0"
   width="900"
   height="600"
   id="svg2">
  <defs
     id="defs5" />
  <rect
     width="900"
     height="600"
     x="0"
     y="0"
     id="rect2430"
     style="fill:#ffffff;stroke:none" />
  <path
     d="M 450.25,119.875 C 415.33382,119.875 382.7503,129.8348 355.125,147.03125 C 348.71446,143.09018 342.03928,139.5222 335.125,136.40625 C 316.75253,149.34286 300.67443,165.29206 287.5625,183.53125 C 294.50066,185.05416 301.20387,187.18758 307.625,189.875 C 283.97383,220.38761 269.875,258.68137 269.875,300.25 C 269.875,396.38326 345.19032,474.9941 440,480.3125 L 440,419.8125 C 378.55829,414.60048 330.25,363.03295 330.25,300.25 C 330.25,272.52105 339.65541,246.98312 355.46875,226.65625 C 369.83588,245.25789 378.7748,268.27149 379.875,293.3125 L 380,372.0625 C 395.85332,387.47525 416.76225,397.69841 440,400 C 440,400 439.875,293.3125 439.875,293.3125 C 438.74776,254.45744 425.12739,218.72095 402.90625,189.96875 C 417.43591,183.71716 433.43742,180.25 450.25,180.25 C 459.71591,180.25 468.91683,181.36022 477.75,183.4375 C 490.86331,165.14287 507.0085,149.17616 525.46875,136.28125 C 502.5684,125.7477 477.09865,119.875 450.25,119.875 z M 565.15625,136.28125 C 558.58836,139.22733 552.24145,142.55946 546.125,146.25 C 526.5118,158.25038 508.97559,174.0987 495.15625,192.53125 C 474.08881,220.83075 461.2189,255.60673 460.125,293.3125 L 460,400 C 483.23775,397.69841 504.14668,387.47525 520,372.0625 C 520,372.0625 520.125,293.3125 520.125,293.3125 C 521.23147,268.12898 530.26922,245.00054 544.78125,226.34375 C 560.7434,246.72166 570.25,272.37702 570.25,300.25 C 570.24999,363.20319 521.67955,414.86996 460,419.84375 L 460,480.34375 C 555.04532,475.27494 630.62498,396.55262 630.625,300.25 C 630.625,258.62542 616.49004,220.28269 592.78125,189.75 C 599.21599,187.08465 605.92556,184.93529 612.875,183.4375 C 599.72627,165.16876 583.58313,149.22185 565.15625,136.28125 z"
     id="path2388"
     style="fill:#be0026;stroke:none" />
</svg>
