<svg xmlns="http://www.w3.org/2000/svg" height="400" width="600">
 <rect fill="#ffffff" height="400" width="600" y="0" x="0"/>
 <path fill="#ae3846" d="m291.2 72.6v9.1c-63.7 4.5-114.2 57.8-114.2 122.7 0.1 57.4 39.8 107 95.7 119.8 5.6-17.5 9.5-35.1 9.6-50.8 0-28.2-8.5-55.8-24.4-79.1h-22.2c18.7 22.1 28.9 50.1 29 79.1 0 9.8-1.3 19.5-3.6 29-39.7-15.7-66.6-54.2-66.7-98 0-55.3 42.57-100.6 96.7-105v17.5c-44.4 4.413-79.1 41.8-79.1 87.5 0 28.2 13.6 54.6 36.4 71.1l6.3-17.2c-15.9-13.4-25.1-33.1-25.1-53.8 0-35.8 26.9-65.4 61.5-69.7v192.6h17.6v-192.6c34.7 4.3 61.5 33.9 61.5 69.7 0 20.8-9.2 40.5-25.1 53.8l6.3 17.1c22.8-16.5 36.4-42.9 36.4-71.1 0-45.6-34.7-83.1-79.1-87.5v-17.5c54.1 4.5 96.5 49.8 96.5 105 0 43.8-27 82.3-66.7 98-2.3-9.5-3.6-19.2-3.6-29 0-28.9 10.3-56.9 29-79.1h-22.2c-15.9 23.3-24.4 50.9-24.4 79.1 0.1 17.4 3.3 34.6 9.7 50.7 55.9-12.7 95.6-62.4 95.7-119.8 0-64.9-50.4-118.1-114.1-122.7v-9h-17.6z"/>
</svg>
