<svg width="600" height="400" version="1.1" xmlns="http://www.w3.org/2000/svg">
 <rect width="600" height="400" fill="#ffffff"/>
 <path d="m167.6 269.5h60v-37.9h-81.9zm286.7-37.9h-70v37.9h48.1zm-311-4.2h70v-37.9h-91.9zm335.3-37.9h-90v37.9h68.1zm-362.1-8.4h100v-37.9h-121.9zm388.8-37.9h-120v37.9h98.1zm-224.3-63.2v14.222a113.7 113.7 0 0 0-12.6 221.3v-40.3a75.8 75.8 0 0 1 12.6-142.3v185.5a113.7 113.7 0 0 0 37.9 0v-185.5a75.8 75.8 0 0 1 12.6 142.3v40.3a113.7 113.7 0 0 0-12.6-221.3v-14.2z" fill="#bc0019"/>
</svg>
