<?xml version="1.0" encoding="UTF-8" standalone="no"?>
<!-- Created with Inkscape (http://www.inkscape.org/) -->
<svg
   xmlns:svg="http://www.w3.org/2000/svg"
   xmlns="http://www.w3.org/2000/svg"
   version="1.0"
   width="900"
   height="600"
   id="svg2">
  <defs
     id="defs5" />
  <rect
     width="900"
     height="600"
     x="0"
     y="0"
     id="rect2424"
     style="fill:#ffffff;stroke:none" />
  <path
     d="M 436.3125,120.15625 C 356.47565,127.10016 293.75001,194.1223 293.75,275.75 C 293.75,333.53969 325.18644,384.03106 371.875,411.0625 L 332,480 L 398.90625,480 C 410.54572,464.46155 429.10586,454.40625 450,454.40625 C 470.89415,454.40625 489.45428,464.46155 501.09375,480 L 568,480 L 528.125,411.0625 C 574.81355,384.03106 606.24998,333.5397 606.25,275.75 C 606.25,194.12228 543.52434,127.10016 463.6875,120.15625 L 460.09375,129.625 C 519.47426,134.74338 566.125,184.61346 566.125,245.3125 C 566.12501,293.71824 536.4466,335.20463 494.3125,352.625 L 450,276 L 405.6875,352.625 C 363.5534,335.20463 333.875,293.71823 333.875,245.3125 C 333.875,184.61347 380.52575,134.74338 439.90625,129.625 L 436.3125,120.15625 z"
     id="path2386"
     style="fill:#be0327;stroke:none" />
  <path
     d="M 410,365 L 410,373 L 425,373 L 425,379 L 410,379 L 410,387 L 425,387 L 425,393 L 410,393 L 410,402 L 410,435 L 419,435 L 419,402 L 425,402 L 425,435 L 434,435 L 434,402 L 440,402 L 440,435 L 449,435 L 449,396 L 449,393 L 434,393 L 434,387 L 449,387 L 449,379 L 434,379 L 434,373 L 449,373 L 449,365 L 410,365 z"
     id="rect2400"
     style="fill:#ffffff;stroke:none" />
  <path
     d="M 455,365 L 455,379 L 455,388 L 455,425.9375 L 455,434.9375 L 455,435 L 464,435 L 464,434.9375 L 477,434.9375 L 477,435 L 486,435 L 486,434.9375 L 486,425.9375 L 486,388 L 486,379 L 486,365 L 477,365 L 477,379 L 464,379 L 464,365 L 455,365 z M 464,388 L 477,388 L 477,425.9375 L 464,425.9375 L 464,388 z"
     id="rect2406"
     style="fill:#ffffff;stroke:none" />
</svg>
