<svg width="600" height="400" version="1.1" xmlns="http://www.w3.org/2000/svg">
 <rect width="600" height="400" fill="#400080"/>
 <path d="m294.1 80.2a120 120 0 0 0-112.6 101.9h12.2a108 108 0 0 1 100.5-89.8zm12 40.1a80 80 0 0 1 73.8 73.8h12a92 92 0 0 0-73.8-84.2v-16.3a108 108 0 0 1 89.8 100.5h12a120 120 0 0 0-113.9-113.9zm-12-12a92 92 0 0 0-85.8 85.8h-28a120 120 0 0 0 113.9 125.9v-12a108 108 0 0 1-101.8-101.8h28.1a80 80 0 0 1 73.8-85.8zm85.8 97.8a80 80 0 0 1-73.8 73.8v40.1a120 120 0 0 0 113.9-113.9zm-170 12a92 92 0 0 0 84.2 73.8v-12a80 80 0 0 1-71.9-61.8zm180.4 0h16.3a108 108 0 0 1-88.5 88.5v-16.3a92 92 0 0 0 72.2-72.2z" fill="#ffffff"/>
 <path d="m300.1 166v68m-34-34h68" fill="none" stroke="#ffffff" stroke-linecap="round" stroke-width="12"/>
</svg>
