<?xml version="1.0" encoding="UTF-8" standalone="no"?>
<!-- Generator: Adobe Illustrator 18.0.0, SVG Export Plug-In . SVG Version: 6.00 Build 0)  -->

<svg
   xmlns:dc="http://purl.org/dc/elements/1.1/"
   xmlns:cc="http://creativecommons.org/ns#"
   xmlns:rdf="http://www.w3.org/1999/02/22-rdf-syntax-ns#"
   xmlns:svg="http://www.w3.org/2000/svg"
   xmlns="http://www.w3.org/2000/svg"
   xmlns:sodipodi="http://sodipodi.sourceforge.net/DTD/sodipodi-0.dtd"
   xmlns:inkscape="http://www.inkscape.org/namespaces/inkscape"
   version="1.1"
   x="0px"
   y="0px"
   viewBox="0 0 324 216"
   style="enable-background:new 0 0 324 216;"
   width="324"
   height="216"
   xml:space="preserve"
   id="svg34"
   sodipodi:docname="Flag of Katashina Gunma.svg"
   inkscape:version="0.92.3 (2405546, 2018-03-11)"><metadata
   id="metadata40"><rdf:RDF><cc:Work
       rdf:about=""><dc:format>image/svg+xml</dc:format><dc:type
         rdf:resource="http://purl.org/dc/dcmitype/StillImage" /><dc:title></dc:title></cc:Work></rdf:RDF></metadata><defs
   id="defs38"><style
     id="style1023"
     type="text/css">
   <![CDATA[
    .fil1 {fill:#FEFEFE}
    .fil0 {fill:#7092BF}
   ]]>
  </style><style
     id="style1066"
     type="text/css">
   <![CDATA[
    .fil0 {fill:#400000}
    .fil1 {fill:white}
   ]]>
  </style><style
     id="style2-3"
     type="text/css">
   <![CDATA[
    .fil1 {fill:#FEFEFE}
    .fil0 {fill:#018821}
   ]]>
  </style><path
     id="e2FACu9Ylf"
     d="M0 0L1000 0L1000 690L0 690L0 0Z" /><path
     id="a1saAh7sU9"
     d="M192.35 456.13C192.35 456.93 192.36 457.72 192.37 458.51C206.56 404.56 242.13 342.98 290.62 288.46C379.67 188.44 495.88 146.55 550.18 194.89C574.97 217.06 583.41 255.72 573.8 303.1C617.48 220.39 621.71 147.44 584.76 114.37C530.46 66.03 406.01 117.19 306.78 228.64C239.29 304.43 195.68 391.15 192.35 456.13Z" /><path
     id="a1Tbbvve3K"
     d="M292.89 327.57C227.05 401.52 181.99 483.9 174.69 543.68C167.39 603.46 198.95 631.56 257.48 617.39C269.77 614.36 283.01 609.52 296.94 602.97C293.49 603.91 290.12 604.68 286.83 605.26C246.22 612.19 222.55 591.11 224.74 549.98C226.93 508.84 254.63 453.89 297.43 405.83C352.39 344.17 420.82 306.71 467.93 312.49C444.26 370.44 444.01 419.02 467.23 445.21C509.06 491.95 614.03 455.42 706.55 361.93C706.61 361.98 707.06 362.38 707.11 362.43C772.95 288.49 818.01 206.11 825.31 146.33C832.61 86.55 801.05 58.45 742.52 72.62C730.23 75.65 716.99 80.49 703.06 87.04C706.51 86.1 709.88 85.33 713.17 84.75C753.78 77.82 777.45 98.89 775.26 140.03C773.07 181.17 745.37 236.12 702.57 284.18C647.61 345.84 579.18 383.3 532.07 377.52C555.74 319.57 555.99 270.98 532.77 244.8C490.94 198.06 385.97 234.59 293.45 328.07C293.34 327.97 293 327.67 292.89 327.57Z" /><path
     id="a15x9jlPKO"
     d="M807.64 233.9C807.64 233.11 807.63 232.31 807.62 231.52C793.43 285.48 757.85 347.06 709.37 401.57C620.32 501.59 504.11 543.49 449.81 495.14C425.02 472.97 416.58 434.31 426.19 386.94C382.51 469.65 378.28 542.6 415.23 575.66C469.52 624 593.98 572.84 693.21 461.39C760.69 385.6 804.31 298.88 807.64 233.9Z" /></defs><sodipodi:namedview
   pagecolor="#ffffff"
   bordercolor="#666666"
   borderopacity="1"
   objecttolerance="10"
   gridtolerance="10"
   guidetolerance="10"
   inkscape:pageopacity="0"
   inkscape:pageshadow="2"
   inkscape:window-width="1920"
   inkscape:window-height="1017"
   id="namedview36"
   showgrid="false"
   inkscape:zoom="1.9213705"
   inkscape:cx="166.33711"
   inkscape:cy="134.91606"
   inkscape:window-x="-8"
   inkscape:window-y="-8"
   inkscape:window-maximized="1"
   inkscape:current-layer="svg34" />
<style
   type="text/css"
   id="style2">
	.st0{fill:#606;}
	.st1{fill:#fff;}
</style>


<style
   id="style847"
   type="text/css">
	.st0{fill:#000040;}
	.st1{fill:#fff;}
</style><style
   id="style865"
   type="text/css">
	.st0{fill:#3F47CD;}
	.st1{fill:#fff;}
	.st2{fill:none;stroke:#fff;stroke-width:10;}
</style><style
   id="style914"
   type="text/css">
	.st0{fill:#004101;}
	.st1{fill:#fff;}
</style><style
   id="style1245"
   type="text/css">
	.st0{fill:#400040;}
	.st1{fill:#fff;}
</style><style
   id="style1328"
   type="text/css">
	.st0{fill:#fff;}
	.st1{fill:#F35911;}
	.st2{fill:#008143;}
	.st3{fill:#0066AC;}
</style><style
   id="style1432"
   type="text/css">
	.st0{fill:#004080;}
	.st1{fill:#fff;}
</style><style
   id="style1470"
   type="text/css">
	.st0{fill:#23B14D;}
	.st1{fill:#fff;}
	.st2{fill:#F01630;}
</style><style
   id="style1541"
   type="text/css">
	.st0{fill:#3F47CD;}
	.st1{fill:#fff;}
</style><g
   style="display:inline;stroke-width:1.35273945"
   id="layer2"
   transform="matrix(0.69827586,0,0,0.7826087,-1.3168985e-5,8.7900389e-6)"><rect
     y="-1.5333333e-006"
     x="1.374815e-006"
     height="276"
     width="464"
     id="rect5993"
     style="fill:#14b8ff;fill-opacity:1;stroke-width:0.2705479" /><path
     d="m 98.754911,47.717151 -0.01594,64.540959 c 1.440589,13.01341 10.518979,21.34277 23.678179,21.84184 l 105.77246,-0.99604 V 72.375002 C 228.02155,59.96493 220.64025,47.912773 196.12749,47.717151 Z m 86.275599,12.884325 c 32.95366,-0.18723 29.03286,14.993363 29.23732,31.751803 v 30.696091 l -71.55854,0.35113 c -30.67506,-0.50354 -29.91927,-14.72226 -30.46084,-26.459447 v -36.16286 z"
     style="fill:#ffffff;fill-opacity:1;stroke:none;stroke-width:1.35273945px;stroke-linecap:butt;stroke-linejoin:miter;stroke-opacity:1"
     id="path11858"
     inkscape:connector-curvature="0" /><path
     d="m 263.41694,46.220789 c -13.1592,0.49907 -22.2376,8.828444 -23.67818,21.841843 l 0.0159,64.540958 h 97.37259 c 25.24458,0.90376 30.23739,-11.94365 30.90772,-25.6539 V 46.220789 Z m 14.43513,13.832173 c 0.88021,-0.0072 1.78877,-6.96e-4 2.72902,0.02296 l 72.77409,0.183602 v 31.292791 c -0.20442,17.084925 3.51262,31.857765 -29.43679,31.666885 l -72.36448,-0.004 -0.20481,-36.337259 c 0.30135,-11.848747 -0.78368,-26.60181 26.50297,-26.824364 z"
     style="fill:#ffffff;fill-opacity:1;stroke:none;stroke-width:1.35273945px;stroke-linecap:butt;stroke-linejoin:miter;stroke-opacity:1"
     id="path11858-4"
     inkscape:connector-curvature="0" /><path
     id="path23959"
     d="M 186.46211,118.46172 202.0001,99.762835 170.51521,81.857768 C 154.23371,63.07857 123.68318,88.294432 154.4661,100.46845 Z"
     style="fill:#fbc914;fill-opacity:1;stroke:none;stroke-width:1.35273945px;stroke-linecap:butt;stroke-linejoin:miter;stroke-opacity:1"
     inkscape:connector-curvature="0" /><path
     id="path23959-9"
     d="M 277.50624,118.9029 262.68382,100.46862 297.6443,77.977037 c 15.35131,-13.390073 41.10752,6.701261 18.50249,17.993255 z"
     style="display:inline;fill:#fbc914;fill-opacity:1;stroke:none;stroke-width:1.35273945px;stroke-linecap:butt;stroke-linejoin:miter;stroke-opacity:1"
     inkscape:connector-curvature="0" /><path
     id="path28702"
     d="m 228.57825,143.33477 -0.40889,41.10228 -57.55193,0.2646 c -4.48579,-0.0397 -7.0715,3.88595 -0.10223,5.38035 l 57.85858,0.0882 0.30667,18.08147 c -0.72518,13.07036 -12.7188,20.52877 -25.24924,20.99214 l -29.33818,-0.26459 -0.30668,-3.96911 c -0.25785,-5.09814 -4.8124,-6.61371 -6.9512,0 l -0.20445,4.2337 -67.876518,-0.35281 v -61.30057 c 0.0041,-7.72453 8.075838,-24.73846 28.213738,-24.60846 l 40.27612,0.44102 -0.10223,4.2337 c 1.04798,3.76456 6.58177,3.47689 6.95123,0.52923 l -0.10224,-4.85113 z"
     style="fill:#00ff01;fill-opacity:1;stroke:none;stroke-width:1.35273945px;stroke-linecap:butt;stroke-linejoin:miter;stroke-opacity:1"
     inkscape:connector-curvature="0" /><path
     d="m 238.93282,143.17681 0.43356,41.03981 128.22977,-0.37409 -0.14363,-18.08716 c 0.0957,-8.2806 -4.45084,-22.51968 -25.01079,-22.45232 z m 40.33429,17.83701 h 48.64639 c 3.72662,0.46488 2.94107,3.73975 -0.36173,3.61928 l -48.86451,-0.12622 c -3.18502,-1.22684 -2.32889,-3.1055 0.57985,-3.49306 z"
     style="fill:#01fd04;fill-opacity:1;stroke:none;stroke-width:1.35273945px;stroke-linecap:butt;stroke-linejoin:miter;stroke-opacity:1"
     id="path45160"
     inkscape:connector-curvature="0" /><path
     id="path62145"
     d="m 239.00507,190.082 60.20972,-0.0882 -0.10223,38.80902 -31.38266,0.26459 c -21.5142,-0.23159 -28.23602,-8.24724 -28.72486,-22.05057 z"
     style="fill:#00ff00;fill-opacity:1;stroke:none;stroke-width:1.35273945px;stroke-linecap:butt;stroke-linejoin:miter;stroke-opacity:1"
     inkscape:connector-curvature="0" /><rect
     y="190.2034"
     x="305.43332"
     height="38.917912"
     width="62.597115"
     id="rect69151"
     style="fill:#00ff01;fill-opacity:1;stroke:none;stroke-width:0.2705479;stroke-opacity:1" /></g></svg>