<?xml version="1.0" encoding="UTF-8" standalone="no"?>
<!-- Created with Inkscape (http://www.inkscape.org/) -->

<svg
   xmlns:dc="http://purl.org/dc/elements/1.1/"
   xmlns:cc="http://creativecommons.org/ns#"
   xmlns:rdf="http://www.w3.org/1999/02/22-rdf-syntax-ns#"
   xmlns:svg="http://www.w3.org/2000/svg"
   xmlns="http://www.w3.org/2000/svg"
   xmlns:sodipodi="http://sodipodi.sourceforge.net/DTD/sodipodi-0.dtd"
   xmlns:inkscape="http://www.inkscape.org/namespaces/inkscape"
   version="1.1"
   id="svg2"
   width="323"
   height="215"
   viewBox="0 0 323 215"
   sodipodi:docname="Flag of Takasaki, Gunma.svg"
   inkscape:version="0.92.3 (2405546, 2018-03-11)">
  <metadata
     id="metadata8">
    <rdf:RDF>
      <cc:Work
         rdf:about="">
        <dc:format>image/svg+xml</dc:format>
        <dc:type
           rdf:resource="http://purl.org/dc/dcmitype/StillImage" />
        <dc:title></dc:title>
      </cc:Work>
    </rdf:RDF>
  </metadata>
  <defs
     id="defs6" />
  <sodipodi:namedview
     pagecolor="#ffffff"
     bordercolor="#666666"
     borderopacity="1"
     objecttolerance="10"
     gridtolerance="10"
     guidetolerance="10"
     inkscape:pageopacity="0"
     inkscape:pageshadow="2"
     inkscape:window-width="1920"
     inkscape:window-height="1017"
     id="namedview4"
     showgrid="false"
     inkscape:zoom="0.97921519"
     inkscape:cx="247.35434"
     inkscape:cy="129.90929"
     inkscape:window-x="-8"
     inkscape:window-y="-8"
     inkscape:window-maximized="1"
     inkscape:current-layer="svg2" />
  <style
     id="style847"
     type="text/css">
	.st0{fill:#fff;}
	.st1{fill:#1B1986;}
</style>
  <style
     id="style934"
     type="text/css">
	.st0{fill:#000040;}
	.st1{fill:#FFFFFF;}
</style>
  <g
     id="g901"
     transform="matrix(0.35888885,0,0,0.35837692,2.7136472e-5,-9.9185381e-6)"
     style="stroke-width:2.78836751">
    <rect
       style="fill:#660066;fill-opacity:1;stroke:none;stroke-width:2.78836751"
       id="rect2439"
       y="8.730769e-006"
       x="-1.2505552e-012"
       height="600"
       width="900" />
    <path
       style="fill:#ffffff;stroke:none;stroke-width:2.78836751"
       id="rect2418"
       d="M 449.5,123.02244 119.5,301.51122 449.5,480 779.5,301.51122 Z m 0,35.69776 63.78125,28.75652 H 385.75 Z m -107.65625,48.55762 23.46875,53.11281 c -13.87349,8.81842 -23.03125,24.11432 -23.03125,41.61639 0,17.50208 9.15776,32.79798 23.03125,41.6164 L 342.21875,395.89956 132.9375,301.51122 Z M 557.6875,207.52572 766,301.51122 557.3125,395.65166 534.40625,343.80934 c 14.03189,-8.78914 23.31249,-24.18159 23.3125,-41.80232 10e-6,-17.61147 -9.26173,-33.01083 -23.28125,-41.80232 z m -173.84375,12.67395 h 131.9375 l -14.25,32.22714 h -103.4375 z m 8.34375,66.43749 h 115.625 c 9.14104,0 16.5,6.85496 16.5,15.36986 2e-5,8.51491 -7.35897,15.36987 -16.5,15.36987 h -115.625 c -9.14103,0 -16.5,-6.85496 -16.5,-15.36987 -10e-6,-8.5149 7.35897,-15.36986 16.5,-15.36986 z m 5.90625,64.95008 h 103.4375 l 14.25,32.22714 H 383.84375 Z M 387.9375,416.53732 H 511.03125 L 449.5,444.30225 Z"
       inkscape:connector-curvature="0" />
  </g>
</svg>
