<?xml version="1.0" encoding="UTF-8" standalone="no"?>
<!-- Created with Inkscape (http://www.inkscape.org/) -->

<svg
   xmlns:dc="http://purl.org/dc/elements/1.1/"
   xmlns:cc="http://creativecommons.org/ns#"
   xmlns:rdf="http://www.w3.org/1999/02/22-rdf-syntax-ns#"
   xmlns:svg="http://www.w3.org/2000/svg"
   xmlns="http://www.w3.org/2000/svg"
   xmlns:sodipodi="http://sodipodi.sourceforge.net/DTD/sodipodi-0.dtd"
   xmlns:inkscape="http://www.inkscape.org/namespaces/inkscape"
   version="1.1"
   id="svg4485"
   width="324"
   height="216"
   viewBox="0 0 324 216"
   sodipodi:docname="Flag_of_Oizumi_Gunma.svg"
   inkscape:version="0.92.1 r15371">
  <metadata
     id="metadata4491">
    <rdf:RDF>
      <cc:Work
         rdf:about="">
        <dc:format>image/svg+xml</dc:format>
        <dc:type
           rdf:resource="http://purl.org/dc/dcmitype/StillImage" />
        <dc:title></dc:title>
      </cc:Work>
    </rdf:RDF>
  </metadata>
  <defs
     id="defs4489" />
  <sodipodi:namedview
     pagecolor="#ffffff"
     bordercolor="#666666"
     borderopacity="1"
     objecttolerance="10"
     gridtolerance="10"
     guidetolerance="10"
     inkscape:pageopacity="0"
     inkscape:pageshadow="2"
     inkscape:window-width="1920"
     inkscape:window-height="1017"
     id="namedview4487"
     showgrid="false"
     inkscape:zoom="2.6778396"
     inkscape:cx="156.13993"
     inkscape:cy="113.97864"
     inkscape:window-x="-8"
     inkscape:window-y="-8"
     inkscape:window-maximized="1"
     inkscape:current-layer="svg4485" />
  <path
     style="opacity:1;fill:#660066;fill-opacity:1;stroke:none;stroke-width:47.24409485;stroke-linecap:round;stroke-linejoin:round;stroke-miterlimit:4;stroke-dasharray:none;stroke-dashoffset:0;stroke-opacity:1"
     d="M 0,0 H 324 V 216 H 0 Z"
     id="rect4507" />
  <g
     id="layer1"
     transform="matrix(0.31453863,0,0,0.31453863,-5.1272733,-20.031031)"
     style="fill:#ffffff">
    <path
       style="fill:#ffffff;fill-opacity:1;stroke:none"
       id="path2869"
       d="m 306.34101,428.93187 c 0.40187,28.93157 6.45201,57.7741 17.71009,84.42843 11.25808,26.65434 27.71586,51.10095 48.17554,71.56063 20.4597,20.4597 44.90631,36.91748 71.56063,48.17556 26.65435,11.25808 55.49687,17.3082 84.42845,17.71007 V 613.2986 c -31.24724,-0.52085 -62.32945,-9.01131 -89.50213,-24.4485 l 92.62742,-175.54473 92.62743,175.54473 c -27.17267,15.43719 -58.25488,23.92765 -89.50212,24.4485 v 37.50796 c 28.93157,-0.40187 57.7741,-6.45201 84.42843,-17.71009 26.65434,-11.25808 51.10095,-27.71584 71.56063,-48.17554 20.4597,-20.45968 36.91746,-44.90629 48.17554,-71.56063 11.25808,-26.65433 17.30822,-55.49686 17.71009,-84.42843 h -37.50796 c -0.51337,30.79771 -8.7644,61.43653 -23.7865,88.32705 -15.02211,26.89051 -36.78606,49.98046 -62.39886,67.99495 L 549.56168,239.1758 c 45.31418,4.424 88.74234,26.02287 119.61254,59.48896 30.8702,33.46608 48.9,78.49319 49.65883,124.01651 h 37.50796 c -0.395,-28.43792 -6.24498,-56.79033 -17.13828,-83.06213 -10.8933,-26.27179 -26.82244,-50.445 -46.66655,-70.81858 -19.8441,-20.37358 -43.58958,-36.93358 -69.56551,-48.51473 -25.97591,-11.58115 -54.1645,-18.17549 -82.58216,-19.31901 l -9.0475,-37.68558 -9.0475,37.68558 c -28.41766,1.14352 -56.60625,7.73786 -82.58216,19.31901 -25.97593,11.58115 -49.72141,28.14115 -69.56551,48.51473 -19.84411,20.37358 -35.77325,44.54679 -46.66655,70.81858 -10.8933,26.2718 -16.74328,54.62421 -17.13828,83.06213 h 37.50796 C 344.6078,377.15795 362.6376,332.13084 393.5078,298.66476 424.378,265.19867 467.80616,243.5998 513.12034,239.1758 l -82.74266,344.64797 c -25.95615,-16.58439 -47.7201,-39.67434 -62.74221,-66.56485 -15.0221,-26.89052 -23.27313,-57.52934 -23.7865,-88.32705 z"
       inkscape:connector-curvature="0" />
    <g
       id="g2877"
       transform="translate(88.08507,295.46875)"
       style="fill:#ffffff" />
  </g>
</svg>
