<?xml version="1.0" standalone="no"?>
<!DOCTYPE svg PUBLIC "-//W3C//DTD SVG 20010904//EN"
 "http://www.w3.org/TR/2001/REC-SVG-20010904/DTD/svg10.dtd">
<svg version="1.0" xmlns="http://www.w3.org/2000/svg"
 width="441.000000pt" height="261.000000pt" viewBox="0 0 441.000000 261.000000"
 preserveAspectRatio="xMidYMid meet">

<g transform="translate(0.000000,261.000000) scale(0.100000,-0.100000)"
fill="#000000" stroke="none">
<path d="M0 1305 l0 -1305 2205 0 2205 0 0 1305 0 1305 -2205 0 -2205 0 0
-1305z m3107 740 l-72 -215 -556 0 -556 0 -36 -77 c-52 -112 -61 -154 -61
-283 -1 -101 3 -126 28 -204 70 -213 236 -374 461 -447 58 -19 91 -22 195 -22
124 1 124 1 100 -18 -49 -37 -206 -109 -282 -128 -120 -31 -209 -36 -316 -17
-332 58 -604 296 -686 601 -9 33 -19 103 -22 155 -8 119 18 252 69 363 l36 77
-92 0 -92 0 -72 215 -71 215 1048 0 1048 0 -71 -215z m-204 -329 c97 -241 64
-519 -87 -730 -36 -50 -57 -69 -110 -95 -139 -71 -314 -64 -484 21 -73 35 -83
43 -68 52 77 46 112 76 152 130 133 180 161 433 70 632 l-25 54 263 0 264 0
25 -64z m-1812 -1276 c39 -21 19 -30 -51 -24 -47 5 -70 3 -70 -4 0 -27 14 -42
39 -42 31 0 71 -25 71 -44 0 -9 -14 -13 -44 -12 -26 1 -41 5 -36 10 10 10 2
36 -11 36 -5 0 -9 -42 -9 -94 0 -94 -8 -118 -34 -97 -9 8 -11 40 -8 127 l5
117 -36 -6 c-22 -3 -42 0 -54 8 -16 12 -15 14 17 19 103 17 195 19 221 6z
m627 -15 c2 -9 -5 -30 -16 -44 -16 -22 -19 -37 -15 -74 4 -29 10 -44 16 -40 6
4 8 0 4 -10 -3 -8 -9 -32 -13 -51 -8 -43 -21 -54 -41 -34 -12 13 -13 25 -3 78
6 34 9 64 7 67 -3 2 -17 -7 -32 -21 -26 -25 -45 -26 -45 -4 0 5 25 37 55 71
30 33 55 67 55 75 0 19 24 9 28 -13z m1617 1 c12 -8 16 -19 11 -31 -5 -15 -2
-16 21 -11 16 4 47 9 71 13 35 5 42 3 42 -11 0 -10 -9 -16 -24 -16 -33 0 -35
-6 -24 -71 7 -44 6 -64 -6 -93 -21 -51 -39 -54 -83 -15 l-38 32 33 -6 c25 -5
34 -2 42 13 14 26 13 113 -2 128 -22 22 -38 13 -38 -21 0 -45 -21 -73 -45 -60
-11 7 -30 7 -49 2 -16 -5 -34 -5 -38 -1 -11 11 -26 132 -17 138 5 3 14 -4 21
-16 15 -23 38 -27 38 -5 0 8 -4 15 -10 15 -17 0 -11 18 8 23 35 9 69 7 87 -7z
m-659 -39 l27 -23 -17 -58 c-29 -100 -59 -128 -90 -85 -13 20 -18 20 -82 10
-38 -6 -72 -7 -76 -3 -8 8 -40 164 -34 169 6 7 55 -38 61 -57 5 -16 10 -18 31
-8 31 14 27 42 -6 46 l-24 4 24 14 c14 7 55 13 92 14 56 0 71 -4 94 -23z
m-796 -12 c10 -12 9 -16 -6 -22 -11 -3 -31 -14 -45 -25 -25 -17 -27 -17 -25 0
1 11 -7 18 -23 20 -22 4 -21 6 15 22 49 23 68 24 84 5z m21 -105 c41 -22 18
-31 -73 -28 -100 3 -125 19 -43 26 28 2 52 6 54 8 8 8 42 4 62 -6z"/>
<path d="M3280 406 c0 -8 5 -18 10 -21 6 -3 10 3 10 14 0 12 -4 21 -10 21 -5
0 -10 -6 -10 -14z"/>
<path d="M3285 347 c-4 -10 -5 -21 -1 -24 10 -10 18 4 13 24 -4 17 -4 17 -12
0z"/>
<path d="M3230 334 c0 -8 5 -12 10 -9 6 3 10 10 10 16 0 5 -4 9 -10 9 -5 0
-10 -7 -10 -16z"/>
<path d="M2562 370 c7 -11 18 -20 25 -20 25 0 23 -21 -3 -45 -15 -14 -25 -26
-23 -28 54 -32 62 -28 77 40 13 55 1 73 -49 73 -37 0 -38 -1 -27 -20z"/>
<path d="M2470 289 c0 -8 3 -18 6 -22 9 -9 35 4 28 14 -3 5 0 9 5 9 6 0 11 4
11 10 0 5 -11 9 -25 8 -15 -2 -25 -9 -25 -19z"/>
</g>
</svg>
