<?xml version="1.0" standalone="no"?>
<!DOCTYPE svg PUBLIC "-//W3C//DTD SVG 20010904//EN"
 "http://www.w3.org/TR/2001/REC-SVG-20010904/DTD/svg10.dtd">
<svg version="1.0" xmlns="http://www.w3.org/2000/svg"
 width="384.000000pt" height="272.000000pt" viewBox="0 0 384.000000 272.000000"
 preserveAspectRatio="xMidYMid meet">

<g transform="translate(0.000000,272.000000) scale(0.100000,-0.100000)"
fill="#000000" stroke="none">
<path d="M0 1360 l0 -1360 1920 0 1920 0 0 1360 0 1360 -1920 0 -1920 0 0
-1360z m2033 846 c59 -165 106 -305 103 -313 -3 -7 -15 -13 -28 -13 -24 0
-146 69 -168 94 -21 26 -44 19 -144 -45 -93 -59 -120 -67 -132 -36 -4 10 203
578 223 610 3 4 12 7 21 5 12 -2 48 -90 125 -302z m-73 -300 c0 -43 1 -44 38
-49 58 -10 135 -53 191 -108 56 -55 81 -97 104 -176 l16 -53 -57 0 -57 0 -17
48 c-23 64 -77 125 -140 156 -70 35 -78 34 -78 -11 1 -36 4 -39 51 -62 37 -17
59 -36 80 -69 16 -25 29 -50 29 -54 0 -4 -28 -8 -62 -8 -47 0 -69 5 -88 20
-14 11 -36 20 -50 20 -14 0 -36 -9 -50 -20 -19 -15 -41 -20 -97 -20 -40 0 -73
3 -73 8 0 35 107 142 142 142 4 0 8 18 8 40 0 48 -7 49 -78 14 -63 -31 -117
-92 -140 -156 l-17 -48 -54 0 -54 0 6 33 c5 32 22 74 52 129 41 73 166 161
248 175 36 5 37 7 37 49 l0 44 55 0 55 0 0 -44z m-492 -528 l3 -106 107 -98
c106 -97 122 -117 104 -128 -5 -3 -146 -26 -312 -52 -277 -42 -304 -44 -319
-30 -20 21 -29 6 193 295 217 281 220 282 224 119z m362 73 c0 -32 54 -81 90
-81 36 0 90 49 90 81 0 18 9 19 151 19 l152 0 -6 -48 c-18 -149 -117 -279
-255 -334 -80 -31 -214 -31 -294 0 -136 55 -234 182 -254 331 l-7 51 167 0
c156 0 166 -1 166 -19z m751 -221 c107 -127 194 -238 194 -248 0 -10 -9 -18
-22 -20 -33 -5 -596 78 -610 90 -29 24 -10 41 103 94 l116 54 -7 119 c-7 121
-4 141 19 141 7 0 100 -104 207 -230z m-1309 -690 c-4 -30 -4 -30 45 -30 27 0
54 5 59 10 7 7 17 5 30 -5 17 -13 12 -14 -58 -15 l-78 0 0 -31 0 -32 55 6 c30
3 57 1 60 -4 4 -5 -43 -8 -117 -7 -68 1 -102 3 -75 5 45 4 47 6 47 34 0 29 -1
29 -57 31 l-58 2 58 3 c56 4 57 5 57 33 0 22 5 30 18 30 15 0 18 -6 14 -30z
m799 -115 c-1 -72 -5 -133 -9 -137 -4 -4 -21 -3 -37 1 l-30 9 28 1 27 1 0 125
0 125 -110 0 -110 0 0 -134 c0 -79 -4 -137 -10 -141 -6 -4 -10 45 -10 140 l0
146 131 -3 131 -3 -1 -130z m542 106 c-4 -15 119 -15 135 1 10 9 16 8 29 -5
16 -16 15 -17 -25 -17 l-42 0 0 -102 c0 -57 -4 -109 -9 -116 -5 -9 -17 -11
-37 -6 l-29 8 25 6 c24 6 25 8 28 108 l3 102 -41 0 -40 0 0 -80 c0 -47 -4 -80
-10 -80 -5 0 -10 5 -10 10 0 6 -20 10 -45 10 -38 0 -45 -3 -45 -20 0 -11 -4
-20 -10 -20 -6 0 -10 43 -10 108 l0 107 67 -1 c44 -1 67 -6 66 -13z m-713 -16
c6 -8 10 -22 8 -32 -3 -14 -7 -11 -20 15 -17 33 -10 43 12 17z m85 -16 c-19
-35 -13 -49 15 -32 14 10 21 9 30 -2 11 -13 5 -15 -39 -15 l-51 0 0 -50 c0
-43 3 -50 20 -50 17 0 20 7 20 40 0 32 4 40 18 40 15 0 17 -7 12 -52 -3 -28
-11 -53 -17 -56 -7 -2 -13 1 -13 7 0 6 -19 11 -45 11 -25 0 -45 -4 -45 -10 0
-5 -7 -10 -15 -10 -12 0 -15 13 -15 55 0 42 3 55 15 55 11 0 15 -11 15 -40 0
-29 4 -40 15 -40 11 0 15 12 15 49 l0 50 -37 4 c-29 3 -24 4 18 5 56 2 57 2
63 37 4 21 13 35 22 35 13 0 12 -4 -1 -31z m-627 -155 c3 -45 -15 -85 -25 -56
-3 8 -29 12 -79 12 -59 0 -74 -3 -74 -15 0 -8 -4 -15 -10 -15 -6 0 -10 28 -10
63 l0 62 97 -2 98 -1 3 -48z"/>
<path d="M1630 1360 c0 -17 40 -81 67 -106 14 -13 51 -36 82 -51 46 -23 69
-28 131 -28 84 1 139 22 198 79 29 26 72 93 72 111 0 3 -17 5 -37 5 -32 0 -41
-6 -60 -34 -29 -44 -112 -86 -173 -86 -61 0 -144 42 -173 86 -19 30 -27 34
-64 34 -24 0 -43 -4 -43 -10z"/>
<path d="M2500 495 c0 -24 5 -35 15 -35 10 0 15 11 15 35 0 24 -5 35 -15 35
-10 0 -15 -11 -15 -35z"/>
<path d="M2550 495 c0 -28 4 -35 20 -35 16 0 20 7 20 35 0 28 -4 35 -20 35
-16 0 -20 -7 -20 -35z"/>
<path d="M2500 415 c0 -24 5 -35 15 -35 10 0 15 11 15 35 0 24 -5 35 -15 35
-10 0 -15 -11 -15 -35z"/>
<path d="M2550 415 c0 -28 4 -35 20 -35 16 0 20 7 20 35 0 28 -4 35 -20 35
-16 0 -20 -7 -20 -35z"/>
<path d="M1180 345 l0 -35 75 0 75 0 0 35 0 35 -75 0 -75 0 0 -35z"/>
</g>
</svg>
