<svg xmlns="http://www.w3.org/2000/svg" width="600" height="400"><path fill="#870017" d="M0 0h600v400H0z"/><g fill="#fff"><path d="M410.247 221.593c0-33.044-48.507-59.833-109.576-59.833s-110.576 26.789-110.576 59.833c0 29.676 39.929 53.302 92.303 58.015v-6.522c-40.353-4.072-68.102-20.73-68.102-39.929 0-21.905 37.981-39.734 85.831-39.734s83.83 17.828 83.83 39.734c0 19.47-24.5 36.347-67.147 40.083v6.546c53.417-4.226 93.437-28.115 93.437-58.193z"/><path d="M166.973 107.102l128.758 223.732V71.642c-45.095 1.169-91.501 12.384-128.758 35.46zm44.975 16.965s25.026-10.603 53.678-12.725l9.792 154.751-63.47-142.026zm91.909-52.425v81.383c4.901.275 15.596-.614 26.143 1.475l2.755-43.267c28.652 2.122 53.991 12.469 53.991 12.469l-18.285 41.318c8.46 3.428 16.683 7.704 23.959 13.035l40.132-70.954c-33.809-23.386-83.599-34.29-128.695-35.459zm19.226 195.51l4.942-84.617c-11.245-1.785-19.476-1.871-24.168-1.826v150.125l74.353-128.267c-6.41-5.256-13.637-9.263-21.037-12.308l-34.09 76.893z"/></g></svg>