<?xml version="1.0" encoding="UTF-8" standalone="no"?>
<!-- Created with Inkscape (http://www.inkscape.org/) -->

<svg
   xmlns:dc="http://purl.org/dc/elements/1.1/"
   xmlns:cc="http://creativecommons.org/ns#"
   xmlns:rdf="http://www.w3.org/1999/02/22-rdf-syntax-ns#"
   xmlns:svg="http://www.w3.org/2000/svg"
   xmlns="http://www.w3.org/2000/svg"
   xmlns:sodipodi="http://sodipodi.sourceforge.net/DTD/sodipodi-0.dtd"
   xmlns:inkscape="http://www.inkscape.org/namespaces/inkscape"
   version="1.1"
   id="svg2"
   width="323"
   height="215"
   viewBox="0 0 323 215"
   sodipodi:docname="Flag of Kiryu, Gunma.svg"
   inkscape:version="0.92.3 (2405546, 2018-03-11)">
  <metadata
     id="metadata8">
    <rdf:RDF>
      <cc:Work
         rdf:about="">
        <dc:format>image/svg+xml</dc:format>
        <dc:type
           rdf:resource="http://purl.org/dc/dcmitype/StillImage" />
        <dc:title></dc:title>
      </cc:Work>
    </rdf:RDF>
  </metadata>
  <defs
     id="defs6" />
  <sodipodi:namedview
     pagecolor="#ffffff"
     bordercolor="#666666"
     borderopacity="1"
     objecttolerance="10"
     gridtolerance="10"
     guidetolerance="10"
     inkscape:pageopacity="0"
     inkscape:pageshadow="2"
     inkscape:window-width="1920"
     inkscape:window-height="1017"
     id="namedview4"
     showgrid="false"
     inkscape:zoom="1.633704"
     inkscape:cx="288.63624"
     inkscape:cy="10.866468"
     inkscape:window-x="-8"
     inkscape:window-y="-8"
     inkscape:window-maximized="1"
     inkscape:current-layer="svg2" />
  <style
     id="style847"
     type="text/css">
	.st0{fill:#fff;}
	.st1{fill:#1B1986;}
</style>
  <style
     id="style934"
     type="text/css">
	.st0{fill:#000040;}
	.st1{fill:#FFFFFF;}
</style>
  <g
     id="g933"
     transform="matrix(0.35888885,0,0,0.36,2.7136472e-5,-1.0161983e-5)"
     style="stroke-width:2.78207445">
    <rect
       style="fill:#5e0871;stroke:none;stroke-width:2.78207469"
       id="rect2434"
       y="3.0019331e-007"
       x="-1.2691706e-012"
       height="597.29486"
       width="900" />
    <path
       style="fill:#ffffff;stroke:none;stroke-width:2.78207445"
       id="path2428"
       d="m 449.90625,100.28125 c -30.81003,16.93566 -34.96875,41.125 -34.96875,41.125 -10e-6,0 -31.29385,0.46893 -50.5625,21.59375 6.8943,34.47146 28.15626,46.21875 28.15625,46.21875 -10e-6,0 -9.99477,35.02425 5.03125,55 35.88568,4.41941 52.53125,-12.90625 52.53125,-12.90625 -10e-6,0 18.33033,16.01592 52.625,13.1875 15.20279,-24.04162 5.6875,-55.09375 5.6875,-55.09375 10e-6,0 24.10555,-17.74253 27.90625,-46.46875 -18.82674,-21.1248 -51.21875,-21.78125 -51.21875,-21.78125 -10e-6,0 -6.67555,-27.42309 -35.1875,-40.875 z m 0,14.75 c 17.37501,15.75 16,54.125 16,54.125 10e-6,0 34.4386,-12.64321 56.09375,-2.125 -12.19761,23.24614 -46.84375,31.8125 -46.84375,31.8125 10e-6,0 22.16329,24.3104 20.21875,53.125 -23.86484,-2.47487 -45.46875,-34.0625 -45.46875,-34.0625 10e-6,0 -17.08981,31.20282 -44.84375,34.03125 -0.53032,-29.16815 19.96875,-53.09375 19.96875,-53.09375 -10e-6,0 -33.05425,-5.6906 -46.3125,-31.5 23.86484,-11.49049 56.34375,1.8125 56.34375,1.8125 10e-6,0 -2.53125,-38.25 14.84375,-54.125 z M 343,222.8125 234.8125,331 343,439.1875 384.5,397.6875 450,499.96875 515.6875,397.375 557.5,439.1875 665.6875,331 557.5,222.8125 491.21875,289.09375 450,263.3125 409.09375,288.90625 Z m 0,43.84375 39.125,39.125 L 341.8125,331 367.40625,370.9375 343,395.34375 278.65625,331 Z m 214.5,0 L 621.84375,331 557.5,395.34375 532.8125,370.65625 558.1875,331 l -40,-25.03125 z M 450,300.28125 514.34375,340.25 450,442.25 l -64.34375,-102 z"
       inkscape:connector-curvature="0" />
  </g>
</svg>
