<?xml version="1.0" standalone="no"?>
<!DOCTYPE svg PUBLIC "-//W3C//DTD SVG 20010904//EN"
 "http://www.w3.org/TR/2001/REC-SVG-20010904/DTD/svg10.dtd">
<svg version="1.0" xmlns="http://www.w3.org/2000/svg"
 width="469.000000pt" height="342.000000pt" viewBox="0 0 469.000000 342.000000"
 preserveAspectRatio="xMidYMid meet">

<g transform="translate(0.000000,342.000000) scale(0.100000,-0.100000)"
fill="#000000" stroke="none">
<path d="M2261 2381 c-32 -6 -34 -8 -34 -46 l0 -40 86 0 c90 -1 103 -5 94 -30
-5 -12 -25 -15 -97 -15 l-90 0 0 -65 c0 -58 -2 -65 -20 -65 -16 0 -20 7 -20
35 0 34 -1 35 -39 35 -22 0 -42 4 -45 9 -7 10 19 33 62 55 31 16 32 19 26 59
-4 23 -9 44 -11 47 -2 2 -29 -9 -60 -25 -69 -36 -140 -106 -171 -168 -13 -26
-29 -47 -36 -47 -19 0 -32 -20 -39 -57 -5 -25 -3 -33 8 -33 17 0 23 -22 27
-105 5 -82 52 -180 117 -245 47 -47 117 -89 149 -90 9 0 12 49 12 215 0 241
-2 235 78 235 l39 0 2 58 c1 31 6 61 10 65 5 5 28 7 52 5 l44 -3 3 -62 3 -63
44 0 45 0 0 65 c0 65 0 65 29 65 49 0 62 -37 19 -53 -23 -8 -25 -75 -3 -84 23
-8 28 2 13 26 -9 15 -10 26 -2 38 19 30 33 25 50 -16 15 -39 18 -41 60 -41 32
0 44 4 44 15 0 26 -40 120 -65 156 -23 30 -32 35 -83 39 -49 4 -57 8 -57 25 0
14 8 21 30 25 28 5 27 6 -35 37 -81 39 -172 56 -239 44z m-173 -225 c4 -20
-15 -46 -33 -46 -21 0 -25 26 -8 49 17 25 36 23 41 -3z m4 -246 c1 -61 2 -118
2 -127 1 -12 -6 -18 -19 -18 -14 0 -28 17 -50 59 -25 50 -30 71 -30 130 0 70
0 71 30 77 59 11 65 0 67 -121z"/>
<path d="M2340 2096 c0 -13 -3 -31 -6 -40 -4 -12 0 -16 15 -16 18 0 21 6 21
40 0 29 -4 40 -15 40 -9 0 -15 -9 -15 -24z"/>
<path d="M2445 1992 c-96 -2 -145 -6 -135 -12 8 -5 11 -13 6 -17 -4 -4 -13 0
-20 10 -8 10 -26 17 -45 17 -29 0 -31 -2 -31 -35 l0 -35 248 2 247 3 3 33 c3
32 3 32 -40 33 -24 0 -52 1 -63 2 -11 1 -87 1 -170 -1z"/>
<path d="M2328 1873 c-76 -3 -108 -7 -109 -16 -1 -30 2 -281 4 -283 1 -1 19
-5 40 -9 l37 -7 0 115 c0 83 3 117 13 120 26 9 37 -6 37 -48 0 -49 6 -57 38
-48 18 4 22 13 22 48 0 28 5 45 14 48 18 7 40 -18 33 -38 -12 -29 11 -24 47
11 28 27 40 34 49 25 24 -24 -86 -107 -173 -131 -14 -3 -25 -12 -24 -18 1 -7
2 -26 3 -43 1 -31 2 -31 42 -25 106 17 225 113 275 221 18 38 30 73 28 77 -5
8 -138 8 -376 1z"/>
<path d="M1670 1599 c0 -5 5 -7 10 -4 6 3 10 8 10 11 0 2 -4 4 -10 4 -5 0 -10
-5 -10 -11z"/>
<path d="M2924 1599 c-7 -13 -5 -15 24 -23 27 -9 29 5 2 21 -13 9 -21 9 -26 2z"/>
<path d="M2255 551 c-8 -13 35 -41 62 -41 29 0 29 14 1 34 -25 18 -54 21 -63
7z"/>
<path d="M3308 493 c6 -56 -11 -73 -72 -73 l-40 0 23 -17 c13 -9 38 -19 55
-22 l30 -7 -43 -47 c-27 -29 -41 -52 -37 -62 7 -19 20 -19 36 0 21 25 30 17
30 -29 0 -24 6 -48 13 -55 24 -19 34 6 30 69 -5 54 -3 61 22 84 21 19 113 52
121 43 1 -1 5 -37 9 -79 7 -71 6 -78 -11 -78 -17 0 -74 46 -74 61 0 4 14 12
30 18 40 13 38 31 -3 31 -22 0 -36 -7 -45 -21 -12 -18 -10 -26 14 -61 32 -46
83 -88 107 -88 28 0 36 33 30 128 l-6 92 24 0 c13 0 30 4 38 9 11 7 10 11 -7
20 -11 6 -28 11 -36 11 -12 0 -14 7 -10 29 7 34 -10 71 -34 71 -14 0 -17 -10
-17 -55 l0 -56 -60 -25 c-33 -14 -66 -28 -73 -31 -10 -4 -11 2 -6 23 4 16 10
34 14 39 13 17 3 85 -15 105 -31 34 -43 25 -37 -27z"/>
<path d="M1148 508 c13 -6 21 -17 18 -24 -3 -8 3 -10 17 -6 12 3 19 1 15 -3
-4 -4 -24 -9 -45 -11 -21 -2 -51 -6 -66 -10 -15 -4 -27 -3 -26 2 6 37 -2 54
-27 54 -22 0 -24 -3 -15 -14 7 -8 9 -25 5 -40 -5 -21 -12 -26 -38 -26 -29 -1
-30 -2 -12 -15 10 -8 24 -16 29 -18 7 -2 6 -19 -3 -51 -12 -45 -12 -48 9 -62
29 -21 27 -38 -10 -68 -36 -31 -18 -34 28 -6 l33 20 17 -28 c9 -15 19 -29 21
-32 1 -2 7 2 12 10 7 12 12 12 22 2 22 -22 30 -12 27 40 -2 36 1 53 10 56 11
4 13 -4 8 -34 -4 -22 -3 -45 2 -53 11 -17 17 -6 26 46 11 69 28 65 23 -5 -4
-59 -4 -61 14 -45 17 15 20 15 41 -5 39 -37 53 -29 61 36 6 52 5 59 -16 76
-18 14 -33 17 -66 12 -32 -4 -43 -3 -39 7 2 6 16 14 32 17 16 3 30 11 33 18 3
9 -13 11 -70 6 -67 -6 -71 -5 -53 9 23 18 16 31 -11 20 -30 -12 -29 -51 2 -59
29 -7 27 -25 -4 -39 -16 -7 -22 -19 -22 -42 0 -44 -14 -49 -28 -9 -9 24 -9 41
-2 60 18 49 13 76 -19 89 -31 13 -30 20 6 50 21 18 21 18 16 -1 -6 -24 16 -40
28 -21 6 9 12 10 17 4 4 -5 16 -10 27 -10 11 0 21 -6 21 -12 1 -7 2 -17 3 -23
0 -5 8 -10 16 -10 11 0 15 12 15 50 0 50 0 50 33 50 l32 -1 -28 -24 c-32 -28
-18 -43 24 -26 13 5 18 10 12 10 -28 2 -11 21 17 21 19 0 30 5 30 14 0 18 -22
26 -78 27 -46 1 -46 1 -14 10 57 17 35 29 -50 28 -68 0 -79 -2 -60 -11z m42
-68 c0 -5 -11 -10 -25 -10 -14 0 -25 5 -25 10 0 6 11 10 25 10 14 0 25 -4 25
-10z m-118 -65 c3 -3 1 -24 -4 -46 -9 -34 -14 -39 -32 -33 -29 9 -30 11 -13
29 9 8 19 24 22 35 6 20 16 25 27 15z m230 -108 c6 -31 -9 -70 -24 -65 -7 3
-14 23 -16 46 -3 36 0 42 16 42 13 0 21 -8 24 -23z"/>
<path d="M2325 494 c-27 -8 -74 -14 -104 -14 -50 0 -53 -1 -35 -15 10 -8 27
-15 36 -15 22 0 28 -11 22 -37 -6 -22 -44 -39 -54 -24 -6 10 -50 -5 -50 -17 0
-4 6 -17 14 -27 13 -18 14 -18 45 4 30 21 31 22 31 3 0 -11 6 -25 14 -32 12
-9 16 -5 22 27 4 21 8 51 8 68 1 20 7 31 19 33 19 4 23 -23 8 -74 -10 -34 2
-64 24 -64 10 0 15 10 15 29 0 24 5 29 31 35 17 3 42 6 55 6 29 0 31 15 5 30
-26 14 -64 13 -55 -1 6 -11 -12 -29 -29 -29 -5 0 -7 19 -5 43 3 36 6 42 28 45
35 5 46 18 24 30 -13 6 -36 5 -69 -4z"/>
<path d="M1255 380 c3 -5 20 -10 36 -10 18 0 28 4 24 10 -3 6 -20 10 -36 10
-18 0 -28 -4 -24 -10z"/>
<path d="M2325 297 c-38 -5 -72 -12 -75 -14 -10 -9 35 -33 61 -33 18 0 35 -9
48 -26 30 -38 27 -44 -26 -44 -43 0 -49 4 -94 53 -52 55 -63 48 -26 -17 30
-53 77 -76 152 -75 33 0 68 4 79 8 17 7 16 10 -12 42 -17 19 -47 44 -66 54
-68 37 -18 59 64 29 53 -19 71 -14 54 14 -13 21 -62 23 -159 9z"/>
<path d="M2130 227 c0 -49 15 -77 42 -77 18 0 20 4 14 31 -3 17 -6 38 -6 46 0
8 -5 11 -11 8 -6 -4 -17 1 -24 11 -13 17 -14 16 -15 -19z"/>
</g>
</svg>
