<svg width="600" height="400" version="1.1" xmlns="http://www.w3.org/2000/svg" xmlns:xlink="http://www.w3.org/1999/xlink">
 <rect width="600" height="400" fill="#7d516c"/>
 <g fill="#ffffff">
  <path d="m318.8 92.5c-7.9-1.2-15.7-7-18.8-12.5-3.1 5.4-10.8 11.3-18.8 12.5z"/>
  <g id="b">
   <path d="m306.4 119.7a86 86 0 0 0-12.7 0v171.4a86 86 0 0 0 12.7 0z"/>
   <path id="a" d="m252.7 133.6a86 86 0 0 1 11.5-6.3 36.6 36.6 0 0 0 71.6 0 86 86 0 0 1 11.5 6.3 49.3 49.3 0 0 1-94.5 0zm114.8 4.4c0-16.9-3.7-28.9-15.7-34.7-16.2-7.8-33.8-12.4-51.8-12.4a114.6 114.6 0 0 0-51.8 12.3c-12 5.8-15.7 17.8-15.7 34.7a95.5 95.5 0 0 1 135.1 0.2z"/>
  <use transform="rotate(180,300,205.5)" xlink:href="#a"/>
  </g>
  <use transform="rotate(90,300,205.5)" xlink:href="#b"/>
 </g>
</svg>
