<?xml version="1.0" standalone="no"?>
<!DOCTYPE svg PUBLIC "-//W3C//DTD SVG 20010904//EN"
 "http://www.w3.org/TR/2001/REC-SVG-20010904/DTD/svg10.dtd">
<svg version="1.0" xmlns="http://www.w3.org/2000/svg"
 width="852.000000pt" height="522.000000pt" viewBox="0 0 852.000000 522.000000"
 preserveAspectRatio="xMidYMid meet">

<g transform="translate(0.000000,522.000000) scale(0.100000,-0.100000)"
fill="#000000" stroke="none">
<path d="M0 2610 l0 -2610 4260 0 4260 0 0 2610 0 2610 -4260 0 -4260 0 0
-2610z m5079 1750 c100 -24 103 -33 13 -44 -29 -4 -86 -18 -125 -32 -100 -36
-242 -124 -199 -124 4 0 12 4 18 9 18 18 164 41 258 41 152 0 252 -40 361
-145 134 -128 251 -189 494 -254 178 -49 426 -64 569 -35 l32 7 0 -49 c0 -87
-29 -243 -64 -349 -140 -417 -450 -704 -762 -705 -59 0 -196 24 -269 47 -27 8
-80 31 -117 50 -65 34 -94 60 -216 201 -172 199 -490 159 -600 -75 -25 -53
-27 -66 -23 -153 10 -238 8 -260 -26 -330 -41 -85 -77 -121 -169 -166 -68 -34
-83 -38 -154 -38 -68 0 -87 4 -147 34 -163 80 -307 296 -378 566 -36 134 -45
372 -21 519 48 291 202 573 400 734 214 174 463 285 706 315 93 11 327 -2 419
-24z m-893 -57 c-34 -5 -120 -61 -221 -144 -199 -161 -348 -377 -429 -620 -50
-148 -67 -259 -71 -444 -3 -143 -6 -167 -29 -228 -76 -202 -75 -417 4 -582 65
-136 214 -282 349 -342 144 -64 353 -85 488 -50 186 49 347 186 444 380 112
221 105 462 -18 688 -7 12 66 39 106 39 40 0 121 -26 121 -39 0 -3 12 -12 28
-19 15 -7 54 -45 87 -86 90 -110 250 -211 403 -252 32 -9 121 -18 203 -21
l147 -6 6 -101 c6 -82 3 -121 -14 -206 -108 -537 -467 -1003 -954 -1239 -370
-179 -805 -219 -1205 -111 -768 208 -1316 954 -1277 1740 21 446 193 831 511
1146 190 188 373 301 665 413 133 50 159 56 300 71 63 7 120 14 125 15 6 2 66
3 135 3 69 -1 112 -3 96 -5z"/>
</g>
</svg>
