<?xml version="1.0" encoding="UTF-8" standalone="no"?>
<!-- Generator: Adobe Illustrator 18.0.0, SVG Export Plug-In . SVG Version: 6.00 Build 0)  -->

<svg
   xmlns:dc="http://purl.org/dc/elements/1.1/"
   xmlns:cc="http://creativecommons.org/ns#"
   xmlns:rdf="http://www.w3.org/1999/02/22-rdf-syntax-ns#"
   xmlns:svg="http://www.w3.org/2000/svg"
   xmlns="http://www.w3.org/2000/svg"
   xmlns:sodipodi="http://sodipodi.sourceforge.net/DTD/sodipodi-0.dtd"
   xmlns:inkscape="http://www.inkscape.org/namespaces/inkscape"
   version="1.1"
   x="0px"
   y="0px"
   viewBox="0 0 324 216"
   style="enable-background:new 0 0 324 216;"
   width="324"
   height="216"
   xml:space="preserve"
   id="svg34"
   sodipodi:docname="Flag of Tomioka Gunma.svg"
   inkscape:version="0.92.3 (2405546, 2018-03-11)"><metadata
   id="metadata40"><rdf:RDF><cc:Work
       rdf:about=""><dc:format>image/svg+xml</dc:format><dc:type
         rdf:resource="http://purl.org/dc/dcmitype/StillImage" /><dc:title></dc:title></cc:Work></rdf:RDF></metadata><defs
   id="defs38"><style
     id="style1023"
     type="text/css">
   <![CDATA[
    .fil1 {fill:#FEFEFE}
    .fil0 {fill:#7092BF}
   ]]>
  </style><style
     id="style1066"
     type="text/css">
   <![CDATA[
    .fil0 {fill:#400000}
    .fil1 {fill:white}
   ]]>
  </style><style
     id="style2-3"
     type="text/css">
   <![CDATA[
    .fil1 {fill:#FEFEFE}
    .fil0 {fill:#018821}
   ]]>
  </style><path
     id="e2FACu9Ylf"
     d="M0 0L1000 0L1000 690L0 690L0 0Z" /><path
     id="a1saAh7sU9"
     d="M192.35 456.13C192.35 456.93 192.36 457.72 192.37 458.51C206.56 404.56 242.13 342.98 290.62 288.46C379.67 188.44 495.88 146.55 550.18 194.89C574.97 217.06 583.41 255.72 573.8 303.1C617.48 220.39 621.71 147.44 584.76 114.37C530.46 66.03 406.01 117.19 306.78 228.64C239.29 304.43 195.68 391.15 192.35 456.13Z" /><path
     id="a1Tbbvve3K"
     d="M292.89 327.57C227.05 401.52 181.99 483.9 174.69 543.68C167.39 603.46 198.95 631.56 257.48 617.39C269.77 614.36 283.01 609.52 296.94 602.97C293.49 603.91 290.12 604.68 286.83 605.26C246.22 612.19 222.55 591.11 224.74 549.98C226.93 508.84 254.63 453.89 297.43 405.83C352.39 344.17 420.82 306.71 467.93 312.49C444.26 370.44 444.01 419.02 467.23 445.21C509.06 491.95 614.03 455.42 706.55 361.93C706.61 361.98 707.06 362.38 707.11 362.43C772.95 288.49 818.01 206.11 825.31 146.33C832.61 86.55 801.05 58.45 742.52 72.62C730.23 75.65 716.99 80.49 703.06 87.04C706.51 86.1 709.88 85.33 713.17 84.75C753.78 77.82 777.45 98.89 775.26 140.03C773.07 181.17 745.37 236.12 702.57 284.18C647.61 345.84 579.18 383.3 532.07 377.52C555.74 319.57 555.99 270.98 532.77 244.8C490.94 198.06 385.97 234.59 293.45 328.07C293.34 327.97 293 327.67 292.89 327.57Z" /><path
     id="a15x9jlPKO"
     d="M807.64 233.9C807.64 233.11 807.63 232.31 807.62 231.52C793.43 285.48 757.85 347.06 709.37 401.57C620.32 501.59 504.11 543.49 449.81 495.14C425.02 472.97 416.58 434.31 426.19 386.94C382.51 469.65 378.28 542.6 415.23 575.66C469.52 624 593.98 572.84 693.21 461.39C760.69 385.6 804.31 298.88 807.64 233.9Z" /><style
     id="style1747"
     type="text/css">
   <![CDATA[
    .fil1 {fill:#FEFEFE}
    .fil0 {fill:#A349A3}
   ]]>
  </style></defs><sodipodi:namedview
   pagecolor="#ffffff"
   bordercolor="#666666"
   borderopacity="1"
   objecttolerance="10"
   gridtolerance="10"
   guidetolerance="10"
   inkscape:pageopacity="0"
   inkscape:pageshadow="2"
   inkscape:window-width="1920"
   inkscape:window-height="1017"
   id="namedview36"
   showgrid="false"
   inkscape:zoom="1.3586141"
   inkscape:cx="196.66262"
   inkscape:cy="116.62329"
   inkscape:window-x="-8"
   inkscape:window-y="-8"
   inkscape:window-maximized="1"
   inkscape:current-layer="svg34" />
<style
   type="text/css"
   id="style2">
	.st0{fill:#606;}
	.st1{fill:#fff;}
</style>


<style
   id="style847"
   type="text/css">
	.st0{fill:#000040;}
	.st1{fill:#fff;}
</style><style
   id="style865"
   type="text/css">
	.st0{fill:#3F47CD;}
	.st1{fill:#fff;}
	.st2{fill:none;stroke:#fff;stroke-width:10;}
</style><style
   id="style914"
   type="text/css">
	.st0{fill:#004101;}
	.st1{fill:#fff;}
</style><style
   id="style1245"
   type="text/css">
	.st0{fill:#400040;}
	.st1{fill:#fff;}
</style><style
   id="style1328"
   type="text/css">
	.st0{fill:#fff;}
	.st1{fill:#F35911;}
	.st2{fill:#008143;}
	.st3{fill:#0066AC;}
</style><style
   id="style1432"
   type="text/css">
	.st0{fill:#004080;}
	.st1{fill:#fff;}
</style><style
   id="style1470"
   type="text/css">
	.st0{fill:#23B14D;}
	.st1{fill:#fff;}
	.st2{fill:#F01630;}
</style><style
   id="style1541"
   type="text/css">
	.st0{fill:#3F47CD;}
	.st1{fill:#fff;}
</style><style
   id="style1614"
   type="text/css">
	.st0{fill:#800080;}
	.st1{fill:none;stroke:#fff;stroke-width:3;}
	.st2{fill:#fff;}
</style><style
   id="style1691"
   type="text/css">
	.st0{fill:#880015;}
	.st1{fill:#FFFFFF;}
</style><g
   id="g1825"
   transform="translate(-25.29481,73.388775)"><path
     id="path1806"
     d="M 25.294801,-73.388769 H 349.29479 V 142.61123 H 25.294801 Z"
     inkscape:connector-curvature="0"
     style="fill:#ffffff;stroke:#ffffff;stroke-width:0.09380001" /><path
     id="path1808"
     d="m 151.08884,-36.09632 c 12.6833,-2.724219 25.94391,8.226426 26.01497,21.282964 0.77273,10.9237604 -7.57623,21.3008852 -18.17229,23.2633985 -8.09138,1.6130245 -16.94659,-1.8101721 -21.90268,-8.4683791 -4.33434,-5.3409036 -5.44458,-12.7339334 -4.04124,-19.3652554 2.06059,-8.495263 9.44142,-15.565688 18.10124,-16.712728 z"
     inkscape:connector-curvature="0"
     style="fill:#d6903b;stroke:#d6903b;stroke-width:0.094;stroke-miterlimit:4;stroke-dasharray:none" /><path
     id="path1810"
     d="m 181.29605,-21.08623 c 13.58925,-5.421555 29.02593,-7.133153 43.12056,-2.742142 2.53221,0.50183 2.41675,4.839074 -0.23981,4.964531 -23.34065,1.568219 -44.08069,21.7668712 -46.17681,45.308068 -0.94147,9.830489 2.52246,20.368917 10.27632,26.677635 7.69169,6.551568 18.54533,8.09111 28.16438,5.914424 16.05842,-3.593461 29.67431,-15.780758 36.06925,-30.943188 1.10135,-2.473305 1.50014,-5.188563 2.59351,-7.661868 0.96812,-1.613024 3.55274,-1.290419 4.38675,0.331567 1.56321,15.261005 -2.61926,30.701234 -10.33849,43.793617 -12.86893,22.000759 -35.60739,38.640906 -61.02728,41.651886 -6.83015,0.0448 -13.80242,0.66313 -20.50823,-1.03055 -11.27108,-2.57188 -21.79608,-8.952287 -28.76835,-18.334713 -8.53547,-11.210521 -11.69742,-25.915928 -10.23191,-39.823785 1.25235,-12.993808 6.31501,-25.387214 13.4738,-36.185518 8.02031,4.068406 17.96801,4.140097 25.81957,-0.376372 10.9087,-5.8516948 16.74408,-19.5265583 13.38674,-31.543592 z"
     inkscape:connector-curvature="0"
     style="fill:#5b7eb0;stroke:#5b7eb0;stroke-width:0.094;stroke-miterlimit:4;stroke-dasharray:none" /><path
     id="path1812"
     d="m 224.98593,-8.1103432 c 2.98342,3.002018 5.51564,6.3983309 8.44666,9.445155 2.105,-2.15069939 4.20111,-4.31036 6.27948,-6.4879433 5.01025,6.5237883 10.04627,13.0386153 14.85935,19.7057835 -2.10589,1.236652 -4.2553,2.921367 -4.77933,5.475323 -3.20547,13.101343 -12.60247,24.311865 -24.44289,30.423435 -8.82768,4.535288 -19.81632,6.147416 -29.0348,1.854978 -8.74864,-3.934883 -13.82907,-13.791359 -13.29615,-23.254437 9.13055,-11.434552 18.33305,-22.8242979 27.3659,-34.3395011 2.07836,2.2044669 4.16471,4.39997254 6.22619,6.6134007 2.96654,-2.9930567 5.64886,-6.2370283 8.37559,-9.4361938 z"
     inkscape:connector-curvature="0"
     style="fill:#339976;stroke:#339976;stroke-width:0.094;stroke-miterlimit:4;stroke-dasharray:none" /></g></svg>