<?xml version="1.0" encoding="UTF-8" standalone="no"?>
<!-- Created with Inkscape (http://www.inkscape.org/) -->

<svg
   xmlns:dc="http://purl.org/dc/elements/1.1/"
   xmlns:cc="http://creativecommons.org/ns#"
   xmlns:rdf="http://www.w3.org/1999/02/22-rdf-syntax-ns#"
   xmlns:svg="http://www.w3.org/2000/svg"
   xmlns="http://www.w3.org/2000/svg"
   xmlns:sodipodi="http://sodipodi.sourceforge.net/DTD/sodipodi-0.dtd"
   xmlns:inkscape="http://www.inkscape.org/namespaces/inkscape"
   version="1.1"
   id="svg2"
   width="323"
   height="215"
   viewBox="0 0 323 215"
   sodipodi:docname="Flag of Ota, Gunma.svg"
   inkscape:version="0.92.3 (2405546, 2018-03-11)">
  <metadata
     id="metadata8">
    <rdf:RDF>
      <cc:Work
         rdf:about="">
        <dc:format>image/svg+xml</dc:format>
        <dc:type
           rdf:resource="http://purl.org/dc/dcmitype/StillImage" />
        <dc:title></dc:title>
      </cc:Work>
    </rdf:RDF>
  </metadata>
  <defs
     id="defs6" />
  <sodipodi:namedview
     pagecolor="#ffffff"
     bordercolor="#666666"
     borderopacity="1"
     objecttolerance="10"
     gridtolerance="10"
     guidetolerance="10"
     inkscape:pageopacity="0"
     inkscape:pageshadow="2"
     inkscape:window-width="1920"
     inkscape:window-height="1017"
     id="namedview4"
     showgrid="false"
     inkscape:zoom="1.9584304"
     inkscape:cx="257.04367"
     inkscape:cy="129.90929"
     inkscape:window-x="-8"
     inkscape:window-y="-8"
     inkscape:window-maximized="1"
     inkscape:current-layer="svg2" />
  <style
     id="style847"
     type="text/css">
	.st0{fill:#fff;}
	.st1{fill:#1B1986;}
</style>
  <style
     id="style934"
     type="text/css">
	.st0{fill:#000040;}
	.st1{fill:#FFFFFF;}
</style>
  <g
     id="g867"
     transform="matrix(0.35888885,0,0,0.35837692,2.7136472e-5,-9.963459e-6)"
     style="stroke-width:2.78836751">
    <rect
       style="fill:#ffffff;stroke:none;stroke-width:2.78836751"
       id="rect2502"
       y="1.1368684e-013"
       x="-1.2505552e-012"
       height="600"
       width="900" />
    <g
       id="g2504"
       style="stroke-width:2.54894853"
       transform="matrix(1.0948507,0,0,1.0930073,-41.260064,-28.258398)">
      <path
         style="fill:#000000;stroke:none;stroke-width:2.54894853"
         id="path2386"
         d="m 450,120 c -99.36,0 -180,80.64001 -180,180 0,99.36 80.64,180 180,180 99.36,0 179.99999,-80.64 180,-180 0,-99.36 -80.64,-180 -180,-180 z m 0,18.5 c 47.61458,0 90.43301,20.65377 120,53.46875 H 330 C 359.56699,159.15377 402.38542,138.5 450,138.5 Z M 329.96875,408 h 240.0625 C 540.46325,440.83402 497.63043,461.5 450,461.5 402.36957,461.5 359.53675,440.83402 329.96875,408 Z"
         inkscape:connector-curvature="0" />
      <path
         style="fill:#ffffff;stroke:none;stroke-width:2.54894853"
         id="path2491"
         d="m 411,343.03125 v 9.90625 H 405.9375 401 v 3.5 3.5 h 5 5 v 3.84375 c 0,0 0,4 0,4 0,10e-6 -12.96875,3.4143 -12.96875,11.53125 0,10.18617 14.96875,11.0625 14.96875,11.0625 5.53413,2e-5 6,-4.5625 6,-4.5625 0,-10e-6 0,-6.03125 0,-6.03125 0,0 0,-7.96875 0,-7.96875 0,10e-6 6.81531,-2.34375 12.25,-2.34375 8.22051,0 7.65625,6.03125 7.65625,6.03125 10e-6,6.20748 -5.4375,6.125 -5.4375,6.125 -4.76653,10e-6 -7.0625,-4.15625 -7.0625,-4.15625 l -5.71875,4.96875 c -10e-6,10e-6 2.43484,6.65625 12.78125,6.65625 10e-6,10e-6 13.5,-0.0919 13.5,-13.59375 -10e-6,-10e-6 0.61865,-12.71875 -15.71875,-12.71875 C 426.48345,362.78125 419,365 419,365 c 0,10e-6 0,-5.90625 0,-5.90625 3.2524,10e-6 8.125,-1.90625 8.125,-1.90625 10e-6,-2.46054 0,-4.91446 0,-7.375 10e-6,10e-6 -5.77889,2.0625 -8.09375,2.0625 0,-10e-6 0,-4.375 0,-4.375 v -4.46875 H 415.25 c 0,-10e-6 -4.25,0 -4.25,0 z m 66.125,0 v 9.90625 h -5.0625 -4.9375 v 3.5 3.5 h 5 5 v 3.84375 c 0,0 0,4 0,4 0,10e-6 -12.96875,3.4143 -12.96875,11.53125 0,10.18617 14.96875,11.0625 14.96875,11.0625 5.53413,2e-5 6,-4.5625 6,-4.5625 0,-10e-6 0,-6.03125 0,-6.03125 0,0 0,-7.96875 0,-7.96875 0,10e-6 6.81531,-2.34375 12.25,-2.34375 8.22051,0 7.65625,6.03125 7.65625,6.03125 10e-6,6.20748 -5.4375,6.125 -5.4375,6.125 -4.76653,10e-6 -7.0625,-4.15625 -7.0625,-4.15625 l -5.71875,4.96875 c -10e-6,10e-6 2.43484,6.65625 12.78125,6.65625 10e-6,10e-6 13.5,-0.0919 13.5,-13.59375 2e-5,-10e-6 0.61865,-12.71875 -15.71875,-12.71875 -4.76655,0 -12.25,2.21875 -12.25,2.21875 0,10e-6 0,-5.90625 0,-5.90625 3.2524,10e-6 8.125,-1.90625 8.125,-1.90625 10e-6,-2.46054 0,-4.91446 0,-7.375 10e-6,10e-6 -5.77889,2.0625 -8.09375,2.0625 0,-10e-6 0,-4.375 0,-4.375 v -4.46875 H 481.375 c 0,-10e-6 -4.25,0 -4.25,0 z m 68.96875,0.90625 c -0.625,3.75 -2.6875,8.0625 -2.6875,8.0625 H 533 v 8 c 0,0 8,0 8,0 0,0 -6.17492,18.00878 -12.125,26.84375 0,0 7.78125,3.59375 7.78125,3.59375 5.125,-5.875 9.32888,-20.47879 13.6875,-31.03125 5.04287,0 12.6875,-2.875 12.6875,-2.875 0,0 0,-8.0625 0,-8.0625 -6.3125,2.3125 -10.1875,2.71875 -10.1875,2.71875 1.375,-2.1875 1.96875,-5.125 1.96875,-5.125 0,0 -8.71875,-2.125 -8.71875,-2.125 z m -112.4375,4.40625 -3.875,6.21875 c 5.37621,1.78691 9.78608,4.84283 13.25,7.53125 -10e-6,10e-6 4.90625,-5.96875 4.90625,-5.96875 -3.05032,-2.89521 -11.95473,-7.47105 -14.28125,-7.78125 z m 66.125,0 -3.875,6.21875 c 5.37621,1.78691 9.78608,4.84283 13.25,7.53125 -10e-6,10e-6 4.90625,-5.96875 4.90625,-5.96875 -3.05032,-2.89521 -11.95473,-7.47105 -14.28125,-7.78125 z m 71.1875,10.625 c -12.87241,0.14021 -17.71875,1.4375 -17.71875,1.4375 0,0 1.03125,6.5625 1.03125,6.5625 0,0 5.34095,-1.71875 22.78125,-1.71875 L 577,359 c -2.17509,-0.0337 -4.19233,-0.0513 -6.03125,-0.0312 z M 548.75,375 c 0,0 -1.7653,15.5 14.875,14.625 C 571.74492,389.3125 579,388.5 579,388.5 l 0.0937,-7.53125 c 0,0 -9.03125,0.71875 -15.15625,1.09375 C 554.68572,382.875 556,375 556,375 Z M 411,375.34375 c 0,0 0,7.5625 0,7.5625 0,-10e-6 -5.40625,-1.04103 -5.40625,-3.53125 10e-6,-2.53332 5.40625,-4.03125 5.40625,-4.03125 z m 66.125,0 c 0,0 0,7.5625 0,7.5625 0,-10e-6 -5.40625,-1.04103 -5.40625,-3.53125 10e-6,-2.53332 5.40625,-4.03125 5.40625,-4.03125 z"
         inkscape:connector-curvature="0" />
    </g>
  </g>
</svg>
