<svg xmlns="http://www.w3.org/2000/svg" width="600" height="400"><path fill="#306" d="M0 0h600v400H0z"/><path d="M236.243 202.501c0 37.012 27.911 64.922 64.923 64.922 35.799 0 64.923-29.124 64.923-64.922a64.47 64.47 0 0 0-11.169-36.398l-33.832 2.294c11.708 6.854 19.578 19.556 19.578 34.104 0 21.814-17.686 39.499-39.5 39.499s-39.5-17.685-39.5-39.499c0-20.289 15.298-36.995 34.987-39.236l138.528-9.611 2.868-26.68-151.096 12.163c-29.383 6.472-50.71 33.12-50.71 63.364zm44.898-95.766c-46.095 10.152-77.064 49.147-77.064 97.036 0 53.691 43.682 97.373 97.374 97.373s97.374-43.682 97.374-97.373c0-13.983-2.899-27.451-8.605-40.061l-27.328 1.853c6.687 11.136 10.198 23.797 10.198 36.938 0 39.658-32.265 71.922-71.923 71.922-19.394 0-37.447-7.246-50.835-20.402-13.599-13.363-21.087-31.66-21.087-51.52 0-16.46 5.693-32.551 16.031-45.31 10.203-12.592 24.47-21.431 40.174-24.89 12.445-2.741 125.586-10.514 153.362-12.393l2.708-25.184-32.917 2.151-127.462 9.86zm124.683 97.036c0 57.552-46.822 104.373-104.374 104.373s-104.374-46.821-104.374-104.373c0-51.253 33.178-92.996 82.559-103.872 10.688-2.354 70.586-6.245 128.512-10.008l34.131-2.231L445 62.333l-146.339 9.363.004.003c-17.25.367-33.678 4.072-48.665 10.496V65l-89.667-9.333 10.527 154.028.002-.004c.844 15.585 4.415 30.444 10.246 44.109h-18.173L154 340.5l146.946-7.171.554.007c4.576 0 9.096-.237 13.551-.695l.02-.001-.002-.001c65.882-6.789 117.268-62.463 117.268-130.139 0-14.396-2.335-28.243-6.632-41.197l-28.066 1.903c5.427 12.831 8.185 26.454 8.185 40.565z" fill="#fff"/></svg>