<?xml version="1.0" encoding="UTF-8" standalone="no"?>
<!-- Created with Inkscape (http://www.inkscape.org/) -->

<svg
   xmlns:dc="http://purl.org/dc/elements/1.1/"
   xmlns:cc="http://creativecommons.org/ns#"
   xmlns:rdf="http://www.w3.org/1999/02/22-rdf-syntax-ns#"
   xmlns:svg="http://www.w3.org/2000/svg"
   xmlns="http://www.w3.org/2000/svg"
   xmlns:sodipodi="http://sodipodi.sourceforge.net/DTD/sodipodi-0.dtd"
   xmlns:inkscape="http://www.inkscape.org/namespaces/inkscape"
   version="1.1"
   id="svg2"
   width="324"
   height="216"
   viewBox="0 0 324 216"
   sodipodi:docname="Flag of Nasushiobara, Tochigi.svg"
   inkscape:version="0.92.3 (2405546, 2018-03-11)">
  <metadata
     id="metadata8">
    <rdf:RDF>
      <cc:Work
         rdf:about="">
        <dc:format>image/svg+xml</dc:format>
        <dc:type
           rdf:resource="http://purl.org/dc/dcmitype/StillImage" />
        <dc:title></dc:title>
      </cc:Work>
    </rdf:RDF>
  </metadata>
  <defs
     id="defs6" />
  <sodipodi:namedview
     pagecolor="#ffffff"
     bordercolor="#666666"
     borderopacity="1"
     objecttolerance="10"
     gridtolerance="10"
     guidetolerance="10"
     inkscape:pageopacity="0"
     inkscape:pageshadow="2"
     inkscape:window-width="1920"
     inkscape:window-height="1017"
     id="namedview4"
     showgrid="false"
     inkscape:zoom="1.2396193"
     inkscape:cx="162"
     inkscape:cy="108"
     inkscape:window-x="-8"
     inkscape:window-y="-8"
     inkscape:window-maximized="1"
     inkscape:current-layer="svg2" />
  <g
     id="g833"
     transform="translate(-933.66406,-572.60262)">
    <rect
       style="fill:#e5fe80;fill-opacity:1;stroke:none;stroke-width:0.35999998"
       id="rect3167"
       y="572.6026"
       x="933.66406"
       height="216"
       width="324" />
    <g
       id="g3181"
       transform="translate(793.7921,259.75717)">
      <path
         style="fill:#009f62;stroke:none;stroke-width:0.33848014"
         id="path2384"
         d="m 275.95497,482.2717 h -14.70449 l 41.07118,-83.03698 27.88784,55.92287 67.94493,-95.9162 -67.94493,125.06386 -27.71882,-55.58393 z"
         inkscape:connector-curvature="0" />
      <path
         style="fill:#408dcb;stroke:none;stroke-width:0.33848014"
         id="path2388"
         d="m 324.80095,423.89161 c -4.2589,-0.006 -7.26774,0.0742 -7.26774,0.0742 l 0.67607,1.3663 c 0,0 16.76796,-0.84686 30.08506,0.16946 -5.83278,-1.3361 -16.39522,-1.59949 -23.49339,-1.6099 z m -39.38102,3.98239 c 0,0 -28.39489,5.68496 -28.39489,18.30203 0,8.1305 12.84531,13.04867 12.84531,13.04867 l 4.39445,-8.81209 c 0,0 -4.56347,-3.16246 -4.56347,-6.94799 0,-7.22238 13.6904,-11.35404 13.6904,-11.35404 z m 5.74659,29.4866 -3.71838,7.62584 c 0,0 17.95155,3.19676 32.28229,3.89767 l -3.88739,-7.62585 c -12.23356,-0.70091 -24.67652,-3.89766 -24.67652,-3.89766 z m -23.32437,5.93122 c 0,0 -32.11328,5.82312 -32.11328,19.14934 0,13.74207 35.31933,22.19969 66.93081,22.19969 33.35476,0 66.42378,-8.97345 66.42378,-22.19969 0,-11.50876 -25.5216,-17.62417 -25.5216,-17.62417 l -3.67612,6.5667 c 0,0 15.50733,2.70147 15.50733,10.21016 0,4.6398 -13.50134,13.89598 -53.07141,13.89598 -32.23279,0 -53.40944,-8.42898 -53.40944,-18.13256 0,-9.04535 18.92993,-14.06545 18.92993,-14.06545 z"
         inkscape:connector-curvature="0" />
      <path
         style="fill:#ef8861;stroke:none;stroke-width:0.33848014"
         id="path3178"
         d="m 416.18164,346.01142 c 0,5.9868 -4.84606,10.84565 -10.8171,10.84565 -5.97104,0 -10.8171,-4.85885 -10.8171,-10.84565 0,-5.9868 4.84606,-10.84564 10.8171,-10.84564 5.97104,0 10.8171,4.85884 10.8171,10.84564 z"
         inkscape:connector-curvature="0" />
    </g>
  </g>
</svg>
