<?xml version="1.0" encoding="utf-8"?>
<!DOCTYPE svg PUBLIC "-//W3C//DTD SVG 1.1//EN" "http://www.w3.org/Graphics/SVG/1.1/DTD/svg11.dtd">
<svg version="1.1" xmlns="http://www.w3.org/2000/svg" x="0" y="0" width="496" height="347" viewBox="0 0 496 347">
<style type="text/css">
	.st0{fill:#fff;}
	.st1{fill:#F7B101;}
	.st2{fill:#0270BE;}
	.st3{fill:#6FB72E;}
</style>
<rect class="st0" width="496" height="347"/>
	<ellipse class="st1" cx="334.4" cy="190.2" rx="34.4" ry="34.2"/>
	<path class="st2" d="M187.1,104.5c-12,5.1-50.9,24.3-58.8,73.8s24.6,109.3,93.3,115.8c68.7,6.5,114.1-45.6,125.4-63.5
		c-12.3,3.6-25.6,2.6-35.9-4.8c-14.4-10.4-17.2-21.4-17.8-25.8c-8.2,8.1-26.3,32.6-68.7,26.8S141.7,159.8,187.1,104.5z"/>
	<path class="st2" d="M275,127.7c-2.5,1.2-39.8,23.8-42.3,25.4c3.2,2.5,18.2,15.6,7.6,33.5s-39.5,18.1-56.6,2.9
		c25.1,30.3,62.8,28.6,83.2,10.3C286.1,182.7,292.4,153.9,275,127.7z"/>
	<path class="st3" d="M178.3,178c-2-4.6-7.7-29.3,2.6-51.2c10.3-21.8,32.8-41.1,34.8-42.7c2-1.7,36.1-30.6,37.6-31.7
		c2.9,0.5,11.2,4.6,11.7,7c-12.5,7.9-48.8,36.7-58.3,45.8C199,112.7,169,141.3,178.3,178z"/>
	<path class="st3" d="M186.8,179.8c-3.3-2.6-5.3-24.9,3.5-41.6s26-36.7,78.1-72.2c0.9,4.8,1.1,10.7,2.2,12.8
		C197.2,125.5,181.3,149.5,186.8,179.8z"/>
	<path class="st3" d="M272.9,86.1c-25.1,19.3-87.4,49.5-79.2,94.8c-0.6-40.5,59-68.6,86-84.9C278.4,94.4,274.2,89,272.9,86.1z"/>
	<path class="st3" d="M285.2,100.6c-3.9,2.8-94.1,49.1-83.2,80.8c1.3-29.3,79.4-65.6,94.4-73.1C294.2,107.2,287.2,102.6,285.2,100.6
		z"/>
</svg>
