<?xml version="1.0" standalone="no"?>
<!DOCTYPE svg PUBLIC "-//W3C//DTD SVG 20010904//EN"
 "http://www.w3.org/TR/2001/REC-SVG-20010904/DTD/svg10.dtd">
<svg version="1.0" xmlns="http://www.w3.org/2000/svg"
 width="255.000000pt" height="190.000000pt" viewBox="0 0 255.000000 190.000000"
 preserveAspectRatio="xMidYMid meet">

<g transform="translate(0.000000,190.000000) scale(0.100000,-0.100000)"
fill="#000000" stroke="none">
<path d="M0 950 l0 -950 1275 0 1275 0 0 950 0 950 -1275 0 -1275 0 0 -950z
m1340 550 c47 -66 106 -148 131 -183 25 -34 81 -109 123 -166 92 -124 121
-179 141 -263 42 -177 -10 -352 -143 -487 -107 -109 -238 -158 -387 -148 -321
23 -543 324 -469 637 20 85 64 164 166 297 46 60 92 120 103 134 64 84 240
299 245 299 3 0 43 -54 90 -120z m-357 -12 c80 -120 84 -118 -198 -118 l-221
0 -48 90 c-26 49 -44 94 -41 100 4 6 90 10 229 10 l223 0 56 -82z m1032 62
c-4 -11 -27 -56 -51 -100 l-45 -80 -225 0 c-123 0 -224 3 -224 6 0 3 24 48 53
100 l52 94 223 0 c220 0 223 0 217 -20z m-1041 -222 c-4 -7 -41 -55 -82 -105
l-74 -93 -67 0 -66 0 -53 105 -52 105 201 0 c157 0 199 -3 193 -12z m890 -55
c-21 -38 -47 -85 -59 -105 l-20 -38 -70 0 -71 0 -69 97 c-39 54 -71 101 -73
105 -2 5 87 8 198 8 l202 0 -38 -67z"/>
<path d="M1135 994 c-115 -168 -124 -185 -125 -237 0 -79 44 -145 125 -183 64
-31 125 -31 190 0 119 55 158 179 91 288 -84 137 -143 231 -161 253 l-20 25
-100 -146z"/>
</g>
</svg>
