<svg xmlns="http://www.w3.org/2000/svg" height="400" width="600">
 <rect fill="#6c2c2f" height="400" width="600" y="0" x="0"/>
 <path fill="#ffffff" d="m306.6 189c-2.4 6.3 5.5 9.2 10.5 8.6 5.8 0.2 11.3-3.6 12.8-9.2 1.9-4.1 0.5-9.1 3.3-12.8 4.3-4.3 13-0.2 11.8 6-1.1 7.7-2 16.1-6.5 22.6-5.4 6.5-14.5 9.2-22.7 7.5-5.3-1.8-11.5 2.2-9.4 8.2 2.6 6.3 10.4 6 15.8 8.3 8.2 2.8 16.1 8.2 18.8 16.7 2.3 6 3.1 13.9-1.7 18.9-7.7 4.1-12.6-5.6-13-12.1-2.2-7.4-9.6-11.3-16.8-12.4-8.9-1.6-17.9-2-26.8-1.9-7.9 0.1-16-3.9-19.7-11.2-6.1-11.5-3.8-24.9-5.1-37.3-0.9-4.9-4.5-9.7-2.6-14.6 4.6-6.6 15.3-1.8 16.7 5.2 1.9 10.6 1.4 21.5 1.7 32.2-0.1 6.7 6 12.6 12.8 11.3 6.2-0.9 5.2-8.1 5.4-12.8-0.3-8.5 0.9-17.8-3.9-25.3-3.6-5.3-10.1-7.6-14.2-12.4-8.1-8.2-13.7-19.3-14.1-30.9 0.3-6.3 7.6-6.3 12.4-6.3l54.9-0.1c9.9 0 8.7 7 7.4 14.1-0.8 4-1.7 7.9-3.3 11.4-5.4 11.6-20.7 15.5-24.5 28.2zm-25.2-32.2c2.1 4.5 5.7 8.7 11.5 12.5 5.4 3.5 12 1.9 16.5-2.8 3-3.1 6.2-6.1 7.8-9.9 2.1-5.1-1.1-10-6.9-9.9l-25.4 0.5c-5.2 0.1-5.4 5.5-3.5 9.7z"/>
 <path stroke="#ffffff" stroke-width="9.6" fill="none" d="m380.7 119.3c3.3 21.3 15.6 19.5 14.4 41.3 16.3 14.6 6.3 21.9 19 39.4-12.8 17.4-2.7 24.8-19 39.4 1.3 21.8-11 20-14.4 41.3-21.3 3.3-19.5 15.6-41.3 14.4-14.6 16.4-21.9 6.3-39.4 19.1-17.4-12.8-24.8-2.7-39.4-19.1-21.8 1.3-20-11-41.3-14.4-3.3-21.3-15.6-19.5-14.4-41.3-16.3-14.6-6.3-21.9-19-39.4 12.8-17.4 2.7-24.8 19-39.4-1.3-21.8 11-20 14.4-41.3 21.3-3.3 19.5-15.6 41.3-14.4 14.6-16.3 21.9-6.3 39.4-19 17.4 12.8 24.8 2.7 39.4 19 21.8-1.3 20 11 41.3 14.4z"/>
</svg>
