<?xml version="1.0" encoding="UTF-8" standalone="no"?>
<!-- Created with Inkscape (http://www.inkscape.org/) -->

<svg
   xmlns:dc="http://purl.org/dc/elements/1.1/"
   xmlns:cc="http://creativecommons.org/ns#"
   xmlns:rdf="http://www.w3.org/1999/02/22-rdf-syntax-ns#"
   xmlns:svg="http://www.w3.org/2000/svg"
   xmlns="http://www.w3.org/2000/svg"
   xmlns:sodipodi="http://sodipodi.sourceforge.net/DTD/sodipodi-0.dtd"
   xmlns:inkscape="http://www.inkscape.org/namespaces/inkscape"
   version="1.1"
   id="svg2"
   width="324"
   height="216"
   viewBox="0 0 324 216"
   sodipodi:docname="Flag of Haga, Tochigi.svg"
   inkscape:version="0.92.3 (2405546, 2018-03-11)">
  <metadata
     id="metadata8">
    <rdf:RDF>
      <cc:Work
         rdf:about="">
        <dc:format>image/svg+xml</dc:format>
        <dc:type
           rdf:resource="http://purl.org/dc/dcmitype/StillImage" />
        <dc:title></dc:title>
      </cc:Work>
    </rdf:RDF>
  </metadata>
  <defs
     id="defs6" />
  <sodipodi:namedview
     pagecolor="#ffffff"
     bordercolor="#666666"
     borderopacity="1"
     objecttolerance="10"
     gridtolerance="10"
     guidetolerance="10"
     inkscape:pageopacity="0"
     inkscape:pageshadow="2"
     inkscape:window-width="1920"
     inkscape:window-height="1017"
     id="namedview4"
     showgrid="false"
     inkscape:zoom="1.7530864"
     inkscape:cx="162"
     inkscape:cy="152.01226"
     inkscape:window-x="-8"
     inkscape:window-y="-8"
     inkscape:window-maximized="1"
     inkscape:current-layer="svg2" />
  <rect
     style="opacity:1;fill:#008816;fill-opacity:1;fill-rule:evenodd;stroke:none;stroke-width:6.18599987;stroke-miterlimit:4;stroke-dasharray:none;stroke-opacity:1"
     id="rect817"
     width="324"
     height="216"
     x="0"
     y="0" />
  <g
     id="layer1"
     transform="matrix(0.21951844,0,0,0.21796441,96.44366,-55.682701)">
    <path
       id="path3141"
       style="opacity:1;fill:#ffffff;fill-opacity:1;fill-rule:nonzero;stroke:none;stroke-width:30;stroke-linecap:round;stroke-linejoin:round;stroke-miterlimit:4;stroke-dasharray:none;stroke-opacity:1"
       d="M 295,452.4375 C 131.70244,455.10949 0,588.44438 0,752.375 c 0,163.93063 131.70243,297.2655 295,299.9375 v -70 C 170.34529,979.65009 70,877.66444 70,752.375 c -10e-7,-41.88865 11.220926,-81.16214 30.8125,-115 C 139.81954,570.00344 212.02173,524.20979 295,522.4375 Z m -194.1875,184.9375 49.0625,85 H 214 L 181.9375,777.90625 231.03125,862.9375 300,743.5 312.1875,722.375 h 39.75 l -101.03125,175 49.09375,85 150.125,-259.96875 5.75,-10.03125 -43.28125,-74.96875 -11.5625,-0.0312 H 380 336.90625 L 300,573.46875 263.09375,637.40625 Z M 305,452.4375 v 70 c 82.97827,1.77231 155.18046,47.56594 194.1875,114.9375 19.59157,33.83786 30.8125,73.11134 30.8125,115 0,125.28947 -100.34528,227.27506 -225,229.9375 v 70 C 468.29756,1049.6405 599.99999,916.30565 600,752.375 600,588.44437 468.29755,455.10948 305,452.4375 Z M 499.1875,637.375 H 453 l 23.09375,40 z m -77.375,0 38.6875,67 11.53125,-20 -27.125,-47 z"
       inkscape:connector-curvature="0" />
  </g>
</svg>
