<svg xmlns="http://www.w3.org/2000/svg" width="600" height="400"><path fill="#060268" d="M0-.001h600v400H0z"/><path fill="#fff" d="M427.329 103.803l-92.994 14.611-34.117-38.961-31.656 38.5-94.89-14.149 23.199 50.902 36.328 4.464c-14.623 17.134-23.539 39.803-23.539 64.686 0 51.996 38.867 94.39 87.591 96.587l-16.828-57.154c-20.646-8.357-36.698-26.121-36.698-54.287 0-15.163 6.81-28.937 16.433-39.114.31-.327 41.061 150.66 41.061 150.66l40.15-150.589c9.525 10.171 16.37 20.875 16.37 39.044 0 28.831-16.819 46.458-36.922 55.071l-15.14 56.355c48.496-2.458 87.1-44.752 87.1-96.573 0-24.646-8.747-47.121-23.123-64.197-.315-.375 36.17-4.664 36.17-4.664l21.505-51.192z"/></svg>