<?xml version="1.0" encoding="utf-8"?>
<!DOCTYPE svg PUBLIC "-//W3C//DTD SVG 1.1//EN" "http://www.w3.org/Graphics/SVG/1.1/DTD/svg11.dtd">
<svg version="1.1" xmlns="http://www.w3.org/2000/svg" x="0" y="0" width="324" height="216" viewBox="0 0 324 216">
<style type="text/css">
	.st0{fill:#F8C300;stroke:#000;stroke-width:3;}
	.st1{fill:none;stroke:#000;stroke-width:3;stroke-linecap:round;}
	.st2{fill:#7FBB26;stroke:#000;stroke-width:3;stroke-linecap:round;}
	.st3{fill:#fff;}
</style>
<g id="symbol">
	<g>
		<rect class="st3" width="324" height="216"/>
		<ellipse class="st0" cx="162" cy="99.3" rx="39.9" ry="39.5"/>
		<path class="st1" d="M141.3,91c0-3.9,2.8-7,6.3-7c3.5,0,6.3,3.1,6.3,7"/>
		<path class="st1" d="M169.1,91c0-3.9,2.8-7,6.3-7c3.5,0,6.3,3.1,6.3,7"/>
		<path class="st2" d="M183.8,140.5c8.7,0,36.9,17.2,42.5,1.5c5.3-14.7-12.3-23.2-20.7-27.7c-8.4-4.5-19.3-9-29.2-6.6
			c-11.7,2.9-14.2,5.3-27,22.8c-12.8,17.5-9.1,23.9-8.2,24.8c2.9,3.3,9.6,2,19.9-4.5S180.1,140.5,183.8,140.5z"/>
		<path class="st2" d="M140.2,140.5c-8.7,0-36.9,17.2-42.5,1.5c-5.3-14.7,12.3-23.2,20.7-27.7c8.4-4.5,19.3-9,29.2-6.6
			c11.7,2.9,14.2,5.3,27,22.8c12.8,17.5,9.1,23.9,8.2,24.8c-2.9,3.3-9.6,2-19.9-4.5S143.9,140.5,140.2,140.5z"/>
		<path class="st0" d="M165.4,52.5h-6.8c-0.7,0-1.4-0.5-1.5-1.2l-1.8-13.6c-0.1-0.9,0.6-1.6,1.5-1.6h10.4c0.9,0,1.6,0.8,1.5,1.6
			l-1.8,13.6C166.8,52,166.1,52.5,165.4,52.5z"/>
		<path class="st0" d="M147.2,54.8l-6.3,2.6c-0.7,0.3-1.5,0-1.8-0.6l-6.9-11.9c-0.4-0.7-0.1-1.7,0.7-2l9.6-4c0.8-0.3,1.7,0.1,2,0.9
			l3.5,13.2C148.3,53.8,147.9,54.5,147.2,54.8z"/>
		<path class="st0" d="M183.1,57.4l-6.3-2.6c-0.7-0.3-1-1-0.9-1.7l3.5-13.2c0.2-0.8,1.1-1.3,2-0.9l9.6,4c0.8,0.3,1.2,1.3,0.7,2
			l-6.9,11.9C184.5,57.4,183.7,57.7,183.1,57.4z"/>
	</g>
</g>
<g id="那須烏山市">
	<g>
		<path d="M100.3,175.3l-0.1,5.9h2.2v1.8h-2.2c0,1.7,0,3.5-0.1,5.4h2.3v2h-2.5l-0.5,6.6c-0.3,2.4-1.4,3.5-3.5,3.5
			c-1.2-0.2-2.4-0.4-3.6-0.9v-2.3c1.2,0.6,2.4,0.9,3.5,1c0.9,0,1.4-0.5,1.6-1.6c0.3-2.1,0.4-4.3,0.5-6.5h-4.4c-0.7,4.4-2.7,8.1-6,11
			l-1.7-1.3c3-2.6,4.9-5.8,5.6-9.7h-3.6v-1.8h3.9c0.2-1.9,0.3-3.7,0.3-5.4h-4.1v-1.8H92l0.1-4h-4.5v-1.8H100.3z M98.1,183h-4.1
			c-0.1,1.7-0.2,3.5-0.3,5.4H98C98,186.9,98.1,185.1,98.1,183z M98.2,177.2h-4.1l-0.1,4h4.1C98.1,180.2,98.1,178.8,98.2,177.2z
			 M109.7,185.2c2.1,2.3,3.3,4.9,3.3,7.7c-0.1,2.7-1.3,4.1-3.8,4.2c-0.8,0-1.6-0.2-2.4-0.5l-0.8-2.5c1.2,0.7,2.3,1,3.1,0.9
			c1.2-0.1,1.8-0.8,1.7-2.1c0-2.6-1.2-5-3.6-7.2c1.5-3.2,2.6-6,3.2-8.4h-5.1v24.5h-2.1v-26.3h9.4v2
			C111.9,179.9,110.8,182.5,109.7,185.2z"/>
		<path d="M129.7,190.9c-3.3,4.4-7.1,7.5-11.6,9.5l-1.3-1.9c4.1-1.6,7.8-4.7,11.3-9L129.7,190.9z M128.4,182.5
			c-2.8,4.3-5.9,7.4-9.4,9.3l-1.5-1.5c3.5-2,6.5-5,9.2-9L128.4,182.5z M127.8,175.2c-2,3.5-4.9,6.5-8.7,8.8l-1.3-1.7
			c3.3-1.8,6.2-4.7,8.5-8.5L127.8,175.2z M135.8,197.6c-1.8,2.1-4,3.5-6.7,4.3l-2-1.3c3.1-1,5.4-2.4,6.9-4.3L135.8,197.6z M145,177
			h-6.9l-0.8,2.9h5.5v16.3h-12v-16.3h4.2l0.8-2.9h-6.9V175H145V177z M140.5,184.6v-3H133v3H140.5z M140.5,189.4v-3H133v3H140.5z
			 M140.5,194.3v-3.1H133v3.1H140.5z M145.1,200.7l-2,1.1c-1.1-1.8-2.8-3.3-5.2-4.3l1.8-1.2C142.1,197.4,143.8,198.8,145.1,200.7z"
			/>
		<path d="M149.9,201.4l-1.7-1.2c2.3-1.4,3.8-3.4,4.4-6l1.8,1C153.8,197.9,152.2,199.9,149.9,201.4z M174.7,190.9
			c-0.2,2.8-0.6,5.4-1,7.9c-0.2,1.9-1.4,2.9-3.5,2.9c-1,0-2.1-0.1-3.2-0.3l-0.8-2.1c1.7,0.5,3.1,0.7,4.3,0.6c0.6,0,1-0.3,1.2-1
			c0.4-2,0.7-4.1,0.8-6.2H153v-15.3h5.9c1.4-1.2,2.6-2.4,3.5-3.8l1.8,1c-0.9,1.2-1.7,2.1-2.4,2.8h9.6v7.5H155v2.2h17.8v1.7H155v2.2
			H174.7z M169.5,179.1H155v4h14.6V179.1z M157.4,200.7c0.1-2.1-0.3-3.9-1.2-5.4l1.8-0.7c1,1.6,1.4,3.5,1.4,5.8L157.4,200.7z
			 M163.5,199.9c-0.1-1.9-0.9-3.6-2.4-4.9l1.7-1c1.6,1.5,2.5,3.2,2.6,5.2L163.5,199.9z M168.7,198.5c-0.2-1.7-0.9-3.1-2.3-4.3
			l1.7-0.9c1.4,1.2,2.2,2.6,2.4,4.4L168.7,198.5z"/>
		<path d="M204.8,201.6h-2.2v-2.1h-18.9v2.1h-2.2V180h2.2v17.4h8.3v-23.7h2.2v23.7h8.4V180h2.2V201.6z"/>
		<path d="M237.7,180h-27.4v-1.9h27.4V180z M230.7,198.1h-2.6l-0.7-2.1c1.4,0.2,2.4,0.2,3,0.2c0.9,0,1.3-0.4,1.3-1.1v-8.1h-6.7v14.5
			h-2.3v-14.5h-6.1v11h-2.3v-12.9h8.4v-4h2.3v4h9v10.2c0,0.9-0.3,1.6-0.9,2C232.6,197.9,231.8,198.1,230.7,198.1z M224.8,178.2h-2.2
			v-4.6h2.2V178.2z"/>
	</g>
</g>
</svg>
