<?xml version="1.0" encoding="UTF-8" standalone="no"?><!-- Created with Inkscape (http://www.inkscape.org/) --><svg xmlns="http://www.w3.org/2000/svg" height="600" width="900" version="1.1"><rect fill-rule="nonzero" height="600" width="900" y="0" x="0" fill="#333c5e"/><path fill="#FFF" transform="translate(0,295)" d="m450-175-22.737,56.842-166.74-18.947,128.84,68.211,5.2105,15.632-47.092-24.947c-30.156,27.706-49.066,67.452-49.066,111.63,0,74.475,53.701,136.41,124.5,149.17-8.7529-7.4848-14.373-18.544-14.605-30.908-27.085-14.784-45.474-43.548-45.474-76.579,0-48.136,39.022-87.158,87.158-87.158s87.158,39.022,87.158,87.158c0,36.146-22.025,67.125-53.368,80.329,0.19749-1.485,0.31579-3.0005,0.31579-4.5395,0-18.836-15.269-34.105-34.105-34.105s-34.105,15.269-34.105,34.105,15.269,34.105,34.105,34.105c83.715,0,151.58-67.864,151.58-151.58,0-44.179-18.909-83.926-49.066-111.63l-47.092,24.947,5.2105-15.632,128.84-68.211-166.74,18.947-22.73-56.82z"/></svg>